/* XPM */
static char *result[] = {
/* columns rows colors chars-per-pixel */
"64 64 110 2 ",
"   c #33393F",
".  c #353B41",
"X  c #383F45",
"o  c #394047",
"O  c #3D464E",
"+  c #3F484F",
"@  c #3F4850",
"#  c #40474F",
"$  c #40484F",
"%  c #444C55",
"&  c #464F58",
"*  c #475059",
"=  c #4B545D",
"-  c #4D5760",
";  c #4E5861",
":  c #515B65",
">  c #545E68",
",  c #56616C",
"<  c #5A646E",
"1  c #5B6671",
"2  c #5F6A76",
"3  c #636B73",
"4  c #626E7C",
"5  c #63707E",
"6  c #657381",
"7  c #6A7684",
"8  c #677A87",
"9  c #6C7887",
"0  c #677B88",
"q  c #6C7C8A",
"w  c #747D86",
"e  c #727E8C",
"r  c #6A828E",
"t  c #74808F",
"y  c #6C8692",
"u  c #6E8B97",
"i  c #6E8D98",
"p  c #768392",
"a  c #7A8696",
"s  c #7F8892",
"d  c #7A8798",
"f  c #708F9A",
"g  c #7B8898",
"h  c #71929E",
"j  c #7D909F",
"k  c #7396A1",
"l  c #7F95A3",
"z  c #7499A4",
"x  c #779EA8",
"c  c #7F9DAA",
"v  c #77A3AD",
"b  c #79A2AC",
"n  c #7BA6B0",
"m  c #7BA9B2",
"M  c #7FB3BC",
"N  c #818D9D",
"B  c #84909F",
"V  c #8B949E",
"C  c #8692A1",
"Z  c #8A95A3",
"A  c #8098A6",
"S  c #8E99A7",
"D  c #819BA9",
"F  c #8F9AA8",
"G  c #9099A3",
"H  c #919CA9",
"J  c #83A1AE",
"K  c #97A1AE",
"L  c #9BA4AF",
"P  c #83A4B1",
"I  c #85A9B5",
"U  c #86ADB9",
"Y  c #9BA5B1",
"T  c #9FA9B5",
"R  c #82B7BF",
"E  c #88B2BD",
"W  c #9FB5BF",
"Q  c #A1ABB6",
"!  c #A5AEBA",
"~  c #A7B0BB",
"^  c #A8B1BC",
"/  c #89B5C0",
"(  c #85BDC4",
")  c #8ABCC6",
"_  c #8DBFC9",
"`  c #A5BDC7",
"'  c #84C0C7",
"]  c #87C5CC",
"[  c #8CC5CD",
"{  c #8FC7D0",
"}  c #8CCAD1",
"|  c #92CED6",
" . c #8CD1D7",
".. c #8ED3D9",
"X. c #92D5DC",
"o. c #91D9DF",
"O. c #A2D7DD",
"+. c #95DDE3",
"@. c #98DFE4",
"#. c #94E1E6",
"$. c #99E2E7",
"%. c #97E3E9",
"&. c #99E7EC",
"*. c #99E9EE",
"=. c #9CEFF3",
"-. c #9DF2F5",
";. c #9FF6F9",
":. c #A2E8ED",
">. c #A1EEF2",
",. c #A0F8FB",
/* pixels */
",.,.,.,.,.,.,.,.,.,.,.,.,.,.,.,.,.,.,.,.,.,.,.,.,.,.,.,.,.,.,.,.,.,.,.,.;.,.,.,.,.,.,.,.,.,.,.,.,.,.,.,.,.,.,.,.,.,.,.,.,.,.,.,.",
",.,.,.,.,.,.,.,.,.,.;.,.,.,.,.,.,.,.,.,.,.,.;.,.,.,.,.,.,.,.,.,.,.,.,.,.,.,.,.,.,.,.,.,.,.,.,.,.,.,.;.,.,.,.,.,.,.,.,.,.,.,.,.,.",
",.,.,.,.,.,.,.,.,.,.,.,.,.,.,.,.,.,.,.,.,.,.,.,.,.,.,.,.,.,.,.,.,.,.,.,.,.,.,.,.,.,.,.,.,.,.,.,.,.,.,.,.,.,.,.,.,.,.,.,.,.,.,.,.",
",.,.,.,.,.,.,.,.,.,.,.,.,.,.,.,.,.,.,.,.,.,.,.,.,.,.,.,.,.,.,.,.,.,.,.,.,.,.,.,.,.,.,.,.,.,.,.,.,.,.,.,.,.,.,.;.,.,.,.,.,.,.,.;.",
",.,.,.,.,.,.,.,.,.,.;.,.,.,.,.,.,.,.,.,.,.,.,.,.,.,.,.,.,.,.,.,.,.;.,.,.,.,.,.,.,.,.,.,.,.,.,.,.,.,.,.,.,.,.,.,.,.,.,.,.,.,.,.,.",
",.,.,.,.,.,.,.,.,.,.,.,.,.,.,.,.,.,.,.,.,.,.,.,.,.,.,.,.,.,.,.,.,.,.,.,.,.,.,.,.,.,.,.;.,.,.,.,.,.,.,.,.,.,.,.,.,.,.,.,.,.,.,.,.",
",.,.,.,.;.,.,.,.,.,.,.,.,.,.,.,.,.,.,.,.,.,.,.,.,.,.,.,.,.;.,.,.,.,.,.,.,.,.,.,.,.,.,.,.,.,.,.,.,.,.,.,.,.,.,.,.,.,.,.,.,.,.,.,.",
",.,.,.,.,.,.,.,.,.,.,.,.,.,.,.,.,.;.,.,.,.,.,.,.,.,.,.,.,.,.,.,.,.,.,.,.,.,.,.,.,.,.,.,.,.,.,.,.,.,.,.,.,.,.,.,.,.,.,.,.,.,.,.,.",
",.,.,.,.,.,.,.,.,.,.,.,.,.,.,.,.,.,.,.,.,.,.,.,.,.,.,.,.,.,.,.;.,.,.,.,.,.,.,.,.,.,.,.,.,.,.,.,.,.,.,.,.,.,.,.;.,.,.,.,.,.,.,.,.",
",.,.,.,.,.,.,.,.,.,.,.,.,.,.,.,.,.,.,.,.,.,.,.,.,.,.,.,.,.,.,.,.,.-.*.*.*.,.,.,.,.,.,.,.,.,.,.,.,.,.,.,.,.,.,.,.;.,.,.,.,.,.,.,.",
",.,.,.,.,.,.,.,.,.,.,.,.,.,.,.,.,.,.,.,.,.,.,.,.,.,.,.;.,.,.;.+.M h r r r b ] -.,.,.,.,.,.,.,.,.,.,.,.,.,.,.,.,.,.,.,.,.,.,.,.,.",
",.,.,.,.,.,.,.,.,.,.,.,.;.,.,.,.,.,.,.,.,.,.,.,.,.,.,.,.,.-.( q 4 4 4 4 5 7 e D @.,.,.,.,.,.,.,.,.,.,.,.,.,.,.,.,.,.,.,.,.,.,.,.",
",.,.,.,.,.,.,.,.,.,.,.,.,.,.,.,.,.,.,.,.,.;.;.;.,.,.,.,.-.b 4 4 4 5 7 e a d g d A @.,.,.,.,.,.,.,.,.,.,.,.,.,.,.,.,.,.,.,.,.,.,.",
",.-.,.,.;.,.,.,.,.,.,.,.,.,.,.,.,.,.,.,.,.;.;.;.,.,.,.%.x 4 5 5 5 7 p g g g g g a A $.,.,.,.,.,.,.,.,.,.,.,.,.,.,.,.,.,.,.,.,.,.",
",.,.,.,.,.,.,.,.,.,.,.,.,.,.,.,.,.,.,.,.,.,.;.;.;.=.} y 4 5 5 4 8 a a g g d d d d a U -.,.,.,.,.,.,.,.,.,.,.,.,.,.,.,.,.,.,.,.,.",
",.,.,.,.,.,.,.,.,.,.,.,.,.,.,.,.,.,.,.,.,.,.;.o.R u 6 5 5 4 6 e d g g g g d d g g g g E >.,.,.,.;.,.,.,.,.,.,.,.,.,.,.,.,.;.,.,.",
",.,.,.,.,.,.,.,.,.,.,.,.,.,.,.,.,.,.,.,.-.] z 0 4 4 4 6 6 e p g d g g g g g g g g g g g E >.,.,.,.,.,.,.,.,.,.,.,.,.,.,.,.,.,.,.",
",.,.,.,.,.,.,.,.,.,.,.,.,.,.,.,.,.;.,.o.h 6 5 5 4 6 q e a g g g g g g g g g g d g g g g g E ,.,.,.,.,.,.,.,.,.,.,.,.,.,.,.,.,.,.",
",.,.,.,.,.,.,.,.,.,.,.,.,.,.,.,.,.;.o.r 4 5 5 5 9 p g g a d d d g g g d d g g g g g g a g j X.,.,.,.,.,.,.,.,.,.,.,.,.,.,.,.,.,.",
",.,.,.,.,.,.,.,.,.,.,.,.,.,.,.,.,.=.i 5 5 5 5 q p g g g d d d d g g g g g g g g a g g d d a U >.,.,.,.,.,.,.,.,.,.,.,.,.,.,.,.,.",
",.,.,.,.,.,.,.,.,.,.,.,.,.,.,.,.,.( 5 5 5 5 q g g g g g g g g g g g g g g g g g g g g g g g j #.,.,.,.,.,.,.,.,.,.,.,.,.,.,.,.,.",
",.,.,.,.,.,.,.,.,.,.,.,.,.,.,.,.*.u 4 5 5 7 a g g g g g g g a g g d s g g g d g g g g g g a a ) ,.,.,.,.,.,.,.,.,.,.,.,.,.,.,.,.",
",.,.,.,.,.,.,.,.,.,.,.,.,.,.;.,.] 6 5 5 5 e a g g g g g g g g g g g g g g g g g g d g g g g a A $.,.,.,.,.,.,.,.,.,.,.;.,.,.,.,.",
",.,.,.,.,.,.,.,.,.,.,.,.,.,.;.;.z 4 5 5 6 a g g g g a g g g g g g g g d g g g g g d s g g g g d { ,.,.,.,.,.,.,.,.,.,.,.,.,.,.,.",
",.,.,.,.,.,.,.,.,.,.,.,.,.,.,.o.6 5 5 5 e d e > 4 g g g g g g g g g g g g g t , 5 s d d g g g g J -.,.,.,.,.,.,.,.,.,.,.,.,.,.,.",
",.,.,.,.,.,.,.,.,.,.,.,.,.,.,.m 4 6 4 6 a g 7 . % g g g a 4 9 N p 5 9 g g g 5   % a d d g g g d g | ,.,.,.,.,.,.,.,.,.,.,.,.,.,.",
",.,.,.,.,.,.,.,.,.,.,.,.;.,...0 4 4 5 8 g g 7   % a g g 9 . # : =   = d g g 9   % a d g d g g g d P =.,.,.,.,.,.,.,.,.,.,.;.,.,.",
",.,.,.,.,.,.,.,.,.,.,.,.;.=.i 4 6 4 6 p d g w : 3 g g g p =       o 4 d g s t : 5 g g g g g g g g g [ ,.,.,.,.,.,.,.,.,.,.,.,.,.",
",.,.,.,.,.,.,.,.,.,.;.,.+.z 4 6 4 6 e d d d g g d d g g g p 4 1 3 9 g g g g g g d d d g g g g g g g j ] ,.,.,.,.,.,.,.,.,.,.,.,.",
",.,.,.,.,.,.,.,.,.,.-.' r 4 6 4 6 8 d g g g g g d g g g g g g g d g g g g g g g g g d d g g g g g g g g _ -.,.,.,.,.,.,.,.,.,.,.",
",.,.,.,.,.,.,.,.,.+.k 6 4 5 5 6 q d d g g g g g g g g g g g g g d d g d g g g g g g g g g g g g g g g g g I &.,.,.,.,.,.,.,.,.,.",
",.,.-.,.,.,.,.,.} r 4 5 6 5 8 p d d d d g g g g g g g d g g g d g g g g g g d g g g g g g g g g g g g g g g J &.,.,.,.,.,.,.,.,.",
",.,.,.,.;.;.;.&.u 4 5 4 4 e a g g g g g g g g g g g g g g g g g g g g g g g g g g g g g g g g g d g g g g g a E ;.,.,.,.,.,.,.,.",
",.,.,.,.;.;.;.m 4 5 5 6 e g g g g g d g g g g d g g p p p p p p a a g g g g g g g g g g g g g g g g d g d g a j $.,.,.,.,.,.,.,.",
",.,.,.,.,.,.%.0 4 5 4 9 d d g g g g g g g g d a 7 > = % * - - ; ; ; : ; > , 4 t g g g g g g g g g g g g g g d d ' ,.,.,.,.,.,.,.",
",.,.,.,.,.,.] 6 5 5 5 p g g g g g g a g g g a , X     o O @ @ O + + @ + O @ @ = 9 g g g g g d g d g g g g g g d J ,.,.,.,.,.,.,.",
",.,.,.,.;.;.m 2 5 4 6 g g g g g g g g g d d < . . . X @ @ @ @ @ @ @ @ @ @ @ @ O * t g g g g g g g g d g g g s d A &.,.,.,.,.,.,.",
",.,.,.,.;.-.z 5 5 5 q g g g g g g g a g g 6 X     X O @ @ @ @ @ @ @ @ @ @ @ @ @ + , p g d g g d g g g g g g g d g @.,.,.,.,.,.,.",
",.,.,.,.;.*.q 2 6 4 e g g g g g g g g a 5 O . . X O @ @ @ @ @ @ @ @ @ @ @ @ @ @ + @ , p g g d g g g g g g g g g g { ,.,.,.,.,.,.",
",.,.,.,.;. .8 6 4 6 p g g g g g g p 4 = . . X o O @ @ @ @ @ @ @ @ @ @ @ @ @ @ @ + + + = 2 t d d g d g g d g g g s E ,.,.,.,.,.,.",
",.,.,.,.,.' 5 5 5 6 a g g g g g 9 % .   . O # # @ @ @ @ @ @ @ @ @ @ @ @ @ @ @ @ @ @ @ @ @ & 5 d g g a g g a g g d J -.,.,.,.,.,.",
",.,.,.,.,.m 4 5 5 7 a g g g g a =   .   o # % # @ @ @ @ @ @ @ @ @ @ @ @ @ @ @ @ @ @ @ @ @ O @ r g g g g g g g g d l -.,.,.,.,.,.",
",.,.,.,.;.h 4 5 5 q g d g g g 7 . .   X O @ O O @ @ @ @ @ @ @ @ @ @ @ @ @ @ @ @ @ @ @ @ @ @ O , a g g g g g g g d g X.,.,.,.,.,.",
",.,.,.,.#.0 4 5 5 e g g a g g :     . X @ @ @ @ @ @ @ @ @ @ @ @ @ @ @ @ @ @ @ @ @ @ @ @ @ @ @ * e g g g g g g g g g { ,.,.,.,.,.",
",.,.,.,...6 4 5 5 p d g d d p O   . . O @ @ @ @ @ @ @ @ @ @ @ @ @ @ @ @ @ @ @ @ @ @ @ @ @ @ @ @ 5 g g g g g a g g a U ,.,.,.,.,.",
",.,.,.,.( 4 5 5 6 a d g d d 6 . . . X O @ @ @ @ @ @ @ @ @ @ @ @ @ @ @ @ @ @ @ @ @ @ @ @ @ @ @ O : g g g g g g g g a J ,.,.,.,.,.",
",.,.;.;.m 4 5 5 7 a g g g g >     . X O @ @ @ @ @ @ @ @ @ @ @ @ @ @ @ @ @ @ @ @ @ @ @ @ @ @ @ @ * t g g g g g g g g j $.,.,.,.,.",
",.,.;.=.i 2 5 5 e g d g d a %   .   O @ @ @ @ @ @ @ @ @ @ @ @ @ @ @ @ @ @ @ @ @ @ @ @ @ @ @ @ @ % 7 g g g g g g a g g o.,.,.,.,.",
",.,.,.=.r 4 5 5 e g g g g q o . . . O @ @ @ @ @ @ @ @ @ @ @ @ @ @ @ @ @ @ @ @ @ @ @ @ @ @ @ @ @ O < g d g g d g g g a _ ,.,.,.,.",
",.,.,.} 6 5 5 5 p g g g g 3 . . . . + @ @ @ @ @ @ @ @ @ @ @ @ @ @ @ @ @ @ @ @ @ @ @ @ @ @ @ @ @ O : a g g g g g g g a E ,.,.,.,.",
",.;.,.] 4 5 5 5 a d d d a ;   . . o @ @ @ @ @ @ @ @ @ @ @ @ @ @ @ @ @ @ @ @ @ @ @ @ @ @ @ @ @ @ + % e d d d d d d g g A *.,.,.,.",
",.;.;.b 5 5 5 9 a g d d p $   . . o @ @ @ @ @ @ @ @ @ @ @ @ @ @ @ @ @ @ @ @ @ @ @ @ @ @ @ + + & = < e g B S H Z g g g A *.,.,.,.",
",.,.-.i 5 5 5 q g g g g 7 .   . . O O @ @ @ @ @ @ @ @ @ @ @ @ @ @ @ @ @ @ @ @ @ @ @ @ @ + * 3 t p N F T Q ~ ^ ~ L Z a N | ,.,.,.",
",.,.#.0 4 5 6 t g g g N <       X O O @ @ @ @ @ @ @ @ @ @ @ @ @ @ @ @ @ @ @ @ @ @ @ @ @ > 9 g g B T ~ ~ ~ ~ ~ ~ ^ ! L V { ,.,.,.",
",.,...6 5 q p d N Z L Q V w < # . O @ @ @ @ @ @ @ @ @ @ @ @ @ @ @ @ @ @ @ @ @ @ + + @ , a g g Z T ~ ~ ~ ~ ~ ~ ~ ^ ~ ^ ! ^ :.,.,.",
",.,.R 9 p g g C Y ~ ^ ^ ^ ^ ~ G 3 % + @ @ @ @ @ @ @ @ @ @ @ @ @ @ @ @ @ @ @ @ + O % 5 a g g S Q ~ ~ ~ ~ ~ ~ ~ ~ ~ ~ ^ ^ ^ { :.,.",
",.;.I a g g G Q ^ ^ ~ ~ ~ ~ ~ ^ Q s = $ % + @ @ @ @ @ @ @ @ @ @ @ @ @ @ @ @ @ + * 5 g g g L ! ^ ~ ~ ~ ~ ~ ~ ~ ~ ~ ~ ~ ~ ~ ~ ` :.",
"&.I g g N K ! ~ ~ ~ ~ ~ ~ ~ ~ ~ ^ ^ S = O + @ @ @ @ @ @ @ @ @ @ @ @ @ @ @ @ @ % 7 g g N K ~ ^ ! ~ ~ ~ ~ ~ ~ ~ ~ ~ ~ ~ ~ ~ ~ ^ O.",
"D d g g Y ^ ~ ~ ~ ~ ~ ~ ~ ~ ~ ~ ~ ~ ^ V * O @ @ @ @ @ @ @ @ @ @ @ @ @ @ @ @ + 1 g g d Z ! ! ^ ^ ~ ~ ~ ~ ~ ~ ~ ~ ~ ~ ~ ~ ~ ~ ^ ` ",
"d g g H ^ ^ ~ ~ ~ ~ ~ ~ ~ ~ ~ ~ ^ ^ ^ ~ w + @ @ @ @ @ @ @ @ @ @ @ @ @ @ @ @ @ 9 g d d K ^ ^ ! ^ ~ ~ ~ ~ ~ ~ ~ ~ ~ ~ ~ ~ ~ ~ ^ ^ ",
"g g N Q ~ ~ ~ ~ ~ ~ ~ ~ ~ ~ ~ ~ ~ ~ ~ ^ L ; + @ @ @ @ @ @ @ @ @ @ @ @ @ @ @ = p g d N T ~ ~ ~ ~ ~ ~ ~ ~ ~ ~ ~ ~ ~ ~ ~ ~ ~ ~ ~ ~ ",
"g d H ^ ~ ~ ~ ~ ~ ~ ~ ~ ~ ~ ~ ~ ~ ~ ~ ~ ^ w @ + @ @ @ @ @ @ @ @ @ @ @ @ @ @ , g g d B ~ ~ ~ ~ ~ ~ ~ ~ ~ ~ ~ ~ ~ ~ ~ ~ ~ ~ ~ ~ ~ ",
"g g Y ^ ~ ~ ~ ~ ~ ~ ~ ~ ~ ~ ~ ~ ~ ~ ~ ~ ^ L : O @ @ @ @ @ @ @ @ @ @ @ @ @ @ 5 g g d H ~ ~ ~ ~ ~ ~ ~ ~ ~ ~ ~ ~ ~ ~ ~ ~ ~ ~ ~ ~ ~ ",
"g N Q ~ ~ ~ ~ ~ ~ ~ ~ ~ ~ ~ ~ ~ ~ ~ ~ ~ ^ ^ w @ @ @ @ @ @ @ @ @ @ @ @ @ @ & t g g g Y ^ ~ ~ ~ ~ ~ ~ ~ ~ ~ ~ ~ ~ ~ ~ ~ ~ ~ ~ ~ ~ "
};
