/* XPM */
static char *result[] = {
/* columns rows colors chars-per-pixel */
"64 64 127 2 ",
"   c #BF7175",
".  c #B7767F",
"X  c #BD767B",
"o  c #BD797E",
"O  c #CC6E67",
"+  c #C76F6C",
"@  c #CA6F69",
"#  c #CD7067",
"$  c #C6716E",
"%  c #CA716A",
"&  c #C37373",
"*  c #C37877",
"=  c #C07678",
"-  c #C17A7A",
";  c #C4807C",
":  c #AB778C",
">  c #B47684",
",  c #B87781",
"<  c #B67C86",
"1  c #BA7C82",
"2  c #B37C8A",
"3  c #AB7C90",
"4  c #B78187",
"5  c #BA8085",
"6  c #B5828C",
"7  c #B8868D",
"8  c #BB8B8D",
"9  c #AE8493",
"0  c #AE8997",
"q  c #A5849C",
"w  c #AA8599",
"e  c #A6899F",
"r  c #AC8C9C",
"t  c #B18491",
"y  c #B28A95",
"u  c #B08F9A",
"i  c #AE919E",
"p  c #BA9292",
"a  c #B4949B",
"s  c #B59D9F",
"d  c #9B81A1",
"f  c #9D95AE",
"g  c #998DB1",
"h  c #9A97B4",
"j  c #9C99B5",
"k  c #9897BA",
"l  c #9798BC",
"z  c #9B9CBA",
"x  c #A486A1",
"c  c #A78CA1",
"v  c #A88EA2",
"b  c #A592A5",
"n  c #AA94A4",
"m  c #AC99A6",
"M  c #A496AB",
"N  c #A69AAD",
"B  c #A99CAC",
"V  c #B29CA3",
"C  c #A297B0",
"Z  c #A49DB1",
"A  c #9EA4BD",
"S  c #B7A6A6",
"D  c #B7A8A7",
"F  c #B9A8A6",
"G  c #B3A8AB",
"H  c #A4A3B6",
"J  c #A9A5B2",
"K  c #A3A9B7",
"L  c #ABAAB2",
"P  c #A3A6BA",
"I  c #A2AABD",
"U  c #A8AEB9",
"Y  c #A4B4BF",
"T  c #ABB7BF",
"R  c #C0928E",
"E  c #9BA7C3",
"W  c #9CACC4",
"Q  c #95ABCA",
"!  c #9DB2C7",
"~  c #97B2CD",
"^  c #9CB5CA",
"/  c #9EBBCE",
"(  c #91AFD3",
")  c #98B7D2",
"_  c #97BAD5",
"`  c #9BBDD2",
"'  c #97BFD8",
"]  c #A1AFC2",
"[  c #A2B3C3",
"{  c #A5BBC7",
"}  c #A8B8C2",
"|  c #A2BBCB",
" . c #9DC2D4",
".. c #95C4DD",
"X. c #9BC5D9",
"o. c #9BCBDC",
"O. c #AEC1C3",
"+. c #A4C2CC",
"@. c #A2C6D0",
"#. c #A3CDD7",
"$. c #A2D4DC",
"%. c #AAD7D8",
"&. c #A3D8DF",
"*. c #8FC6E6",
"=. c #96CBE3",
"-. c #9ACFE1",
";. c #9BD3E4",
":. c #9CD9E6",
">. c #95D3E8",
",. c #99D6E9",
"<. c #96DAED",
"1. c #9ADBEB",
"2. c #93DDF3",
"3. c #A1D8E0",
"4. c #9DE2ED",
"5. c #96E3F5",
"6. c #9AE5F3",
"7. c #9BEBF5",
"8. c #96EAFA",
"9. c #9AEEF9",
"0. c #9FF0F7",
"q. c #9DF4FB",
"w. c #9FF9FD",
"e. c #A3E9ED",
"r. c #A1F4F7",
"t. c #A0F4F9",
"y. c #A0F8FB",
/* pixels */
"y.y.y.y.y.y.y.y.y.y.y.y.y.y.y.y.y.y.y.y.y.y.y.y.y.y.y.y.y.y.y.y.y.y.y.y.y.y.9.! s ! 7.y.y.y.y.y.y.y.y.y.y.y.y.y.y.y.y.y.y.y.y.y.",
"y.y.y.y.y.t.y.y.y.y.y.y.y.t.y.y.y.y.y.y.y.y.y.y.y.y.y.y.y.y.y.y.y.y.y.y.y.q.! & @ & n 6.y.y.y.y.y.y.y.y.y.y.y.t.y.y.y.y.y.y.y.y.",
"y.y.y.y.y.y.y.y.y.y.y.y.y.y.q.y.y.y.y.y.y.y.y.y.y.y.y.y.y.y.q.w.y.y.y.y.y.7.t @ % % + ] y.y.y.y.y.y.y.y.y.y.y.y.y.y.y.y.y.y.q.y.",
"y.y.y.y.y.y.y.y.y.y.y.y.y.y.y.y.y.y.y.y.y.y.y.y.y.y.y.y.w.7.W j o.q.y.y.y.e.; # % % @ c 9.y.y.y.y.y.y.y.y.y.y.y.y.y.y.y.y.y.y.y.",
"y.y.y.y.y.y.y.y.y.y.y.y.y.y.y.y.y.y.y.y.y.y.y.y.y.y.y.y.y.+.& @ . -.y.y.y.6.6 # % % % q 7.y.y.y.y.y.y.y.y.y.y.y.y.y.y.y.y.y.y.y.",
"y.y.y.y.y.y.y.y.y.y.y.y.y.y.y.y.y.y.y.y.y.y.y.y.y.y.y.y.y.} @ % O N w.y.y.w.m O % % % q 7.y.y.y.y.y.y.y.y.y.y.y.y.y.y.y.y.y.y.y.",
"y.y.y.y.y.y.y.y.y.y.y.y.y.w.y.5.2.q.y.y.y.y.y.y.y.y.y.y.y.o.& % O < 1.y.y.w.! + % % @ n q.w.y.y.y.y.y.y.y.y.y.y.y.y.y.t.y.y.y.y.",
"y.y.y.y.y.y.y.y.y.y.y.y.y.w.| 2 2 n ;.y.y.y.y.y.t.y.y.y.y.9.0 O # &  .y.y.y.$.& % % @ P w.w.y.y.y.y.y.y.y.y.y.y.y.y.y.y.y.y.y.y.",
"y.y.y.y.y.y.y.y.y.y.y.y.y.7.7 O # + 1 ' w.y.y.y.y.9.<.<.q.w./ & % O Z w.y.y.2.< O % & o.y.y.y.y.y.y.y.y.y.y.y.y.y.y.y.y.y.y.y.y.",
"y.y.y.y.y.y.y.y.y.y.y.y.y.e.5 # % % # o X.y.y.y.q.Q > 2 B 4.7.r @ % t 7.y.y.9.8 O % 2 6.y.y.y.y.y.y.y.y.y.y.y.y.y.y.t.y.y.y.y.y.",
"y.y.y.y.y.y.y.y.y.y.y.y.y.q.N @ % % % # 4 <.y.y.w.h @ # # 7 1.X.& # = -.y.y.t.p # O Z y.y.y.y.y.y.y.y.y.y.t.y.y.y.y.y.y.y.y.y.y.",
"y.y.y.y.y.y.y.y.y.y.w.y.y.y.1.9 $ % % % # M 9.y.w.W $ # $ # i 5.n O + ] y.y.t.p @ & X.y.y.y.q.y.y.y.y.y.y.y.y.y.y.y.y.y.y.y.y.y.",
"y.y.y.y.y.y.y.y.w.4.%.:.9.w.w.1.n & # % # & | y.y.1.1 # $ % & / X.& O v q.y.t.R O 6 6.y.y.y.y.y.y.y.y.y.y.y.y.y.y.y.y.y.y.y.y.y.",
"y.y.y.y.y.y.y.y.y.a $ , n ;.q.w.q.X.0 $ % # y 7.y.w.) X # # # 2 >.V O , 1.y.7.7 @ P w.y.y.y.y.y.y.y.y.y.y.y.y.y.y.y.y.y.y.y.y.y.",
"y.y.y.y.y.y.y.y.q.B @ # @ o [ q.w.w.6.J & # & ` y.y.q.^ X @ # $ B ' = $ @.y.<., & -.y.y.y.y.y.y.y.y.t.y.y.y.y.y.y.y.y.y.y.y.t.y.",
"y.y.y.y.y.y.y.y.y.-.X # % @ & E q.y.y.q.Z % # n q.y.y.q. .6 $ # $ z e O Z w.` % y 9.y.y.y.y.y.y.y.y.y.y.y.y.t.y.y.y.y.y.y.y.y.y.",
"y.y.y.y.y.y.y.y.y.q.W & # $ $ & A 7.w.y.1., # , 1.w.y.y.w.1.n & # & , % t 5.B @ I w.y.y.y.y.y.y.y.y.y.y.y.y.y.y.y.y.y.y.y.y.y.y.",
"y.y.y.y.y.y.y.y.y.y.q.+.6 $ # # $ i =.q.5.2 # $ / w.y.y.y.w.0.E & # % % & ~ 1 X ;.y.y.y.y.y.y.y.y.y.y.y.y.y.y.y.y.y.y.y.y.y.y.y.",
"y.y.y.y.y.y.y.y.y.y.y.w.4.[ 6 $ # @ X i V X # % Z q.y.y.y.y.y.q.[ & # % $ 3 @ y 7.q.y.y.y.y.y.y.y.y.y.y.y.y.y.y.y.y.y.y.y.y.y.y.",
"t.y.y.y.t.y.y.y.y.y.y.y.w.w.6./ 0 $ # @ # % % # 8 0.y.y.y.y.y.y.q.E & % % # O J w.y.y.y.y.y.y.y.y.y.y.y.y.y.y.y.y.y.y.y.y.y.y.r.",
"y.y.y.y.y.y.y.y.y.y.y.w.y.y.y.w.5.] , # % % % # 2 2.y.y.y.y.y.y.y.7.y # % % & ) w.y.y.w.y.y.y.y.y.y.y.y.y.y.y.y.y.y.y.y.y.y.y.y.",
"y.y.y.y.y.y.y.y.w.r.r.y.y.y.y.y.y.w. .- # $ % % * 3.y.y.y.y.y.y.y.y. .& % % & $.y.y.;.E :.y.y.y.y.t.y.y.y.y.y.y.y.y.y.y.y.y.y.y.",
"y.y.y.y.y.y.y.y.w.w.y.y.y.y.y.y.y.y.w.' X % % % $ %.y.y.y.y.y.y.y.y.8.0 # # < 2.y.9.r @ m y.y.y.y.y.y.y.y.y.y.y.y.y.y.y.y.y.y.y.",
"y.y.y.y.y.y.y.q.q.y.y.y.y.y.y.r.y.y.y.w.W & % % $ #.w.y.y.y.y.y.y.q.w.[ + # : 2.y.-.& @ Z w.q.o. .7.y.y.y.y.y.y.y.q.y.y.y.y.y.y.",
"y.y.y.y.y.y.w.o.f :.w.w.w.w.r.w.y.y.y.y.5.y # % $ #.y.y.y.y.y.q.q.y.w.;.= O 2 2.w.P @ & / w./ & & H 9.w.y.y.y.w.;.X.7.y.y.y.y.y.",
"y.y.y.y.y.y.w.f # N q.w.w.w.w.r.y.y.y.y.y./ & # $ $.y.y.y.y.5.J a :.w.7.9 O : 2.7.6 O 1 4.9.e @ @   o.w.y.y.y.' o $ M 9.y.y.y.y.",
"y.y.y.y.w.r.q.f O t 6.y.0.5.q.w.y.y.y.y.y.6.< # % %.y.y.y.w.^ $ @ W y.q.n O X :.o.& @ m q.8.q # % @ B w.y.y.1.6 # # & 3.y.y.y.y.",
"y.5...,.w.r.q.e O ; e.w.A > / w.y.y.y.y.y.w.m O * &.y.y.y.y.G @ @ J w.w.D @ % _ H @ $ / w.q.B @ % @ , <.y.w.I + % % & 3.y.y.y.y.",
"4.0   < +.w.q.b O X 1.9.e # 9 6.y.y.y.y.y.y.Q % , <.y.y.y.y.F O $ Q w.w.L @ $ b 6 @ 1 4.y.y.X.& # % & ` w.<.2 # % # 2 6.y.y.y.y.",
"&.X O % < ,.q.b @   *.w.J % . <.y.y.y.y.y.y._ $ 2 2.y.y.y.y.F O & $.y.w.P @ # & $ # M q.y.y.9.r % % # m q.] @ % % @ P w.y.y.y.y.",
"0.U & @ % M q.f %   @.w.( $ . 1.y.y.y.y.y.y.#.$ 8 9.y.y.y.y.S O < 5.y.w.G @ % % # &  .y.y.y.w.X.& # % w >.2 % % % , 1.y.y.y.y.y.",
"w.q. .4 O    .h @ @ T w.( $ 2 <.y.y.y.y.y.y.' % n w.y.y.y.q.v O i q.y.w.G @ % % # 4 6.y.y.y.w.q.n @ # 5 Z % % % % K w.y.y.y.y.y.",
"y.y.w.1.w % 9 d % @ P w.H @ y q.y.y.y.y.q.w.W + A w.y.y.y.7.6 @ ] w.y.q.m @ % % # Z w.y.y.y.y.y.o.X @ &   % % % 4 1.y.y.y.y.y.y.",
"y.y.y.y.<.w $ & % # l 2.6 O I w.y.y.y.y.y.q.m + +.y.y.y.y.X.& X ;.y.y.8.c # % % & X.w.y.y.y.y.y.q.n @ @ % % % $ ! w.y.y.y.y.y.y.",
"y.y.y.y.y.<.t % % @ e A + & o.w.y.y.y.y.y.1.< & =.y.y.y.q.b O r 7.y.y.e.6 % % % 7 6.y.y.y.y.y.y.w.} @ # % % % r 7.y.y.y.y.y.y.y.",
"y.y.y.y.y.y.X.X % % & & # 9 7.y.y.y.y.y.w.| # < e.y.y.w.X.& & | w.y.y.1.- # % + H w.y.y.y.y.y.y.w.+.& % % % X -.y.y.y.y.y.y.y.y.",
"y.y.y.y.y.y.q.H $ % % % % I w.y.y.y.y.y.9.r O x 8.y.w.;.6 @ u 7.y.y.y...& % % X o.y.y.y.y.y.y.y.w.{ $ # $ $ P w.y.y.y.y.y.y.y.y.",
"y.y.y.y.y.y.y.1.< # % % & o.w.y.y.y.y.y.;.X # w 8.w.=.6 # o o.w.y.y.y.} % % @ y 9.y.y.y.y.y.y.w.7.w # $ % r 6.w.y.y.y.y.y.y.y.y.",
"y.y.y.y.y.y.w.q.H @ % % 4 5.y.y.y.y.y.w.W % % & P W 2 O & { q.y.y.y.q.Z # % + ] w.q.y.y.y.y.w.q.[ $ # # o -.w.w.y.y.y.y.y.y.y.y.",
"y.y.y.y.y.w.w.w.o.X % # n q.y.y.y.y.q.q.m # % # + + # - { q.y.y.y.y.9.y + # X :.y.y.y.y.y.y.w.^ X % #   ! 9.8.q.y.y.y.y.y.y.y.y.",
"y.y.y.y.y.y.y.y.5.7 # @ l q.y.y.y.y.y.8.x # % % % # o +.w.w.w.y.y.y.1.o # + n 9.y.y.y.y.y.t.Y = % % % b ~ n w M ;.q.y.y.y.y.y.y.",
"y.y.y.y.y.y.y.y.q.N @ @ l q.y.y.y.y.y.9.n O % % # & +.w.y.w.y.y.y.w./ $ # & | y.y.y.y.y.7.J & O % % > 3 & O @ # 6 4.y.y.y.y.y.y.",
"y.y.y.y.y.y.y.y.y.} % % r q.y.y.y.y.y.w.J + % % # A q.y.y.y.y.y.y.q.n @ O , 6.y.y.y.y.5.C & % % % % & # # # # # & &.w.y.y.y.y.y.",
"y.y.y.y.y.y.y.y.y.=.X # o 1.y.y.y.y.y.y. .& % % , ,.y.y.y.y.y.y.y.1.o @ @ B q.y.y.y.5.N + % % % % % @ @ @ + O & B 7.w.w.y.y.y.y.",
"y.y.y.y.y.y.y.y.w.4.4 % # N 9.w.y.y.y.y.6.6 @ @ 8 0.y.y.y.y.y.y.q.H + % &  .y.y.y.e.n % # % % @ & , 8 i k l Y X.7.y.y.y.y.y.y.y.",
"y.y.y.y.y.q.y.y.w.q.n # % % L q.y.y.y.y.w.P + @ 8 0.y.y.y.y.y.y.:.1 # # 6 5.y.y.;.8 % % # + & a / ,.7.q.q.q.w.y.y.y.y.y.y.y.y.y.",
"y.y.y.y.y.y.y.y.y.y. .& % % $ M 1.q.w.y.y.1.2 # X -.w.y.y.y.y.7.n % % @ H y.y.=.6 # % % & n X.q.y.y.y.y.y.y.r.y.y.y.y.y.y.y.y.y.",
"y.y.y.y.y.y.y.y.y.q.7.v # % % # o M / ,.e.8.Q & @ y o.7.q.9.;.M $ # % X ;.y.=.2 @ % % , ^ 9.y.y.y.y.y.y.y.y.y.y.y.y.y.w.r.y.y.y.",
"y.y.y.y.y.y.y.y.y.y.y.;.5 # # % % @ & - 4 x x & % @ * w V v , % % $ @ y 7.@.< % # # 2 =.q.y.y.y.y.y.y.y.y.y.y.y.y.y.y.y.y.y.y.y.",
"y.y.y.r.y.y.y.y.y.y.y.y.;.i X $ % O O O O # O @ % % % @ % % # % % # @ E | - # % # 2 =.w.y.y.y.y.y.y.y.y.y.y.y.y.y.y.y.q.y.y.y.y.",
"y.y.y.y.y.y.y.y.y.y.y.y.y.q.o.[ h r R 8 2 > = + % % % % % % % $ % % > g & # % % X  .y.y.y.y.y.y.y.y.y.y.y.y.y.y.y.y.y.r.y.y.y.y.",
"y.y.y.y.y.y.y.r.y.y.y.y.y.y.y.y.w.t.r.0.6.2.$.W t $ % % % % % % % % & & % % # # H q.y.y.y.y.y.y.y.y.y.y.y.y.y.y.y.y.y.y.y.y.y.y.",
"y.y.y.y.y.y.y.y.y.y.y.y.y.y.y.y.y.y.y.y.y.y.y.y.6.J $ % % % % % % % % % % % % 2 1.y.y.y.y.y.y.y.y.y.y.y.y.y.y.y.y.y.y.r.y.y.y.y.",
"y.y.y.y.y.y.y.y.y.y.y.y.y.y.y.y.y.y.y.y.y.y.y.y.y.0.B O % % % % % % % % % $ & / w.q.y.y.y.y.y.r.y.y.y.y.y.y.y.y.y.y.y.y.y.y.y.y.",
"y.y.y.y.y.y.y.y.y.y.y.y.q.y.y.y.y.y.y.y.y.y.y.y.y.y.1.1 % % % % % % $ $ # # y 9.y.y.y.y.y.y.y.y.y.y.y.y.y.y.y.y.y.y.y.y.y.y.y.y.",
"y.y.y.y.y.y.y.y.y.y.y.y.y.y.y.y.y.y.y.y.y.y.y.y.y.y.q.M + % % % % % $ % # & / y.y.y.y.y.y.y.y.y.y.y.y.y.y.y.y.y.y.y.y.y.y.y.y.y.",
"q.y.y.y.y.y.y.y.y.y.y.y.y.y.y.y.y.y.y.y.y.y.y.y.y.y.y.Y % % % % % % % % # v 9.y.y.y.y.y.y.y.y.y.y.y.y.y.y.y.y.y.y.y.y.y.y.y.y.y.",
"y.y.y.y.y.y.y.y.y.y.y.y.y.y.y.y.y.y.y.y.y.y.y.y.y.y.y.O.% % % % % % % % , ;.y.y.y.y.y.y.y.y.y.y.y.y.y.y.y.y.y.y.y.y.y.y.y.y.y.y.",
"y.y.y.y.y.y.y.y.y.y.y.y.y.y.y.y.y.y.y.y.y.y.y.y.y.y.y.+.& % % % % % % $ ] y.y.y.y.y.y.y.y.y.y.y.y.t.y.y.y.y.t.y.y.y.y.y.y.t.y.y.",
"y.y.y.y.y.y.y.y.y.y.y.y.y.y.y.y.y.y.y.y.y.y.t.y.y.y.y.O.+ % % % % % $ Z 7.y.y.y.y.r.y.y.y.y.y.y.y.y.y.y.y.y.y.y.y.y.y.y.y.y.y.y.",
"y.y.y.y.y.y.y.y.y.y.y.y.y.y.r.y.y.y.y.y.y.y.y.y.y.y.y.} O # % O +   J 5.y.y.y.y.y.y.y.y.y.y.y.y.y.y.y.y.y.y.y.y.y.y.y.y.y.y.y.y.",
"y.y.r.y.y.y.y.r.y.y.y.y.y.y.y.y.y.y.y.y.y.y.y.y.y.y.w.Q . &   1 m X.w.y.y.y.y.y.y.y.y.y.y.t.y.y.y.y.y.y.y.y.y.y.y.t.y.y.y.y.y.y.",
"y.y.y.y.y.y.y.y.y.y.y.y.y.y.y.y.y.y.y.y.y.y.y.y.y.y.y.9.<.....1.q.y.y.y.y.y.y.y.y.y.y.y.q.y.y.y.y.y.y.y.y.y.y.y.y.y.y.y.y.y.y.y.",
"y.y.y.y.y.y.y.y.y.y.y.y.y.y.y.y.y.y.y.y.y.y.y.y.y.y.y.y.y.y.w.y.y.y.y.y.y.y.y.y.y.y.y.y.y.y.y.y.y.y.y.y.y.y.y.y.y.y.y.y.y.y.y.y."
};
