/* XPM */
static char *result[] = {
/* columns rows colors chars-per-pixel */
"64 64 158 2 ",
"   c #494A56",
".  c #434653",
"X  c #53525A",
"o  c #6A6464",
"O  c #776E6A",
"+  c #FF3D01",
"@  c #FF450B",
"#  c #FF4513",
"$  c #FF4A13",
"%  c #FF4E19",
"&  c #FF5715",
"*  c #FF5816",
"=  c #FE511C",
"-  c #FF6604",
";  c #FF6B0E",
":  c #FF7207",
">  c #FF7D01",
",  c #FF730B",
"<  c #FF7A09",
"1  c #FF6311",
"2  c #FC5420",
"3  c #F75E2B",
"4  c #F6602F",
"5  c #F66232",
"6  c #F06A3D",
"7  c #F57628",
"8  c #EF6D41",
"9  c #FF6C40",
"0  c #FF7147",
"q  c #FF744B",
"w  c #FF7F4D",
"e  c #E97951",
"r  c #FF7654",
"t  c #FF7A53",
"y  c #FC7C5B",
"u  c #FF8600",
"i  c #FF8902",
"p  c #FF8B0A",
"a  c #FF9217",
"s  c #FF961F",
"d  c #F4941E",
"f  c #FFA213",
"g  c #FFA51D",
"h  c #FFAA1D",
"j  c #EF9A2A",
"k  c #FF9A25",
"l  c #FF9B2D",
"z  c #FF843B",
"x  c #FF8F3B",
"c  c #ED9C30",
"v  c #FF9434",
"b  c #FE9538",
"n  c #FFA720",
"m  c #FFA821",
"M  c #FFAC2D",
"N  c #EBA335",
"B  c #FFAD30",
"V  c #FFB03A",
"C  c #948477",
"Z  c #FF8843",
"A  c #FF804E",
"S  c #FB805B",
"D  c #FB8653",
"F  c #E3A849",
"G  c #FFAA46",
"H  c #FEAB49",
"J  c #ECB74A",
"K  c #FFB545",
"L  c #F0B342",
"P  c #E7BE54",
"I  c #E9B952",
"U  c #FFBA53",
"Y  c #FFB65D",
"T  c #DC8D6D",
"R  c #D99374",
"E  c #D79678",
"W  c #E18461",
"Q  c #F68662",
"!  c #F28C6B",
"~  c #EC9375",
"^  c #E79A7D",
"/  c #E8987B",
"(  c #D6B76C",
")  c #D5A07C",
"_  c #D3BC77",
"`  c #FFBD6A",
"'  c #DEC36C",
"]  c #FFC174",
"[  c #F7C57E",
"{  c #FFC47A",
"}  c #E69B80",
"|  c #C5AB8C",
" . c #D1A388",
".. c #DDA78E",
"X. c #CBB08F",
"o. c #DAAB95",
"O. c #D8AE98",
"+. c #D4B39F",
"@. c #DFBF98",
"#. c #CFB9A7",
"$. c #C1BCAC",
"%. c #CDBCAC",
"&. c #D0BBA3",
"*. c #BCC7B9",
"=. c #BCD5B5",
"-. c #D3CB86",
";. c #D0D08F",
":. c #CDD294",
">. c #EBCC8F",
",. c #FECA81",
"<. c #FFD08F",
"1. c #E6CF97",
"2. c #EBC99E",
"3. c #E5C49A",
"4. c #E4D19A",
"5. c #FFD59E",
"6. c #D6D9AD",
"7. c #DCD5A4",
"8. c #C7C1B8",
"9. c #C2CBBF",
"0. c #C3D0B5",
"q. c #FED6A3",
"w. c #FFD8A6",
"e. c #FFDBAA",
"r. c #F5DAAC",
"t. c #E9DFB8",
"y. c #FFE1AC",
"u. c #E1E1BE",
"i. c #B8CEC2",
"p. c #B7D0C5",
"a. c #BDD2C7",
"s. c #BCD3CA",
"d. c #B5D0CB",
"f. c #AFDDD7",
"g. c #ADDFDD",
"h. c #B3DBD4",
"j. c #B3DFD9",
"k. c #B7E4C6",
"l. c #B2E2CC",
"z. c #ADE2DE",
"x. c #B5EBDB",
"c. c #BFEDDC",
"v. c #97FFFF",
"b. c #9CFCFF",
"n. c #ABE9E6",
"m. c #A9ECEB",
"M. c #A7F1EA",
"N. c #A9F3EE",
"B. c #B5F0E6",
"V. c #B1F1E8",
"C. c #A3F4F5",
"Z. c #A8F5F3",
"A. c #A1F7F9",
"S. c #A0F8FB",
"D. c #C1CDC1",
"F. c #C2E6CD",
"G. c #D3E7CC",
"H. c #DAE3C4",
/* pixels */
"S.S.S.S.S.S.S.S.S.S.S.S.S.S.S.S.S.S.S.S.S.S.S.S.S.S.S.S.S.S.S.S.S.S.S.S.S.A.A.S.S.S.S.S.S.S.S.S.S.S.S.S.S.S.S.S.S.S.S.S.S.S.S.S.",
"S.S.S.S.S.S.S.S.S.S.S.S.S.S.S.S.S.S.S.S.S.S.S.S.S.S.S.S.S.S.S.S.S.S.S.S.S.b.S.S.S.S.S.S.S.S.S.S.S.S.S.S.S.S.S.S.S.S.S.S.S.S.S.S.",
"S.S.S.S.S.S.S.S.S.S.S.S.S.S.S.S.S.S.S.S.S.S.S.S.S.S.S.S.S.S.S.S.S.S.S.S.S.S.S.S.S.S.S.S.S.S.S.S.S.S.S.S.S.S.S.S.S.S.S.S.S.S.S.S.",
"S.S.S.S.S.S.S.S.S.S.S.S.S.S.S.S.S.S.S.S.S.S.S.S.S.S.S.S.S.S.S.S.S.S.S.S.S.S.S.S.S.S.S.S.S.S.S.S.S.S.S.S.S.S.S.S.S.S.S.S.S.S.S.S.",
"S.S.S.S.S.S.S.S.S.S.S.S.S.S.S.S.S.S.S.S.S.S.S.S.S.S.S.S.S.S.S.S.S.S.S.S.S.S.S.S.S.S.S.S.S.S.S.S.S.S.S.S.b.S.S.S.S.S.S.S.S.S.S.S.",
"S.S.S.S.S.S.S.S.S.S.S.S.S.S.S.S.S.S.S.S.S.S.S.S.S.S.S.S.S.S.S.S.S.S.S.S.S.S.S.S.S.S.S.S.S.S.S.S.S.S.S.S.S.S.S.S.S.S.S.S.S.S.S.S.",
"S.S.S.S.S.S.S.S.S.S.S.S.S.S.S.S.S.S.S.S.S.S.S.S.S.S.S.S.S.S.S.S.S.S.S.S.S.S.S.S.S.S.S.S.S.S.S.S.S.S.S.S.S.S.S.S.S.S.S.S.S.S.S.S.",
"S.S.S.S.S.S.S.S.S.S.S.S.S.S.S.S.S.S.S.S.S.S.S.S.S.S.S.S.S.S.S.S.S.S.S.S.S.S.S.S.S.S.S.S.S.S.S.S.S.S.S.S.S.S.S.S.S.S.S.S.S.S.S.S.",
"S.S.S.S.S.S.S.S.S.b.S.S.S.S.S.S.S.S.S.S.S.S.S.S.S.S.S.S.S.S.S.S.S.S.S.S.S.S.S.S.S.S.S.S.S.S.S.S.S.S.S.S.S.S.S.S.S.S.S.S.S.S.S.S.",
"S.S.S.S.S.S.S.S.A.A.S.S.S.S.S.S.S.S.S.S.S.S.S.S.S.S.S.S.S.S.S.S.S.S.S.S.S.S.S.S.S.S.S.S.S.S.S.S.S.S.S.S.S.S.S.S.S.S.S.S.S.S.S.S.",
"S.S.S.S.S.S.S.S.S.S.S.S.S.S.S.S.S.S.S.S.S.S.S.S.S.S.S.S.S.S.S.S.S.S.S.S.S.S.S.S.S.S.S.S.S.S.S.S.S.S.S.S.S.S.S.S.S.S.S.S.S.S.S.S.",
"S.S.S.S.S.S.S.S.S.S.S.S.S.S.S.S.S.S.S.S.S.S.S.S.S.S.S.S.S.S.S.S.S.S.S.S.S.S.S.S.S.S.S.S.S.S.S.S.S.S.S.S.S.S.S.S.S.S.S.S.S.S.S.S.",
"S.S.S.S.S.S.S.S.S.S.S.S.S.S.S.S.S.S.S.S.S.S.S.S.S.S.S.S.S.S.S.S.S.S.S.S.S.S.S.S.S.S.S.S.S.S.S.S.S.S.S.S.S.S.S.S.S.S.S.S.S.S.S.S.",
"S.S.S.S.S.S.S.S.S.S.S.S.S.S.S.S.S.S.S.S.S.S.S.S.S.S.S.S.A.A.A.A.A.A.S.S.S.S.S.S.S.S.S.S.S.S.S.S.S.S.S.S.S.S.S.S.S.S.S.S.S.S.S.S.",
"S.S.S.S.S.S.S.S.S.S.S.S.S.S.S.S.S.S.S.S.S.S.S.S.S.S.A.A.S.b.b.b.b.b.b.b.S.S.S.S.S.S.S.S.S.S.S.S.S.S.S.S.S.S.S.S.S.S.S.S.S.S.S.S.",
"S.S.S.S.S.S.S.S.S.S.S.S.S.S.S.S.S.S.S.S.S.S.S.S.S.A.b.b.b.m.j.s.D.9.i.s.C.S.S.S.S.S.S.S.S.S.S.S.S.S.S.S.S.S.S.S.S.S.S.S.S.S.S.S.",
"S.S.S.S.S.S.S.S.S.S.S.S.S.S.S.S.S.S.S.S.S.S.S.A.b.b.n.8./ S t 0 q q q t N.S.A.S.S.S.S.S.S.S.S.S.S.S.S.S.S.S.S.S.S.S.S.S.S.S.S.S.",
"S.S.S.S.S.S.S.S.S.S.S.S.S.S.S.S.S.S.S.S.S.S.A.b.m.O.y 0 q w t t t t t S m.S.A.S.S.S.S.S.S.S.S.S.S.S.S.S.S.S.S.S.S.S.S.S.S.S.S.S.",
"S.S.S.S.S.S.S.S.S.S.S.S.S.S.S.S.S.S.S.S.S.S.b.a.S 0 t t t t t t t t t y m.b.S.S.S.S.S.S.S.S.S.S.S.S.S.S.S.S.S.S.S.S.S.S.S.S.S.S.",
"S.S.S.S.S.S.S.S.S.S.S.S.S.S.S.S.S.S.S.A.A.b.$.r r y r r t y t t t t t S m.S.S.S.S.S.S.S.S.S.S.S.S.S.S.S.S.S.S.S.S.S.S.S.S.S.S.S.",
"S.S.S.S.S.S.S.S.S.S.S.S.A.b.A.A.A.A.b.b.b.0.z x b v v b x Z w t y t t y m.S.S.S.S.S.S.S.S.S.S.S.S.S.S.S.S.S.S.S.A.b.S.S.S.S.S.S.",
"S.S.S.S.S.S.S.S.S.S.S.S.A.A.A.b.b.b.N.;.J m h h h g h h h m n l x A t y m.S.S.S.S.S.S.S.S.S.S.S.S.S.S.S.S.S.S.S.A.S.S.S.S.S.S.S.",
"S.S.S.S.S.S.S.S.S.S.A.A.S.A.b.b.B.t.e.V a m m m n n n n m m g g h m v D C.b.C.S.S.S.S.S.S.S.S.A.A.S.S.S.S.S.S.S.S.S.S.S.S.S.S.S.",
"S.S.S.S.S.S.S.S.S.S.S.b.A.b.Z.H.q.q.y.{ h m m m n n n m m m n n m h h g -.A.b.A.S.S.S.S.S.A.S.S.b.b.S.A.A.S.A.A.A.S.S.S.S.S.S.S.",
"S.S.S.S.S.S.S.S.S.S.A.S.b.c.r.5.q.e.w.q.B h m g m g m m g m n n m n n n a V l.v.S.S.S.S.C.b.b.z.&.} ~ ~ ~ ~ ~ ~ ! %.b.b.A.S.S.S.",
"S.S.S.S.S.S.S.S.S.A.S.b.G.q.w.y.e.q.q.e.U f m m m m g m m n m n n n m g m h h :.b.S.A.S.b.Z...t 0 q q q q q q t 6 o.b.S.b.C.S.S.",
"S.S.S.S.S.S.S.A.A.b.A.t.q.e.2.X.q.e.q.e.] g m m m m m m m n m m n g m n m m g f ' b.S.b.n.! 0 t t t t y t t t S 0 O.b.C.S.S.S.S.",
"S.S.S.S.S.S.S.A.b.A.t.q.e.2.o   C e.w.e.<.m m g g m g m g m n g n m n m m m m m a I m.b.~ 0 y t t t t t t t t t 0 o.b.S.S.S.S.S.",
"S.S.S.S.S.S.C.b.A.t.q.w.e.@.X . O e.w.e.5.M g m m m m m n n n n g m g m g m g m n a P :.q t t t t t t t t t t t 0 #.b.A.S.S.S.S.",
"S.S.S.S.S.S.b.b.t.5.w.w.q.e.| C 3.e.q.w.w.V g m m g g m m g n n m m m m m m m m m n h k t t t t t t t t t t t t q h.b.A.S.S.S.S.",
"S.S.S.S.S.A.b.G.q.r.w.w.w.w.e.y.e.w.w.q.e.K g m m m m m m m m m m g m m m m g m m m m h l t t t t t t t t t t 0 ^ b.S.S.S.S.S.S.",
"S.S.S.S.S.b.c.5.q.q.q.q.q.q.q.q.q.q.q.q.e.H f m g g g g g g g g g g g g g g g g g g m g h l t q t t q r t t q Q n.b.A.S.S.S.S.S.",
"S.S.S.S.A.b.F.` { { { { { ] ] { ] ] { { { k u i i u i i i u i i i i u i i i i i i u i i i < = = = = = 2 = = = 5 z.b.C.A.S.S.S.S.",
"S.S.S.S.b.S.b.6.` { ` ] ] ] ] { ] ] ] ` ] k > u u u u u u u u u u u u u u u u u u u u i < % % % % % % % = $ = @ e b.b.A.S.S.S.S.",
"S.S.S.S.A.A.S.S.4.` { ` ] ` ] ` ] ] ] ] ] a u u u u u u u u u i u u u u u u u u u i u > = % = % % % = % = % = = $ i.b.C.S.S.S.S.",
"S.S.S.S.S.S.A.b.b.>.` { ] ] ] { ] ] ] ] ` p u u u u u u u u u u u u u u u u u u i > N E @ = % % = = = $ % % % = @  .b.b.S.S.S.S.",
"S.S.S.S.S.S.S.A.b.m.>.` { ` { ` ] ` ] { Y u u u u u u u u u u u u u u u u u u i u j M.b.8 @ = = $ = = % $ = % = @ R v.C.S.S.S.S.",
"S.S.S.S.S.S.S.S.b.b.C.1.` ] ] ] ] ] ` { G u u u u u u u i u u u u u u u u i u > F Z.b.b.z.5 @ = = = = = = = = 2 @ R b.A.S.S.S.S.",
"S.S.S.S.S.S.S.S.A.A.b.b.6.` ] ] { ` { { k u i u u u u u u u u u u u u u i u u _ b.S.A.S.b.n.W $ @ @ $ $ $ $ $ $ + T v.C.S.S.S.S.",
"S.S.S.S.S.S.S.S.A.A.A.A.b.F.[ ` { ] ] ` p u u u u u i u u u u u u u u u > d =.b.S.A.S.S.S.b.b.p.E e 8 6 6 6 6 6 4  .b.C.S.S.S.S.",
"S.S.S.S.S.S.S.S.S.S.S.A.A.b.m.7.` ` ,.H u i u u u u u u u u u u u u i i ( M.b.C.b.A.A.S.S.A.A.b.b.b.C.C.C.C.C.C.C.b.S.S.S.S.S.S.",
"S.S.S.S.S.S.S.S.S.S.S.S.b.A.b.b.x.4.` i > u u u u u u u u u u i i u , =.b.S.b.S.C.b.S.S.S.S.S.A.A.S.S.b.b.S.S.b.b.C.S.S.S.S.S.S.",
"S.S.S.S.S.S.S.S.S.S.S.S.A.S.A.A.b.b.x._ j i u u i i i i i i u > ; & % g.b.A.S.S.S.S.S.S.S.S.S.S.A.b.A.A.A.A.S.S.C.A.b.A.S.S.S.S.",
"S.S.S.S.S.S.S.S.S.S.S.S.A.S.S.S.S.S.b.b.S.l.7 - ; < < ; ; 1 * % % % = f.b.A.S.S.S.S.S.S.S.S.S.S.A.A.S.S.S.S.S.S.b.A.A.A.S.S.S.S.",
"S.S.S.S.S.S.S.S.S.S.S.S.S.S.S.S.S.S.A.A.S.b.d.% @ % % % % % % = % % = f.b.b.S.S.S.S.S.S.S.S.S.S.S.S.S.S.S.S.S.S.S.S.S.S.S.S.S.S.",
"S.S.S.S.S.S.S.S.S.S.S.S.S.S.S.S.S.S.A.S.S.A.b.p.3 @ % = % = = $ % % = f.b.b.S.S.S.S.S.S.S.S.S.S.S.S.S.S.S.S.S.S.S.S.S.S.S.S.S.S.",
"S.S.S.S.S.S.S.S.S.S.S.S.S.S.S.S.S.S.b.A.A.b.b.b.n.T % @ # $ = = = = = f.b.A.b.A.S.S.S.S.S.S.S.S.S.S.S.S.S.S.S.S.S.S.S.S.S.S.S.S.",
"S.S.S.S.S.S.S.S.S.S.S.S.S.S.S.S.S.S.A.A.A.A.b.C.b.b.h.E 8 2 $ # @ @ $ f.b.C.A.A.S.S.S.S.S.S.S.S.S.S.S.S.S.S.S.S.S.S.S.S.S.S.S.S.",
"S.S.S.S.S.S.S.S.S.S.S.S.S.S.S.S.S.S.S.S.S.S.b.A.A.A.b.b.A.h.*.$.$.$.8.C.b.S.S.S.S.S.S.S.S.S.S.S.S.S.S.S.S.S.S.S.S.S.S.S.S.S.S.S.",
"S.S.S.S.S.S.S.S.b.S.S.S.S.S.S.S.S.S.S.S.S.S.S.S.A.S.A.A.S.b.b.v.b.v.v.S.A.S.S.S.S.S.S.S.S.S.S.S.S.S.S.S.S.S.S.S.S.S.S.S.S.S.S.S.",
"S.S.S.S.S.S.S.S.A.S.S.S.S.S.S.S.S.S.S.S.S.S.S.S.S.S.b.A.A.A.A.A.C.b.A.A.S.S.S.S.S.S.S.S.S.S.S.S.S.S.S.S.S.S.S.S.S.S.S.S.S.S.S.S.",
"S.S.S.S.S.S.S.S.S.S.S.S.S.S.S.S.S.S.S.S.S.S.S.S.S.S.A.A.A.b.A.S.A.A.S.S.S.S.S.S.S.S.S.S.S.S.S.S.S.S.S.S.S.S.S.S.S.S.S.S.S.S.S.S.",
"S.S.S.S.S.S.S.S.S.S.S.S.S.S.S.S.S.S.S.S.S.S.S.S.S.S.S.S.S.S.S.S.b.A.A.b.S.S.S.S.S.S.S.S.S.S.S.S.S.S.S.S.S.S.S.S.S.S.S.S.S.S.S.S.",
"S.S.S.S.S.S.S.S.S.S.S.S.S.S.S.S.S.S.S.S.S.S.S.S.S.S.S.S.S.S.S.S.A.A.S.A.S.S.S.S.S.S.S.S.S.S.S.S.S.S.S.S.S.S.S.S.S.S.S.S.S.S.S.S.",
"S.S.S.S.S.S.S.S.S.S.S.S.S.S.S.S.S.S.S.S.S.S.S.S.S.S.S.S.S.S.S.S.S.S.S.S.S.S.S.S.S.S.S.S.S.S.S.S.S.S.S.S.S.S.S.S.S.S.S.S.S.S.S.S.",
"S.S.S.S.S.S.S.S.S.S.S.S.S.S.S.S.S.S.S.S.S.S.S.S.S.S.S.S.S.S.S.S.S.S.S.S.S.S.S.S.S.S.S.S.S.S.S.S.S.S.S.S.S.S.S.S.S.S.S.S.S.S.S.S.",
"S.S.S.S.S.S.S.S.S.S.S.S.S.S.S.S.S.S.S.S.S.S.S.S.S.S.S.S.S.S.S.S.S.S.S.S.S.S.S.S.S.S.S.S.S.S.S.S.S.S.S.S.S.S.S.S.S.S.S.S.S.S.S.S.",
"S.S.S.S.S.S.S.S.S.S.S.S.S.S.S.S.S.S.S.S.S.S.S.S.S.S.S.S.S.S.S.S.S.S.S.S.S.S.S.S.S.S.S.S.S.S.S.S.S.S.S.S.S.S.S.S.S.S.S.S.S.S.S.S.",
"S.S.S.S.S.S.S.S.S.S.S.S.S.S.S.S.S.S.S.S.S.S.S.S.S.S.S.S.S.S.S.S.S.S.S.S.S.S.S.S.S.S.S.S.S.S.S.S.S.S.S.S.S.S.S.S.S.S.S.S.S.S.S.S.",
"S.S.S.S.S.S.S.S.S.S.S.S.S.S.S.S.S.S.S.S.S.S.S.S.S.S.S.S.S.S.S.S.S.S.S.S.S.S.S.S.S.S.S.S.S.S.S.S.S.S.S.S.S.S.S.S.S.S.S.S.S.S.S.S.",
"S.S.S.S.S.S.S.S.S.S.S.S.S.S.S.S.S.S.S.S.S.S.S.S.S.S.S.S.S.S.S.S.S.S.S.S.S.S.S.S.S.S.S.S.S.S.S.S.S.S.S.S.S.S.S.S.S.S.S.S.S.S.S.S.",
"S.S.S.S.S.S.S.S.S.S.S.S.S.S.S.S.S.S.S.S.S.S.S.S.S.S.S.S.S.S.S.S.S.S.S.S.S.S.S.S.S.S.S.S.S.S.S.S.S.S.S.S.S.S.S.S.S.S.S.S.S.S.S.S.",
"S.S.S.S.S.S.S.S.S.S.S.S.S.S.S.S.S.S.S.S.S.S.S.S.S.S.S.S.S.S.S.S.S.S.S.S.S.S.S.S.S.S.S.S.S.S.S.S.S.S.S.S.S.S.b.S.S.S.S.S.S.S.S.S.",
"S.S.S.S.S.S.S.S.S.S.S.S.S.S.S.S.S.S.S.S.S.S.S.S.S.S.S.S.S.S.S.S.S.S.S.S.S.S.S.S.S.S.S.S.S.S.S.S.S.S.S.S.S.S.A.S.S.S.S.S.S.S.S.S."
};
