/* XPM */
static char *result[] = {
/* columns rows colors chars-per-pixel */
"64 64 207 2 ",
"   c #020201",
".  c #0E0B08",
"X  c #160D0C",
"o  c #1A1517",
"O  c #251C1D",
"+  c #271D25",
"@  c #371B28",
"#  c #3C1F33",
"$  c #2A2528",
"%  c #352C29",
"&  c #3E382C",
"*  c #362934",
"=  c #3B343A",
"-  c #492937",
";  c #43293D",
":  c #443436",
">  c #4D4638",
",  c #6F413F",
"<  c #3F364A",
"1  c #442D42",
"2  c #483548",
"3  c #533D4E",
"4  c #543F51",
"5  c #453E62",
"6  c #47424A",
"7  c #564846",
"8  c #5E534E",
"9  c #4E4B55",
"0  c #554353",
"q  c #5A4A5B",
"w  c #595353",
"e  c #6C4A4C",
"r  c #694E59",
"t  c #675A57",
"y  c #735055",
"u  c #696259",
"i  c #766C5D",
"p  c #54526E",
"a  c #635364",
"s  c #675B65",
"d  c #6C6A69",
"f  c #766A67",
"g  c #7C7366",
"h  c #6E6879",
"j  c #736673",
"k  c #7C7578",
"l  c #86493F",
"z  c #884B42",
"x  c #8C564B",
"c  c #875D56",
"v  c #956A5D",
"b  c #847B5B",
"n  c #987165",
"m  c #8E7170",
"M  c #867378",
"N  c #867C7A",
"B  c #A17B79",
"V  c #888174",
"C  c #9A9376",
"Z  c #A6847B",
"A  c #B2A87F",
"S  c #4D5483",
"D  c #4E5C91",
"F  c #576290",
"G  c #54649B",
"H  c #757884",
"J  c #6F7393",
"K  c #6B769C",
"L  c #4F65A2",
"P  c #5166A3",
"I  c #546AA5",
"U  c #596DA5",
"Y  c #596FA8",
"T  c #5F72A5",
"R  c #5D73AB",
"E  c #5E78AD",
"W  c #6375A3",
"Q  c #6779A4",
"!  c #6176AC",
"~  c #627AAF",
"^  c #6B7CA8",
"/  c #637CB1",
"(  c #6A7EB2",
")  c #887A84",
"_  c #987B88",
"`  c #8B7E93",
"'  c #A17F86",
"]  c #7A849C",
"[  c #6F81AD",
"{  c #7886A9",
"}  c #6684B4",
"|  c #6A82B5",
" . c #6989B7",
".. c #6E86B9",
"X. c #6B8CBA",
"o. c #7488B5",
"O. c #7E8BB4",
"+. c #768EBE",
"@. c #7A8DBB",
"#. c #6E93BE",
"$. c #7192BD",
"%. c #6D99C1",
"&. c #7397C0",
"*. c #7B95C2",
"=. c #769BC3",
"-. c #7B9BC5",
";. c #76A3C8",
":. c #7BA5C9",
">. c #7DADCE",
",. c #7FB1D1",
"<. c #8A8585",
"1. c #98868B",
"2. c #92928F",
"3. c #89869E",
"4. c #948799",
"5. c #8B929A",
"6. c #9A9796",
"7. c #9A9D9B",
"8. c #A4868A",
"9. c #AA8B8B",
"0. c #A3928B",
"q. c #B1958D",
"w. c #A89199",
"e. c #B49B98",
"r. c #AEA684",
"t. c #B0A780",
"y. c #BBB288",
"u. c #BAB38C",
"i. c #A6A79B",
"p. c #B7A59B",
"a. c #BAB59B",
"s. c #8489A7",
"d. c #838AAC",
"f. c #8A95AB",
"g. c #939CA9",
"h. c #8A90B2",
"j. c #A397A7",
"k. c #86A0BC",
"l. c #94A5B7",
"z. c #A4A7AA",
"x. c #B7A7A8",
"c. c #AFB1AC",
"v. c #B9B9A5",
"b. c #A2A8B8",
"n. c #B6ABB0",
"m. c #ADB3B6",
"M. c #B5B5B4",
"N. c #C2BC94",
"B. c #C6B2AA",
"V. c #C4B6B3",
"C. c #BEC2B6",
"Z. c #D2CA99",
"A. c #E2D89C",
"S. c #D0CCAA",
"D. c #DBD4A2",
"F. c #C8C2B8",
"G. c #E2DCA8",
"H. c #EAE3A8",
"J. c #ECE5AB",
"K. c #EAE7B7",
"L. c #F2EDB2",
"P. c #F6F1B7",
"I. c #F8F3B7",
"U. c #F9F4B9",
"Y. c #8299C5",
"T. c #86A4CB",
"R. c #82ADCD",
"E. c #95A7CD",
"W. c #83B4D2",
"Q. c #89B3D3",
"!. c #84BBD6",
"~. c #8BB9D5",
"^. c #86BDD8",
"/. c #8BBCD8",
"(. c #98B4D4",
"). c #ABB6D0",
"_. c #87C2DA",
"`. c #8BC4DC",
"'. c #8DC9DF",
"]. c #91C7DE",
"[. c #8DCDE1",
"{. c #93CDE3",
"}. c #8FD1E3",
"|. c #92D4E6",
" X c #97D5E6",
".X c #94DCEA",
"XX c #99DDEB",
"oX c #97E2EE",
"OX c #98E2EE",
"+X c #9AE6F1",
"@X c #9CEDF4",
"#X c #9EF1F7",
"$X c #9FF4F9",
"%X c #A0F6FA",
"&X c #A0F8FB",
"*X c #D4CECE",
"=X c #D3D5C3",
"-X c #D9DAC4",
";X c #E3DBD8",
":X c #E6E5C8",
">X c #F0EECB",
",X c #F9F6C3",
"<X c #F6F3CB",
"1X c #FCF9CD",
"2X c #F7F5D1",
"3X c #FBF9D1",
"4X c #EBE6E4",
/* pixels */
"&X&X&X&X&X&X&X&X&X&X&X&X&X&X&X&X&X&X&X&X&X&X&X&X&X&X&X&X&X&X&X&X&X&X&X&X&X&X&X&X&X&X&X&X&X&X&X&X&X&X&X&X&X&X&X&X&X$X&X&X&X&X&X&X",
"&X&X&X&X&X&X&X&X&X&X&X&X&X&X&X&X&X&X&X&X&X&X&X&X&X&X&X&X&X&X&X&X&X&X&X&X&X&X&X&X&X&X&X&X&X&X&X&X&X$X&X&X&X&X&X&X&X&X&X&X&X&X&X&X",
"&X&X&X&X&X&X&X&X&X&X&X&X&X&X&X&X&X&X&X&X&X&X&X&X&X&X&X&X&X&X&X&X&X&X&X&X&X&X&X&X&X&X&X&X&X&X&X&X&X&X&X&X&X&X&X&X&X&X&X&X&X&X&X&X",
"&X&X&X&X&X&X&X&X&X&X&X&X&X&X&X&X&X&X&X&X&X&X&X&X&X&X&X&X&X&X&X&X&X&X&X&X&X&X&X&X&X&X&X&X&X&X&X&X&X&X&X&X&X&X&X&X&X&X&X&X&X&X&X&X",
"&X&X&X&X&X&X&X&X&X&X&X&X&X&X&X&X&X&X&X&X&X&X$X$X&X$X$X$X$X$X&X&X&X&X$X$X&X&X$X&X&X&X&X&X&X&X&X&X&X&X&X&X&X&X&X&X&X&X&X&X&X&X&X&X",
"&X&X&X&X&X&X&X&X&X&X&X&X&X&X&X&X&X&X&X&X&X&X&X$X&X&X$X$X&X&X&X&X&X&X&X$X&X&X&X&X&X&X&X&X&X&X&X&X&X&X&X&X&X&X&X&X&X&X&X&X&X&X&X&X",
"&X&X&X&X&X&X&X$X&X&X&X&X&X&X&X&X&X&X$X&X&X&X#X@X#X#X$X$X&X&X&X&X&X&X$X$X$X$X&X&X&X$X&X&X&X&X&X&X&X&X&X&X&X&X&X&X&X&X&X&X&X&X&X&X",
"&X&X&X&X&X&X&X&X&X&X&X&X&X&X&X$X&X&X&X&XoX!.X.} } X.>..X$X&X&X&X&X&X$XoX[._.,.'.oX$X&X&X&X&X&X&X&X&X&X&X&X&X&X&X&X&X&X&X&X&X&X&X",
"&X&X&X&X&X&X&X&X&X&X&X&X&X&X&X&X&X&X#X!./ ^ g.m.m.z.] [ >.#X&X$X&XoX>.O.{ d.[ U T ;..X$X&X&X$X&X&X&X&X&X&X&X&X&X$X&X&X&X&X&X&X&X",
"&X&X&X&X&X&X&X&X&X&X&X&X&X&X&X&X&X%XW.R g.=X>X,XU.P.L.C.{ ;.#X$XoXk.m.-X>XK.K.F.f.G E '.&X&X&X&X&X&X&X&X&X&X&X&X&X&X&X&X&X&X&X&X",
"&X&X&X&X&X&X&X&X&X&X&X&X&X&X&X&X&X[.E g.:X1XU.U.U.I.I.I.S.{ :.'.l.=X<X,XU.U.I.I.K.z.U ~ |.$X&X&X&X&X&X&X&X&X&X&X&X&X&X&X&X&X&X&X",
"&X&X&X&X&X&X&X&X&X&X&X&X&X&X&X&X#XX.{ :X3XU.U.U.I.U.I.I.L.C.E { =X3X,XU.I.I.I.I.I.L.g.G #.$X&X&X&X&X&X&X&X&X&X&X&X&X&X&X&X&X&X&X",
"&X&X&X&X&X&X&X&X&X&X&X&X&X&X&X&X|.! m.3XU.L.D.u.r.u.G.I.I.H.{ b.2X,XI.L.G.D.G.P.I.I.S.K Y }.&X$X&X&X&X&X&X&X&X&X&X&X&X&X&X&X&X&X",
"&X&X&X&X&X&X&X&X&X&X&X&X&X&X&X&X!.! =X3XU.N.g 8 7 w g Z.I.J.i.=X3XU.G.C i i g t.J.I.H.5.L ,.$X$X&X&X&X&X&X&X&X&X&X&X&X&X&X&X&X&X",
"&X&X&X&X&X&X&X&X&X&X&X&X&X&X&X&XW.^ -X1XD.g 8 t % O & i G.J.a.:X3XG.V 8 7 % : 8 C L.J.7.L ;.$X$X$X&X&X&X&X&X&X&X&X&X&X&X&X&X&X&X",
"&X&X&X&X&X&X&X&X&X&X&X&X&X&X&X&X^.Q -X3Xu.f 2.M.& . X : y.D.v.:X3Xy.u k 2.% . O 8 Z.J.7.L ;.$X$X&X&X&X&X&X&X&X&X$X&X&X&X&X&X&X&X",
"&X&X&X&X&X&X&X&X&X$X&X&X&X&X&X&X|.R F.3Xa.N <.V o   o u r.D.7.-X<Xr.V 6.7.O   X 7 t.A.5.P >.&X&X&X&X&X&X&X&X&X&X&X&X&X&X&X&X&X&X",
"&X&X&X&X&X&X&X&X&X&X&X&X&X&X&X&X+X/ f.>Xa.k k 6     O N A a.[ m.<Xi.V k 9 .   $ <.t.Z.K I [.&X&X&X&X&X&X&X&X$X&X&X&X&X&X&X&X&X&X",
"&X&X&X&X&X&X&X&X&X&X&X&X&X&X&X&XOX| U M.S.t & .       > y.5.E d.-Xa.u w $     o 8 A 7.I I [.&X&X&X&X&X&X&X&X&X&X&X&X&X&X&X&X&X&X",
"&X&X&X&X&X&X&X&X&X&X&X&X&X&X&X&X`.+.! Q c.0.& . . . : C 5.Q  ...g.S.i o       o b i.T P P &.#X&X&X&X&X&X&X&X&X&X&X&X&X&X&X&X&X&X",
"&X&X&X&X&X&X&X&X&X&X&X&X&X&X&X#XT.+...! T { 2.g t d <.^ R ( *.*.| d.i.g : % > g 2.W L I P E |.%X&X&X&X&X&X&X&X&X&X&X&X&X&X&X&X&X",
"&X&X&X&X&X&X&X&X&X&X&X&X&X&X&X+X-.+.+.+.} R U [ Q ! ! / *.*.( *.&.| ^ { ] H ] K U I L L P P W.$X&X&X&X&X&X&X&X&X&X&X&X&X&X&X&X&X",
"&X&X&X&X&X&X&X&X&X&X&X&X&X&X&X|.*.+.+.+.$.o. .} ( ......*...*.( *...+.( / R E ~ | ! I L P L &.#X&X&X&X&X&X&X&X&X$X&X&X&X&X&X&X&X",
"&X&X&X&X&X&X&X&X&X&X&X&X&X&X&X/.+.+.+.+.+.@.$.$...*.*.*...*.*.o...*.+.&.+.+.+.+.+. .P P L L ~ OX&X&X&X&X&X&X&X&X&X&X&X&X&X&X&X&X",
"&X&X&X&X&X&X&X&X&X&X&X&X&X&X&X~.+.+.+.K J h.+.*.*.*.*...*.*...*.*.*.+.+.*.*...*.*.( J G L L R |.&X&X&X&X&X&X&X&X&X&X&X&X&X&X&X&X",
"&X&X&X&X&X&X&X&X&X&X&X&X&X&X&X^.+.+.+.J ) n.j.4.` @.h.( @.d.+.@.o.o.+.+.O.d.d.` _ _ y S P L I ].&X&X&X&X&X&X&X&X&X&X&X&X&X&X&X&X",
"&X&X&X&X&X&X&X&X&X&X&X&X&X&X&X~.+.+.+.J 4.;XV.8.x._ ' w.' w.8._ w.' ' 8.B e.' e.F.V.2 S P P I Q.&X&X&X&X&X&X&X&X&X&X&X&X&X&X&X&X",
"&X&X&X&X&X&X&X&X&X&X&X&X&X&X&X`.+.+.+.W 2 j ) ) *Xr _ w.s F.x.8.*X1.N n.r n.j.) n.) 1 D P P P (.&X&X&X&X&X&X&X&X&X&X&X&X&X&X&X&X",
"&X&X&X&X&X&X&X&X&X&X&X&X&X&X&X|.*.+.+.^ 2 ; s a z.r < d 2 w k k H H a ) 4 x.) 2 4 ; < L P P I ~.&X&X&X&X&X&X&X&X&X&X&X&X&X&X&X&X",
"&X&X&X$X&X&X&X&X&X&X&X&X&X&X&X+X*.+.+...q # q 1 j j $ 9 9 o < h 6 H 6 h s j 4 2 4 1 5 L P P U '.&X&X&X&X&X&X&X&X$X&X&X&X&X&X&X&X",
"&X&X&X&X&X&X&X&X&X&X&X$X&X&X&X&XQ.*.+.+.F # 4 q 4 a 0 6 $ + < 6 * = * 2 4 # 4 4 4 < p P P P E .X&X&X&X&X&X&X&X&X&X&X&X&X&X&X&X&X",
"&X&X&X&X&X&X&X&X&X&X&X&X&X&X&X&XXX*.+.&.^ 1 # a 1 1 q 0 + * 6 o o = 0 4 4 # 4 4 4 < D P P P  .@X&X&X&X&X&X&X&X&X&X&X&X&X&X&X&X&X",
"&X&X&X&X&X&X&X&X&X&X&X&X&X&X&X&X%X/.*.+.+.S # 1 0 - e y y y 3 @ : M m c e - s q ; 5 G P P P ;.&X&X&X&X&X&X&X&X&X&X&X&X&X&X&X&X&X",
"&X&X&X&X&X&X&X&X&X&X&X&X&X&X&X&X&X@XT.*.+.h.h - c p.q.v B V.x , n B.e.v n n m 3 3 K P P P Y [.&X&X&X&X&X&X&X&X&X&X&X&X&X&X&X&X&X",
"&X&X&X&X&X&X&X&X&X&X&X&X&X&X&X&X%X&X@XQ.@.E.).w.9.;X4Xe.p.B.c n v Z V.q.;X4Xe.) b.Y.P P P &.@X&X&X&X&X&X&X&X&X&X&X&X&X&X&X&X&X&X",
"&X&X&X&X&X&X&X&X&X&X&X&X&X&X&X&X&X&X&X@X~.Y.(.).4.8.e.9.B.q.z z l B V.q.x.e.4.).E.( P P Y }.&X&X&X&X&X&X&X&X&X&X&X&X&X&X&X&X&X&X",
"&X&X&X&X&X&X&X&X&X&X&X&X&X&X&X&X&X&X&X&X#X{.Y.Y.k.( s.` 3.` _ ) _ _ ` ` 3.{ h.E.E.( P U W.&X&X&X&X&X&X&X&X&X&X&X&X&X&X&X&X&X&X&X",
"&X&X$X&X&X&X&X&X&X&X&X&X&X&X&X&X&X&X&X&X&X%X{.Y.+.*.*.*.+.+.*.*.*.*.*.o.+.+.*.| @.~ R !.$X&X&X&X&X&X&X&X&X&X&X&X&X&X&X&X&X&X&X%X",
"&X&X&X&X&X&X&X&X&X&X$X&X&X&X&X&X&X&X&X&X&X&X%X{.*.( *.o.+.+...*...*...*.&.*./ P R &.|.&X&X&X&X&X&X&X&X&X&X&X&X&X&X&X&X&X&X&X&X&X",
"&X&X&X&X&X&X&X&X&X&X&X&X&X&X&X&X&X&X&X&X&X%X%X#X{.*.*.*.+.+.*.+.*...*...*...Y / ^.@X&X&X&X&X&X&X&X&X&X&X&X&X&X&X&X&X&X&X&X&X&X&X",
"&X&X&X&X&X&X&X&X&X&X&X&X&X&X&X&X&X&X&X&X&X&X&X&X$X/.*.+.+.+.+.+.*...*...&.Y ( |.$X&X$X&X&X&X&X&X&X&X&X&X&X&X&X&X&X&X&X&X&X&X&X&X",
"&X&X&X&X&X&X&X&X&X&X&X&X&X&X&X$X&X&X&X&X&X&X&X&X&X@XT.+.+.+.+.+...*.*...~ R [.$X&X&X&X&X&X&X&X&X&X&X$X&X&X&X&X&X&X&X&X&X&X&X&X&X",
"&X&X&X&X&X&X&X&X&X&X&X&X&X&X&X%X&X&X&X&X&X&X&X&X&X&X`.+.*.*...+.*.*...~ P X.@X&X&X&X&X&X&X&X&X&X&X&X&X&X&X&X&X&X%X&X&X&X&X&X&X&X",
"&X&X&X&X&X&X&X&X&X&X&X&X&X&X&X&X&X&X&X&X&X&X&X&X&X$X|./ ~ ..+.+...( R P P %.$X&X&X&X&X&X&X&X&X&X&X&X&X&X&X&X&X&X&X&X&X&X&X&X&X&X",
"&X&X$X&X&X&X&X&X&X&X&X&X&X&X&X&X&X&X&X&X&X&X&X&X&X&X@X} P Y Y ! Y P I P P &.$X&X&X&X&X&X&X&X&X&X&X&X&X&X&X&X&X&X&X&X&X&X&X&X&X&X",
"&X&X&X&X&X&X&X&X&X&X%X&X&X&X&X&X&X&X&X&X&X&X&X&X&X&X$X>.P P P P P P P P L ..@X&X&X&X&X&X&X&X&X&X&X&X&X&X&X&X&X&X&X&X&X&X&X%X&X&X",
"&X&X&X&X&X&X&X&X&X&X&X&X&X&X&X&X&X&X&X&X&X&X&X&X&X&X&X^.P P P P P P P P L E .X&X&X&X&X&X&X&X&X&X&X&X&X&X&X&X&X&X&X&X&X&X&X&X$X&X",
"&X&X&X&X&X&X&X&X&X&X&X&X&X&X&X&X&X&X$XOX#X&X&X%X&X&X&X`.U P P P P P P P L Y [.%X&X&X&X&X&X&X&X&X&X&X&X&X&X&X&X&X&X&X&X&X&X&X&X&X",
"&X&X&X&X&X&X&X&X&X&X&X&X&X&X&X&X$X$X[.X..X&X&X&X&X&X&X'.U P P P I P P I I I R.&X&X&X&X&X XQ.@X&X&X&X&X&X&X&X&X&X&X&X&X&X&X&X&X&X",
"&X&X&X&X&X&X&X&X&X&X&X&X&X&X&X&X$X$X%.E +X&X&X&X&X&X&X_.U P P ! [ P P R ! P &.#X&X&X&X&X#X&.^.&X&X&X&X&X&X&X&X&X&X&X&X&X&X&X&X&X",
"&X&X&X&X&X&X&X&X&X&X&X&X&X&X&X&X$X$X#.Y .X&X$X&X&X&X&X^.I Y P / :.I L ! @.I ~ XX&X&X$X$X&X*.R.&X&X&X&X&X&X&X&X&X&X&X&X&X&X&X&X&X",
"&X&X&X&X$X&X&X&X&X&X&X&X&X&X&X&X$X$X:.I >.$X&X&X&X$X$X;.P ( I  .!.I I R (./ I ;.$X&X$X$X+X+.}.&X&X&X&X&X&X&X&X&X&X&X&X&X&X&X&X&X",
"&X&X&X&X&X&X&X&X&X&X&X&X&X&X&X&X&X&X}.I E [.&X&X&X&XOX~ R @.I | ^.Y P U ].R.I Y W.+X#X$X/.!.%X&X&X&X&X&X&X&X&X&X&X&X&X&X&X&X&X$X",
"&X&X&X&X&X&X&X&X&X&X&X$X&X&X&X&X&X&X#XX.P } /.OX#XOX=.P %.;.P } |./ P P Q.@X$.P I } -.].+X%X&X&X&X&X&X&X&X&X&X&X&X&X&X&X&X&X&X&X",
"&X&X&X&X&X&X&X&X&X&X&X&X&X&X&X&X&X&X$X'.R P U  .$.} I R _.$.L  .+X#.P P o.#XoX-.! ~ :.+X&X&X&X&X&X&X&X&X&X&X&X&X&X&X&X&X&X&X&X&X",
"&X&X&X&X&X&X&X&X&X&X&X&X&X&X&X&X&X&X$X$XR.I P P I L P $.!.U P ;.$XR.P P R ~.&X%XOX XXX&X&X&X&X&X&X&X&X&X&X$X&X&X&X&X&X&X&X&X&X&X",
"&X&X&X&X&X&X&X&X&X&X&X&X&X&X&X&X&X&X&X&X#X_. .U I I ( -.E P Y '.&XXXE P P / /.+X.XR.XX&X&X&X&X&X&X&X&X&X&X&X&X&X&X&X&X&X&X&X&X&X",
"&X&X&X&X&X&X&X&X&X&X&X&X&X&X&X&X&X&X&X&X&X&X@X_.~ R ! I P P =.$X$X$X!.R I L U | / -.%X&X&X&X&X&X&X&X&X&X&X&X&X&X&X&X&X&X&X&X&X&X",
"&X&X&X&X&X&X&X&X&X&X&X&X&X&X&X&X&X&X&X$X&X&X&X&X|.;.X.} #.W.@X$X$X&X$X_./ P P P } .X$X&X&X&X&X&X&X&X&X$X&X&X&X&X&X&X&X&X&X&X&X&X",
"&X&X&X&X&X&X&X&X&X&X&X&X&X&X&X&X&X&X&X&X&X&X&X&X&X&X#X@X$X$X&X&X&X&X&X&XXX,.=.W.+X&X&X&X&X&X&X&X&X&X&X&X&X&X&X&X&X&X&X&X&X&X&X&X",
"&X&X&X&X&X&X&X&X&X&X&X&X&X&X&X&X&X&X&X&X&X&X&X&X&X&X&X&X&X&X&X&X&X&X&X&X$X&X$X&X&X&X&X&X&X&X&X&X&X&X&X&X&X&X&X&X&X&X&X&X&X&X$X&X",
"&X$X&X&X&X&X&X&X&X&X&X&X&X&X&X&X&X&X&X&X&X&X&X&X&X&X&X&X&X&X&X&X&X&X&X&X$X$X&X&X&X&X&X&X&X&X&X&X&X&X&X&X&X&X&X&X&X&X&X&X&X&X&X&X",
"&X&X&X&X&X&X&X&X&X&X&X$X&X&X&X&X&X&X&X&X&X&X&X&X&X&X&X&X&X&X&X&X&X&X&X&X&X&X&X&X&X&X&X&X&X&X&X&X&X&X&X&X&X&X&X&X&X&X&X&X&X&X&X&X",
"&X&X&X&X&X&X&X&X&X&X&X&X&X&X&X&X&X&X&X&X&X&X&X&X&X&X&X&X&X&X&X&X&X&X&X&X&X&X&X&X&X&X&X&X&X&X&X&X&X&X&X&X&X&X&X&X&X&X&X&X&X&X&X&X"
};
