/* XPM */
static char *a4bed59df99546c6c1e784ad72a3132bFXURLtq81AABOeua[] = {
/* columns rows colors chars-per-pixel */
"64 64 244 2 ",
"   c #010401",
".  c #0A0B00",
"X  c #150900",
"o  c #091600",
"O  c #171601",
"+  c #290C05",
"@  c #281703",
"#  c #381A08",
"$  c #3A1C13",
"%  c #1D2908",
"&  c #193514",
"*  c #19370C",
"=  c #28280A",
"-  c #38260A",
";  c #273309",
":  c #36320B",
">  c #2B2A12",
",  c #3A2715",
"<  c #283616",
"1  c #383618",
"2  c #1B3427",
"3  c #183531",
"4  c #393924",
"5  c #431C07",
"6  c #571F06",
"7  c #45250A",
"8  c #442413",
"9  c #482919",
"0  c #522D1B",
"q  c #48341A",
"w  c #55351C",
"e  c #542E0B",
"r  c #4B2D23",
"t  c #493825",
"y  c #5B3C2A",
"u  c #573826",
"i  c #583A32",
"p  c #633C27",
"a  c #793623",
"s  c #643612",
"d  c #2B441C",
"f  c #27481D",
"g  c #34461D",
"h  c #374826",
"j  c #3A542B",
"k  c #304B27",
"l  c #316034",
"z  c #464319",
"x  c #6D421A",
"c  c #494728",
"v  c #59462B",
"b  c #56552C",
"n  c #5B4835",
"m  c #495636",
"M  c #585633",
"N  c #47522D",
"B  c #644324",
"V  c #64432C",
"C  c #694729",
"Z  c #724423",
"A  c #764A2A",
"S  c #634432",
"D  c #6A4532",
"F  c #694B38",
"G  c #754937",
"H  c #685837",
"J  c #74533B",
"K  c #795939",
"L  c #6E552B",
"P  c #46673A",
"I  c #586638",
"U  c #686939",
"Y  c #776439",
"T  c #71713D",
"R  c #7D5B44",
"E  c #785645",
"W  c #6F5146",
"Q  c #536C45",
"!  c #526E46",
"~  c #766944",
"^  c #667749",
"/  c #757545",
"(  c #6D6F4E",
")  c #863C23",
"_  c #855A3A",
"`  c #895235",
"'  c #86623A",
"]  c #96663D",
"[  c #A4683D",
"{  c #825C44",
"}  c #855B47",
"|  c #8E5345",
" . c #876748",
".. c #956A47",
"X. c #877749",
"o. c #98764B",
"O. c #8B6955",
"+. c #936C55",
"@. c #9A6956",
"#. c #9A7657",
"$. c #897459",
"%. c #A76B48",
"&. c #A6774C",
"*. c #A37A54",
"=. c #A37B5C",
"-. c #A87957",
";. c #B47B54",
":. c #B2734E",
">. c #9C7967",
",. c #8E6C62",
"<. c #AA7764",
"1. c #C27C5A",
"2. c #59935C",
"3. c #5F875D",
"4. c #698859",
"5. c #6A945D",
"6. c #798753",
"7. c #5D8D6D",
"8. c #638D63",
"9. c #698C66",
"0. c #639364",
"q. c #6A9767",
"w. c #769A68",
"e. c #7A9A71",
"r. c #738D65",
"t. c #7AA36A",
"y. c #79AA76",
"u. c #6DBC7A",
"i. c #74BD7D",
"p. c #7BBD7D",
"a. c #7BB47B",
"s. c #6CA16C",
"d. c #5BA56A",
"f. c #6BC47D",
"g. c #6CCB7F",
"h. c #6BCA7B",
"j. c #75C57E",
"k. c #7AC47E",
"l. c #73C87C",
"z. c #76C677",
"x. c #8E8B3C",
"c. c #89854A",
"v. c #888655",
"b. c #968E4D",
"n. c #A7845A",
"m. c #B8845A",
"M. c #A7975C",
"N. c #B4AC5D",
"B. c #A8A254",
"V. c #879969",
"C. c #939167",
"Z. c #AA8766",
"A. c #B78A65",
"S. c #B9966B",
"D. c #BA9675",
"F. c #B0916F",
"G. c #84A46D",
"H. c #85A974",
"J. c #83BC7D",
"K. c #86B57A",
"L. c #96A973",
"P. c #AAA663",
"I. c #B8A866",
"U. c #BBA578",
"Y. c #C8875A",
"T. c #D28C5C",
"R. c #CE915E",
"E. c #C58E65",
"W. c #C89369",
"Q. c #D69767",
"!. c #C49677",
"~. c #D89B73",
"^. c #D38968",
"/. c #E49F71",
"(. c #DCA26E",
"). c #C8A677",
"_. c #DBA276",
"`. c #C5AB6B",
"'. c #E2A16E",
"]. c #ECAD7C",
"[. c #E7A777",
"{. c #EDB17E",
"}. c #E6B17D",
"|. c #F0B27F",
" X c #F1AE7C",
".X c #82C27D",
"XX c #7CBD82",
"oX c #77BC83",
"OX c #6DBD81",
"+X c #6DC681",
"@X c #6DC982",
"#X c #75C582",
"$X c #7BC382",
"%X c #74C984",
"&X c #79CA85",
"*X c #7DC289",
"=X c #76CA8A",
"-X c #7AD18C",
";X c #83BD83",
":X c #8BBB84",
">X c #82BD8A",
",X c #89B685",
"<X c #93B987",
"1X c #94BF94",
"2X c #A1B989",
"3X c #C39880",
"4X c #D9AD86",
"5X c #DCB48C",
"6X c #E8AD83",
"7X c #E6B385",
"8X c #EBB384",
"9X c #E6B489",
"0X c #EBB48B",
"qX c #ECBB8C",
"wX c #E8BA85",
"eX c #F1B382",
"rX c #F5BA89",
"tX c #ECBD93",
"yX c #E6B695",
"uX c #F3BC93",
"iX c #F2AE82",
"pX c #81C283",
"aX c #83C48B",
"sX c #89C48A",
"dX c #84C392",
"fX c #91C18F",
"gX c #FDCD9D",
"hX c #F7C598",
"jX c #F0C995",
"kX c #FBCCA3",
"lX c #F8CCA4",
"zX c #FFD5A5",
"xX c #FDDAA5",
"cX c #FED5AC",
"vX c #FDDAAC",
"bX c #F3D9A9",
"nX c #FFD5B2",
"mX c #FEDAB2",
"MX c #FADBB7",
"NX c #F7E1AC",
"BX c #FDE4B3",
"VX c #FEE9B5",
"CX c #FFEBBA",
"ZX c #FBE6B7",
/* pixels */
"g.g.@X$X;X:X;XpXoX%X@Xf.f.z..XJ.K.L.L.C.Y x Z ` 1.1.^./.}.}.}.}.wX'.Q.R.R.m.` x C U C.2X<XJ.dX#X#X%Xj.i.p.pXpXk.#X#X#X#X$X$X.XpX",
"g.g.l.$X>X;XpXpX#X%X#Xf.z.k..XK.G.G.L.v.' Y ' %.Q././.[.{.wXjX}.jX}.'.(.(.S.[ ' Y Y v.V.V.H.:XXXoX#Xj.p.i.pX.Xk.$Xk.l.%Xk.$X.XpX",
"g.g.#X$X;XpX;X$X#X#X+Xj.z..XK.G./ T Y ~ o.n.!.~.uXuXuXhXgXgXjXbXgXjXjXjXuX7X`.E.Z.o.~ U I 4.G.<Xi.$X$Xk.XXpX$Xi.$X#X#X$X$X$X$X;X",
"l.l.$X$X;X;X$X$X#X+X%X#X.XG.t.6.U Y Y o.S.4XjXtXcXcXvXvXNXNXNXNXxXxXxXxXzXzXhXqX9XD.o.K U ~ v.G.J.k.pX$X.XpXk.i.j.$Xj.$Xk.$X.X$X",
"%Xl.k.pX;X$X*X#X#X+X%X.X.Xt.6.T o.=.A.).9XkXzXzXcXnXZXBXVXBXNXbXbXzXcXvXvXcXkXkXuXyX~.D.A.b.] T H.p.pX.Xk.$X$Xj.$Xj.k.$X$X$X$Xk.",
"j.#X$Xk.;X$X*X#X+Xl.#XpXK.c.T L A.~.0XgXcXBXvXNXvXvXZXCXCXZXNXbXbXbXbXnXvXnXcXcXcXcXlX0X4XM.' L G.a.:X.Xp.pX$Xj.#X$X#X$X$Xk.$X$X",
"k.k.pXpX$X*X#X+X+X+X$X;XK.v.T ' W.6XhXcXmXBXCXVXBXZXCXCXCXCXZXbXBXNXmXbXnXcXnXcXnXnXkXuX9XA.] Y V.a.J..Xk.$X#X$X$Xl.$Xk.$Xk..X$X",
"k.$Xk.$X$X*X#X%X+X+Xk.J.L.b.X.[ 6XrXcXvXBXVXCXVXNXZXZXZXCXBXMXmXZXbXbXlXcXnXcXcXzXmXcXkXhX~.[ ' v.y.K..XJ.$X#Xj.$X$X$Xk.$X$X$X$X",
"k.k.$Xk.*X#X%X%X@X#Xp.t./ Y -.W.rXgXBXBXBXBXVXCXCXZXZXNXnXnXnXnXnXmXMXnXvXnXvXcXcXvXzXzXjXjXN.o.T ^ H.J.i.&Xj.%X%Xk.k.$X$X$Xk.$X",
"k.k.pX$X$XoX#X+X+X+X.Xt.^ Y -.!.jXzXBXBXBXVXCXCXCXZXBXnXnXnXnXnXnXnXmXnXmXnXvXvXvXzXvXzXxXjXW.b.U ^ G.J.J.$Xf.#X%X$X$X$Xk.$Xk.#X",
"k.k.k.XX$X*X#X%X#XoX;Xw.U K ;.4XhXNXBXVXVXVXVXCXZXZXnXvXnXnXnXnXnXnXnXnXnXvXvXvXxXxXNXNXxXjX`.b.U U V.:XpX&Xf.l.j.k.$XpX$Xk.#X#X",
"k.k.$X$X$X*X*X#X#X#X;Xw.U K <.6XhXxXBXVXVXVXVXVXZXBXnXnXcXnXnXnXnXvXnXnXvXvXvXvXxXxXxXxXxXjX(.n.H U V.:Xk.&Xf.g.#X$X$X.X$X$Xj.%X",
"#Xl.$X$X$X$X*X*X$X$XJ.t.U T W.yXgXbXBXBXBXZXCXVXvXmXvXvXcXcXnXnXnXcXvXnXvXvXvXvXxXxXzXzXzXjX(.n.K ~ V.K.p.&Xf.@Xj.$X.XpX.X$Xj.#X",
"l.#X$X$XXXaX$X$X$X.XK.V.T  .!.uXlXbXBXvXmXBXBXBXvXNXvXvXvXvXcXcXcXnXnXcXcXvXvXvXxXvXzXzXgXrXQ.:._ Y C.K.p.%Xf.@X#X$X$X;XpX$X#X@X",
"g.%Xl.$X;X$XpXXXoXXX:Xw.U Y S.uXhXcXvXvXvXBXBXvXvXvXvXbXvXbXvXvXcXcXcXvXnXvXvXvXvXvXzXgXhXiX^.1.K H C.<Xk.&Xf.@X#X$XpX.X$Xk.l.@X",
"g.l.j.$X$X$X$X$Xi.$XpXw.M H F.hXlXcXcXcXcXvXmXnXbXbXvXvXvXvXvXvXvXvXnXvXvXnXvXvXzXvXzXgXrX[.T.1.A U V.K.$X%Xf.h.#Xk.$XJ.pX$X#X%X",
"k.k.k.$X#X#X#X=X%Xu.;X5.; z D.5XjXjXlXnXmXmXmXMXmXmXmXvXvXcXvXzXvXbXcXMXMXMXMXnXvXgXxXgX|.[.`.] g * 5..Xu.-Xf.%X@X#X$X$Xk.k.k.k.",
"z.k.k.j.#X%X%X%X&Xi.sX5.* e b.4XyXyXhXcXnXMXMXMXmXmXmXvXcXvXvXzXzXxXcXbXMXMXMXnXcXgXgXhX|. X(.] ; * q.pXi.=Xu.%X%X#Xk.$Xk..Xk.$X",
"z.z.%X$X#X#X#X#X$XJ.sX6.; 7 o._.7X7XuXhXcXnXnXnXmXnXcXcXvXvXcXzXzXxXcXmXMXMXMXnXvXgXhX|.|. XR.] = ; r.<X;X*XoX&X#X=X$X$Xk.k.k.j.",
"z.%Xl.j.#X=X*XoXpXa.V.^ : e %.~.~.}.8XqXhXkXlXlXnXnXnXcXcXvXcXzXxXxXnXnXnXMXnXlXcXgXjX|.[.(.Y.&.e q / V.H.sX$X&X#X#X$X#X$Xk.#Xj.",
"l.l.l.#X*X$X$XXXsXt.^ M p ` :.1.Q.(.].{.qXhXhXtXcXcXcXcXzXcXcXxXxXzXxXzXnXlXhXtX0XrX X'.(.(.m.n.C u H ( e.:X;Xk.#X$Xj.&Xj.l.#Xl.",
"l.l.#Xj.#X*X$X;X:Xw.Q H _ | | :.Y.Q.[.].8X8XtX9XgXkXlXlXlXlXgXhXgXgXgXzXlXlXyXyX8XeX]./.Q.Y.[ ] ..G V ~ V.<XpXi.$X#X#X#Xl.$Xl.$X",
"#Xl.k.k.$X$XpX;X:Xt.Q U O._ a ) :.T.[. X].8XeX0XqXuXtXjXtXtXjXqXrXqXqXjXjXtX0X8X XhX X'.Q.&.x s ..} E ( V.:XsX*X#X#X%Xj.k.&X$Xk.",
"l.$Xk.k.$X$XpX$X;Xy.^ ^ $.G 6 6 [ T.[. X[.eXeXqX7X7X7X7X7X5X9X9X{.}.}.6X9X0X8XeX X|.].Q.Q.] s 5 _ } ~ 4.t.a.$X#X#X%Xj.$Xj.k.k.k.",
"$X$Xk.$X.X$X$X$XpXy.y.4.c : 9 Z :.T.Q.Q.[.eX].].8X8X6X7X9X7X9XqX}.}.8X0X0X0X8XeX X X'.R.R.n.C q # c ( H.fXXXi.&X%X%X#X$Xk.k.k..X",
"$X$Xk.pX$XpX$Xk.$XXX;X5.j < : H &.Y.Q.T.[.eXeXeX8X8X8X7X8XwXwX9X7X8X7X0X7X8XeX8X|.'.'.Y.m.&.B q : I r.y.pX&Xf.=X%X#Xk.$Xk.k.k.$X",
".X;X;Xk.k.k.k.&X#X#X$Xy.e.! < 1 o.Y.T.Q.[.].].eXeXeXeX8X8X7X9X7X8X8X8X8X8X8XiX X X'.R.R.S.o.q : P q.a.i.&X#Xf.+X%X#X*X$X$X.Xk.k.",
"$X$Xk.pXk.k.k.j.j.%X#XXX1X9.& O ' m.E.Q._.[.].eX{.|.|.8X8X7X8X7X8X8X7X0X8X8XeX X XR.(.R.m.Y - % 5.J.dXoX#X%X+Xf.#X#Xk.XXk.k.$Xk.",
"$X$X$X$Xk.k.&Xl.u.=X*XoX,X^ < @ x ] ;.W.~.~.'.eX|.|.{.eX8X8X8X8X0X0X0X0X0XuXiX].'.T.T.Y...y O > 8.oX*Xu.u.=X&X#X$X$Xk.pXk.$Xj.l.",
"#X#X$X$Xk.j.j.j.#X%X*XXX,X7.2 O 5 x ] &.W.~.~. X].]. XeXeXeX8X8X0X0X0X0X0XiX[./.Q.T.:.] B , X 2 0.i.*XoXu.&X*X$XpX;X;X$Xk.j.g.@X",
"%X+X#X#Xj.l.j.j.&Xi.XX>X1Xe.4 . + 6 Z ] m.E.Q.~.].].{.eXrXeX8X8X0X0X0X0X8X6X/.^.T.:.[ x 7 @ O k 8.oXaX&X$X$Xp.;X;X;X.X$Xl.g.g.g.",
"%X%X#Xj.#Xk.j.j.j.u.sX,Xr.( 4 + + 5 e ` &.A.E.E.].6X8XeX0XqX0X0XyXyX0XyX6X6X^.Y.Y.[ ` s # @ O 4 ^ s.a.XX;XXXp.pX;X.X$X$X%X@X@X@X",
"&Xj.z.k.k.z.z.k.i.aX>Xq.Q 4 $ r w B A K _ ..m.W.!.~.4XyXyXyXyXyXyXyXyX5X~.W.E.E.[ ` ` a x w 9 , 1 m e.fXXXoX$Xj.k.k..X$Xk.$X$X%X",
"k.k.k.k.k.k.z.k.$XXX9.! n r i W  . . .' ..*.Z.m.A.A.D.W.D.3X3X3XD.D.D.A.<.&.-.;...%.%...| G G i t N ^ e.y.*X&X%Xl.j.&Xk.$XpX$X$X",
"k.k..Xk.k.z.k.k..Xq.P k t n E ,.Z.A.F.A.S.A.n.&...` A Z a G A B p G G A Z A ` ..-.<.A.A.Z.+. .} n t k ! q.$X&Xj.j.j.k.k.XX$X$XpX",
"k.k.z.k.k.k.k.k.k.2.j < j W ,.>.F.D.D.).D.S.n.n.&._ L Z Z C x B p G A Z Z A ` ] D.!.3XA.<.+.O.O.( m & k 5.$X*Xu.j.j.k.k.$XpX$X$X",
".Xk.k.k.k.k.k.k.J.2.g ; 1 n E O.>.n.C.n.n.M.S.!.A.A.M.n.n.Z.Z.F.Z.Z.Z.Z.<.=.=.@.<.Z.<.#.O.} R  .W m ; k 0.sX*Xl.j.k.k.k.$Xk.$X$X",
"$Xk.k.z.j.%Xk.k.sX4.d o @ 8 r D K  .X.o.#.Z.S.!.S.!.!.S.D.F.D.D.3XF.F.D.F.F.=.+.+.#.>.O.E D i y i t % d 9.;X$X&X$Xk.k.k.k.pX$Xk.",
".Xk.&Xk.j.j.k.pXsX4.< O X + 5 0 w V K  .#.#.n.n.Z.M.Z.A.Z.Z.<.Z.R O. . .O.O.{ E } { { E p 0 9 7 @ @ . < 8.;Xi.aX#X$X$X$X.Xk.k.k.",
"pXk.k.j.l.%X$XpXK.4.1 . + # 5 8 8 q v S J  . . ...+.O.o.#.$.$.O.J W J J G F F F i S S y 0 8 5 # + + X ; r.:XXXaX&X$X$X$Xk.$Xk.k.",
".Xz.&Xj.f.#X&X;X<Xr.1 # q D p u q 9 , 8 8 0 u p R K } { } R ~ } J K R J E W u 9 9 $ 8 8 8 9 y S V 0 @ g 9.,XfXoX*X$X$X$Xk.k.k.k.",
".Xp.$X%Xf.%X$Xa.q.( c q D R E J i t $ $ $ r 0 u D D p D S S S S v B B v p i u r $ $ $ 9 9 u J R R J q N ^ w.>X>X$X$X$X$Xk.k.k.k.",
".Xp.j.l.@X=X#Xs.P N v H  .@.+.O.W n r $ 8 r u p p 0 9 8 8 8 8 5 7 7 7 8 r r r $ 9 $ 8 r u J O.#.@.O.F c j ! s.XXXX*X*Xk.k.j.z.z.",
".Xp.j.#X@X=XoXq.d 1 v { +.#.#.O.E W i $ 8 i G } p p w w 0 0 8 7 7 7 e 7 r r 4 $ $ $ r i D R $.#.@.>.W c > f 9.>X>X*X$X$Xk.j.z.z.",
"J.p.j.#X@X=XOX0.< : y } @.@.+.R W S r 8 9 p E @.+. .} }  .K G B x B C V D n r $ + $ r W W E +.<.<.-.R n ; f q.>X>X*X$X$Xk.z.j.z.",
"J.p.#X+X@X=X+X0.h : y } } }  .G E n u 8 9 p } >.#.*.=.#.#.+. .Y Y ' _ ~ R W i , + + r W G } +.=.<.@. .n > d s.>X>X$XaXk.&Xz.z.l.",
"J.p.=X+X+X=XoXq.h - y } ` ` { A E n 9 8 w J +.=.*.=.n.n.#.#.+.......X.+.O.O.W i + + $ i F { #.=.-.@.R n = d q.XXaX$X*X$Xk.l.z.l.",
"a.z.=X+X+X=XoXq.g = u } A G _ G E y 7 7 B ' o.*.n.n.Z.n.Z.n.=.#.*.*.*.#.Z.,.E W $ + $ r p E +.#.<.@.R H = h e.>X>XXXpX&Xk.k.z.l.",
"k.j.j.j.j.aXXXq.g ; , y D ` | a E S 9 7 B K ] n.S.S.D.U.D.D.F.>.*.*.*.o.#.#.$.~ 0 , + 9 n E ,.>.<.@.| D = g w.a.J.k.$X%Xk.k.k.k.",
"z.k.#Xj.oXaXXXq.f % > v G E | G S i 8 7 L X.b.S.`.).`.).U.U.F.C.*.;.&.&.n.=.#.X.v 9 $ $ i W ,.>.<.@.| D : g w.K.$Xk.$Xj.k.k.k..X",
"&Xj.$X#Xj.$XXXs.f * = t i G | D u t , w Y o.M.`.N.I.`.I.I.U.P.P.&.;.&.&.*.n.o.+.K p 8 5 r G O.<.<.@.R V : g w.J.$X$X$X$Xk.k.k..X",
"k.j.$X$X$X$X;Xs.P f ; 1 i D W W t 9 q n  .M.M.I.I.`.`.I.N.I.P.P.b.&.o.&.o.*.o.' _ p 6 5 5 p | @.@.+.K v ; g q.J.$X$X#X#X$Xk.k.pX",
"k.i.k.$X$X$X>Xy.t.Q k > r i W n , , t H X.n.P.I.N.N.N.B.x.x.x.x.c.X.c.c.c.X.T Y K V q 5 5 9 G  .}  .L c : g 5.J.&X$X$Xl.k.k.k.$X",
"z.u.$X&XXX$XpXXXsXq.P g $ > t , > > c ( / c.M.P.N.N.N.B.B.x.b.x.c.x.T T T T U L U b z 7 - 8 w F F H b c j P s.;X$X#X$X#Xk.k.k..X",
"$Xi.k.&Xj.XX*Xk.>Xy.q.! d ; < > O @ t M H / c.b.I.N.I.P.N.P.P.P.c.T T U I I b m M b b 1 - = 1 t n b z N ^ 5.K.;X$X$X$X#Xk.k.k.$X",
"pXp.$XpXi.#X*X$XXX;XsXe.P d d < . O 4 M c b ~ X.c.v.v.v.6.c.6.6.6.T b b b b b b M M b 1 = O = 4 c c g m w.K.sXXX$X*Xj.$X$Xk.k.k.",
"$X$X$X$X#X$X#X*XXX$X>Xy.t.w.8.! O O > 4 M n c c : : > - > > > 4 z v F K W H H W F n c > X X O > % h ^ t.K.:XJ.aX$X#X%Xj.k.k.k.k.",
"*X$X$X$X*X#XXX$X#XaXpXp.XX,Xy.w.j 2 > 4 h 4 = = . .           . # 7 r y S H n n c t > > < 4 h h N ! r.H.,X;X$XXX$X#X$Xj.k.#Xk.k.",
"$X$X*X$X#X$X*X#Xi.$X$X$XpXsXaXK.e.m & o o o . o                 X X X @ 4 t t 4 % o o & ! 9.9.9.0.w.H.>X:X;Xi.i.$X#Xj.#Xk.k.#Xk.",
"$XXX$X$X$X#X#X#X#X#XoXi.$XaX$XXX1X9.j & & & & 2 < 2 2 3 3 3 3 3 < > > 1 c m j j f & & l 7.XXdX>XXX;X;XpXpXaX$Xi.#X*X#X#Xk.&Xj.j.",
"$X$X$X*X*X#X#X$X$X#X#X#X#X$X$XXX>XoX9.7.0.8.8.3.8.9.7.7.7.7.7.7.8.2.3.8.9.q.q.q.0.2.2.d.OX%X%X+XaXaXXXXXXX*X$X*X#X$Xj.%Xl.j.k.&X",
"$X$X$X#X#X$X#X#X#X#Xj.j.j.#X$X$XoXoXXX>X>XXX;X>X>X>X>X>XdXXXoXdX*X*X*X>XoX*X*XaX$X.X=X%X+X+X+Xf.#X*XoXoXj.oX#X&X$X$X%X$Xj.#Xk.k.",
"$X$X$X$X$X#X#X#Xl.f.j.j.l.u.l.#X=X=X=XoXOXoX$X$Xi.z.oXj.z.z.u.z.&X*X#XXX$XJ.*XpXp.z.k.z.i.j.$X&X#XoX#X#XoX#X#X#X#X$Xj.#X&Xj.l.j.",
"*X*X#X$X#X#X*X#X&X#X#X%X#Xj.z.#XOX+X=X%X=X&Xj.z.z.j.z.z.z.h.z.h.l.l.j.k.k.k..Xk..X.XJ.p.p.z.z.j.#X#X=X#X#Xi.j.oX&X#Xj.&Xj.j.#Xj."
};
