/* XPM */
static char *_567257fbcd64391a544a7c88ce289c9Pn3tTr9bX2mfqWRS[] = {
/* columns rows colors chars-per-pixel */
"64 64 253 2 ",
"   c #261710",
".  c #2F2624",
"X  c #32241B",
"o  c #592B01",
"O  c #593606",
"+  c #573916",
"@  c #4C3508",
"#  c #683907",
"$  c #733A06",
"%  c #683D11",
"&  c #6E380C",
"*  c #4B3C2B",
"=  c #4E362A",
"-  c #594308",
";  c #534810",
":  c #68450B",
">  c #774509",
",  c #6A4416",
"<  c #724413",
"1  c #7B4A14",
"2  c #774B16",
"3  c #65581C",
"4  c #7A5519",
"5  c #75530D",
"6  c #594627",
"7  c #584639",
"8  c #5B573A",
"9  c #54552B",
"0  c #654B29",
"q  c #764E27",
"w  c #685826",
"e  c #795529",
"r  c #654D39",
"t  c #695638",
"y  c #785B38",
"u  c #764D31",
"i  c #59662F",
"p  c #7D673B",
"a  c #706E2E",
"s  c #7E631C",
"d  c #3F4140",
"f  c #575247",
"g  c #5B5956",
"h  c #514B4A",
"j  c #665644",
"k  c #775A48",
"l  c #665A53",
"z  c #775D54",
"x  c #596945",
"c  c #58755C",
"v  c #587457",
"b  c #6A645C",
"n  c #776554",
"m  c #6D6F4E",
"M  c #5C7867",
"N  c #686867",
"B  c #6A7769",
"V  c #78786C",
"C  c #757A78",
"Z  c #72706E",
"A  c #874B0C",
"S  c #844C14",
"D  c #894D16",
"F  c #875418",
"G  c #97591B",
"H  c #924D10",
"J  c #A45C1C",
"K  c #8F6719",
"L  c #885926",
"P  c #955B26",
"I  c #875C34",
"U  c #89662A",
"Y  c #966529",
"T  c #996737",
"R  c #9A7639",
"E  c #876B34",
"W  c #A76727",
"Q  c #A4742A",
"!  c #AA7537",
"~  c #B67839",
"^  c #AC6C31",
"/  c #AA621E",
"(  c #C27E3F",
")  c #90704F",
"_  c #A87945",
"`  c #B87B44",
"'  c #AF7C53",
"]  c #857A6B",
"[  c #8C796F",
"{  c #825C53",
"}  c #C07F45",
"|  c #7C8D3D",
" . c #5D825A",
".. c #7A8347",
"X. c #77925A",
"o. c #78A25E",
"O. c #688869",
"+. c #7A9869",
"@. c #729175",
"#. c #77A668",
"$. c #6EA67A",
"%. c #77A779",
"&. c #75BE7C",
"*. c #7BBD7D",
"=. c #79BA76",
"-. c #73B772",
";. c #5E8663",
":. c #6DC575",
">. c #6DC47B",
",. c #6EC97B",
"<. c #6DCB75",
"1. c #73C375",
"2. c #7AC476",
"3. c #75C876",
"4. c #75C57D",
"5. c #7AC47D",
"6. c #73C97C",
"7. c #7AC878",
"8. c #76D078",
"9. c #B48B3E",
"0. c #90813E",
"q. c #C6833E",
"w. c #898846",
"e. c #88934A",
"r. c #889957",
"t. c #9B9557",
"y. c #988750",
"u. c #BB8C47",
"i. c #AA9557",
"p. c #B79555",
"a. c #AD8B52",
"s. c #8DA85C",
"d. c #A8A45D",
"f. c #849968",
"g. c #8A8579",
"h. c #849A76",
"j. c #948A6A",
"k. c #B49363",
"l. c #AA946F",
"z. c #89A865",
"x. c #86B86B",
"c. c #84BB74",
"v. c #84BD7C",
"b. c #8ABD7C",
"n. c #89B874",
"m. c #98B778",
"M. c #91AA71",
"N. c #B0AD75",
"B. c #C8884A",
"V. c #CA934E",
"C. c #C78B56",
"Z. c #CB9456",
"A. c #D59759",
"S. c #D28B4A",
"D. c #D49964",
"F. c #C79365",
"G. c #DDA469",
"H. c #D7AF74",
"J. c #E6AC78",
"K. c #E9B67A",
"L. c #F2B678",
"P. c #E5A76A",
"I. c #DA9E5A",
"U. c #82C27C",
"Y. c #86C175",
"T. c #F5C37B",
"R. c #797E86",
"E. c #877C82",
"W. c #7D8788",
"Q. c #7CBC84",
"!. c #7DBE8B",
"~. c #7EB583",
"^. c #7CBE93",
"/. c #77BE92",
"(. c #79A781",
"). c #6FC884",
"_. c #6EC581",
"`. c #75C583",
"'. c #7AC481",
"]. c #73C983",
"[. c #75C48A",
"{. c #7BC28A",
"}. c #78CA86",
"|. c #79C192",
" X c #858986",
".X c #859788",
"XX c #888D96",
"oX c #889597",
"OX c #979899",
"+X c #968C8A",
"@X c #AA9B94",
"#X c #83BC84",
"$X c #8BBB84",
"%X c #83BD8C",
"&X c #88B786",
"*X c #92B988",
"=X c #9BA89A",
"-X c #83B793",
";X c #83BC93",
":X c #84BD9B",
">X c #8BBB9C",
",X c #8AB995",
"<X c #95B99A",
"1X c #8EAA8C",
"2X c #BABA8A",
"3X c #ACB292",
"4X c #949BA3",
"5X c #98A3A6",
"6X c #8CB7A6",
"7X c #94B9A8",
"8X c #98B8B7",
"9X c #94ABB0",
"0X c #A9A8A9",
"qX c #AAADB4",
"wX c #A9B3B7",
"eX c #B8B8BA",
"rX c #ADB2AA",
"tX c #A19FA2",
"yX c #C2BB89",
"uX c #CDB58E",
"iX c #EAB985",
"pX c #F2B682",
"aX c #CFB7B3",
"sX c #83C285",
"dX c #83C28B",
"fX c #84C788",
"gX c #88C095",
"hX c #99C487",
"jX c #ABC790",
"kX c #B4C2AE",
"lX c #8EC1A0",
"zX c #C4CD9D",
"xX c #F4CB8A",
"cX c #CED3AE",
"vX c #E6D9A9",
"bX c #B8BCC4",
"nX c #A8B9C3",
"mX c #C1BBC0",
"MX c #BDC5CA",
"NX c #BCCBD2",
"BX c #C5C6C9",
"VX c #C8CBD5",
"CX c #D6D6D7",
"ZX c #CBD3D6",
"AX c #E1D7D7",
"SX c #D8DCE4",
"DX c #DAE3E5",
"FX c #E8E8E9",
"GX c #E9EEF1",
"HX c #FEFCFD",
"JX c #F7F7F8",
"KX c #EDF1F5",
"LX c #DFE0DF",
/* pixels */
"'.'.'.'.'.'.'.'.'.U.'.Q.5.5.'.'./.[.`.'.5.5.3.3.8.<.<.3.-.].dXdXQ.Q.{.[.>.].].>.6.5.5.5.'.'.'.[.5.'.'.'.'.'.'.'.'.'.'.'.5.'.'.'.",
"'.'.sX'.U.'.'.Q.'.'.'.'.'.sX'.'._.[.`.4.5.5.2.3.3.:.6.8.&.&.sX#X%X%XfX{.`.>.}.4.5.5.U.sX5.sX'.'.'.'.5.'.`.'.5.`.`.'.'.`.`.'.5.`.",
"Q.'.5.'.'.'.5.sX'.'.sX'.'.'.'.'.`._.'.4.5.*.5.5.:.-.].fX*.#X*X&X*X%XdXfXQ.>.].4.5.5.5.U.'.'.'.'.'.'.'.'.5.'.`.'.5.'.`.'.'.5.'.'.",
"'.'.5.'.'.'.'.'.'.'.5.'.'.'.'.'.].>.4.'.5.sXsX5.'.5.sXsXv.&X*XM.%.+.~.dX`.4.].4.5.5.'.sXsX5.'.[.`.'.'.'.'.'.'.'.'.'.5.'.'.`.'.'.",
"5.sX'.'.v.'.5.'.5.'.'.5.'.5.'.5.6.6.1.fXdX{./.(.gXdXgX*X&XM.f...v  .#.%XQ.4.].4.5.5.U.5.'.'.}.'.5.'.`.'.'.'.5.'.`.'.`.'.'.5.'.'.",
"'.5.'.'.'.'.Q.'.'.Q.'.sX'.sX'.5.3.3.1.'.sXQ.(.(.@.(.&X1X+Xh.j.m i x O.$XsX*.'.'.5.5.'.5.'.'.`.'.`.'.5.'.'.'.'.`.'.'.'.'.'.`.'.'.",
"'.'.'.'.'.'.sX'.'.'.5.'.'.'.'.5.3.3.*.*.~.(.(.M M C (.g.X.] j.[ 9 x +.*X%X*.*.4.5.5.5.5.'.'.`.`.'.`.'.'.'.'.'.'.5.'.'.'.'.'.`.'.",
"'.'.sX5.'.'.5.'.5.sX'.'.'.'.'.5.3.2.=.*.~.@.M c M @.W.Z j k ) j.x x +.*XsX&.*.'.5.5.'.5.'.'.`.`.'.5.'.'.4.'.'.'.`.'.'.'.'.'.7.'.",
"5.sX5.Q.'.5.'.*.5.'.'.*.&.Q.5.4.2.2.sX=.O.c @.W.4X4XR.h = 7 [ ' 8 x +.*Xv.*.'.5.5.5.5.'.'.].`.`.'.'.5.'.'.`.'.'.'.'.'.'.`.'.'.'.",
"'.'.'.'.'.sX'.'.Q.'.'.*.&.'.'.5.5.#.#.@.O.@.=XwXqXtXl d X = { [ 8 x +.*X$X*.Q.4.4.5.5.5.'.'.`.].`.'.`.'.'.'.5.'.5.'.'.'.5.'.`.'.",
"'.5.'.'.'.'.'.'.5.'.'.*.Q.'.'.*.sX#.;.+..X7XBXVXVX4Xh .   = { { r x f.1X#XQ.'.1.6.5.`.5.`.6.].`.5.'.'.'.'.'.'.`.`.'.'.5.'.'.7.'.",
"'.'.'.5.sX'.5.sX*.'.'.5.5.'.'.*.=.O.O..XrXZXDXSXVX4Xh     = { z 7 8 f.*X#X*.'.>.4.6.`.4.'.'.'.`.].'.'.`.'.5.'.'.'.'.'.`.'.'.'.'.",
"'.'.'.'.'.'.'.'.4.'.'.*.'.'.*.=.O.O.h.wXZXFXGXDXSXqXh .   . 7 h 9 8 +.*X#X*.`.4.6.6.'.4.'.'.'.[.5.'.'.`.'.'.'.5.`.'.'.'.'.`.'.'.",
"sX5.Q.'.5.sX'.'.Q.'.'.4.'.'.&.%.v C 0XCXKXJXJXGXKXbXR.d . . = = * 8 +.*X#X&.].6.4.6.6.`.'.].`.`.'.'.'.'.'.'.`.'.5.'.'.'.'.'.'.'.",
"'.'.5.'.'.'.'.'.'.'.Q.*.`.*.-.$.c  XBXJXHXHXJXJXJXSX4XZ l h h d 9 x +.$XQ.&.].].].6.6.4.'.'.`.].'.'.5.'.'.'.'.'.'.'.'.`.'.'.`.5.",
"'.'.'.'.'.'.#X'.U.'.4.4.Q.&.-.@.B OXCXHXHXJXHXHXJXGXNXqXOXZ Z N h v %.*X#X*.].6.6.6.6.`.6.'.'.'.'.'.}.'.'.`.'.`.}.'.'.'.'.'.].7.",
"'.].].).[.'.$X#XU.=.6.].[.%. .B .XBXFXHXFXFXHXJXKXFXmXbXVXVXbXqXR.@.W.1X#X&.3.3.,.,.6.6.4.4.1.*.#X#XQ.'.'.[.].[.`.[.'.`.`.].6.6.",
"`.].).).[.#X$Xb.Y.=.6.6.[.$.B B =XBXFXGXLXCXJXKXFXSXVXVXSXSXSXmXOX.X1X7X$Xv.1.3.:.<.>.>.1.3.'.fX#X#XQ.'.[.[.[.].[.'.'.'.5.6.6.,.",
"4.].).).[.'.#Xb.U.=.,.,.[.$.c V 0XBXLXCXMXaXFXFXCXVXCXCXDXFXVXbXXXW.1XjX*Xv.2.2.3.,.>.>.].4.4.4.'.Q.'.].].).]._.`.`.'.'.'.4.`.].",
"5.'.].].[.`.#XsX5.1.)._.`.$.c B OXBXCXBX0XrXLXFXaXBXLXFXGXSXmX0XoXoX=XlX*Xb.Y.2.=.1.4.`.`.`.&.&.'.'.`.`.].).).].`.'.'.'.5.'.5.5.",
"v.5.].].].[.'.U.5.1.,.,.[.$.M B tXmXmXeXOXtXVXLXrXaXFXJXHXFXrXtXW..X1XjXY.b.n.x.U.U.5.'.'.'.'.5.`.'.`.`.].4.].].].`.7.'.'.'.sX5.",
"b.5.`.).].].'.'.2.1.6._.`.%.M B 0XmXmX0X+XOXBXBXrXqXFXHXHXFX@X X@. X<XkXjXhXjXjXjXhX$X=.*.v.5.5.5.5.5.v.5.4.5.3.5.5.`.5.'.'.5.sX",
"v.U.'.].).].5.5.5.1.4.].Q.%.c V bXmXbX4X XXXeXbXrXqXFXJXJXAXg.B g..XrXcXcXzXcXcXcXjX3X$X*Xb.b.b.b.b.b.b.b.c.=.Y.5.5.4.5.'.'.'.'.",
"b.v.`.6.).`.5.v.Y.=.5.5.#X(.M V VXVXqX4XR.XXbXqX0X7XLXJXJXAXC N V g.3XzXjXH.jXH.zX2X2XjXjXjXm.Y.m.m.m.m.m.m.n.n.Y.2.5.5.'.'.'.#X",
"n.sX5.>.}.}.2.Y.c.Y.c.Y.dX+.B V bXCXbXXXW.4X9XnXqXnXVXGXGXMX@.N C g.n k p E p p I [ yXvXcXzXjXN.N.yXuXN.j.r.d.Y.c.Y.7.1.4.'.'.Q.",
"n.U.1.>.].7.=.n.z.x.z.z.m.z.j.] 0XqX4XE.R.W.9X9X9X9XNXSXDXMXC g b n t = ; + O O + I k.uXyXH.N.t.k.k.k.k.i.t.d.s.x.2.7.6.>.].).Q.",
"b.U.1.>.6.5.x.m.e.r.e.r.M.N.@Xl.[ [ N N N R.oX4XW.4XnXNXSXMXR.g j k 7 + + # # % & % L ) E L U 4 L F L T k.p.i.r.x.Y.Y.6.>.[.[.Q.",
"U.U.>.>.3.2.z.M.t.d.d.d.d.N.l.l.z f 7 f h N .XOXW.W.nXNXZXnXC g j r + + + + # % % 1 & % # # > 1 & & o P D.H.i.e.s.Y.7.3.>._.].Q.",
"U.7.>.,.7.-.r.t.H.xXxXK.d.y.) I u + = r r b  XOXW.4XqXbXBXwXZ l j r = @ O o o o < F I P F F / / S 1 & P H.K.i.0.s.Y.7.3.>.`.!.Q.",
"5.5.>.,.7.#.e.t.xXxXvXxXu.K L & % + % 0 t n g.g.W.XXrXqXaX0XN g j k 0 0 , + @ o < F ^ ^ J / / / L S $ P K.xXd.w.s.x.7.6.4.}.%X!.",
"5.1.,.,.7.o...0.H.T.xXT.9.F 5 # # $ % u ) n n n Z [ tX0XrX0X] l j r 6 w w - @ o < L Q / A H / / F 2 & P T.xXp.e.x.2.7.3.'.'.#X%X",
"5.3.>.].7.#...E p.I.xXL.! 4 > # $ S F L _ ' k j n Z g.+XrX0X[ l j u y y y - @ o < L ` ~ J / ^ ~ F 4 # G T.T.p.e.s.x.7.6.5.'.%X#X",
"5.4.:.>.4.=.#.r.) a.H.H.` P A > D P P P F.F.I u + * j V +XtXOX] 0 q I T U : o o 1 P C.S.J W q.S.K 5 $ Y J.xXi.w.z.Y.2.:.`.fX5.#X",
"5.1.3.4.4.5.=.z...) k.G.C.u.Q H P P D P C.C.T q 6 6 9 8 b C R.[ u F L T L , # o S P } B./ / q.q.Q 5 > G G.iXk.y.s.Y.2.1.6.`.5.sX",
"sX5.>.4.}.'.Y.n.z.t.y.Z.L.L.V.9.A F D W D.F.^ I ) ) 6 X * f l n , < q L L 1 o o < L ! a.P G ! Q K > > D Z.G.a.t.s.n.2.:.6.`.4.'.",
"dX'.'.`.].`.5.n.m.s.0.a.K.L.V.9.K G D J ( ` T T F.i.0   @ = * r q 2 L L L & o o , 4 Y Y 1 F Y Y Y K G W B.V.U w.s.b.U.3.6.`.Q.'.",
"dX{.`.[.).].4.c.n.s.a U 9.9.0.9.B.9.W J G H H P F.k.w @ y p r y ) T T T L % # o O # 5 : - - 5 F B.B.A.B.B.^ 5 a s.n.5.1.}.].4.}.",
";XdXQ.[.).).&.1.x.s.| | s K K K 9.V.V.B.^ J G P _ _ q , e { e q P P T L S % # # 4 e 4 4 5 s s K V.A.I.S.` P - a r.x.Y.1.6.].'.[.",
"%X%X{.[.].).6.3.Y.x.s.e.| s R ! Y u.G.L.P.A.u.W F S : # : 2 < # 1 S F 1 $ S L T p.Z.p.p.p.u.a.p.9.q.q.^ ^ 4 O 3 r.n.5.4.].`.&.[.",
"#X!.{.}.].].].].7.-.x.s...p y.y.U ! A.J.L.L.D.` T L U L L Y T L D D H S S P ~ C.Z.A.A.Z.I.Z.B.C.^ ^ W G L 5 @ i o.c.U.4.`._._.].",
"#X'.'.'.}.].]._.].{.Q.M.M.3X2XuXa.E _ _ T ' pXpXiXH.H.H.H.J.J.G.V.V.V.Z.A.A.A.A.q.~ ^ / W W W P F Y G 1 - ; ; i o.x.U.4.`.].`.`.",
"#X'.'.'.'.[.].].[.[.dX%X1X<XeXcXN.t.E L L T F.pXiXiXiXiXK.J.J.G.V.V.V.V.V.S.S.S.~ / J H A H D D 1 4 5 3 3 3 i a #.c.U.5.&.].[.`.",
"5.5.5.5.5.'.`.].).[.|.|.>X7XeXcXcX@Xk + u I { ' _ _ _ R _ ! ! ^ Q Q W W W / / / H H H H D H S S : - ; 3 | e.X.o.x.v.*.5.&._.'.].",
"5.5.5.5.5.Q.'.`.).[.|.|.-X>X<X7XBXuXj.n { { { ) ) ) e 2 2 F D F 1 A 5 A A A A A H A A A S 1 1 3 3 3 i a z.b.b.b.v.v.'.'.4.Q.'.}.",
"6.4.5.U.U.5.U.'.].}.[.|.^.^.-X<XwXqXmXtXz z @XaXaXuX) p L L L F S F S F F F F F D S 1 O O O 3 w X.X.X.f.c.b.*.5.sXv.'.5.*.*.'.[.",
"].`.'.*.b.b.v.5.4.6.].[.[.!.^.:X8XnXVXmXE.E.aXaXaXl.{ 2 , < < 1 2 2 2 1 1 1 1 2 , q w w 3 i i x z.&X$Xv.*.&.&.'.'.'.'.sX'.*.5.'.",
").].`.U.b.b.b.Y.2.:.:.<.`.`.~.-X6X8XnXbXmXmXaX@X[ n r 6 6 , % < % % < % # : O - - i w.f.+.+.+.+.%.$XsXQ.[.]._.].}.4.5.'.'.Q.*.5.",
").].'.sXU.Y.v.2.7.3.:.:.4.4.!.^.^.8XnXnXVXmXeX0Xb b 8 t t w w q w w w w w w w i i a f.b.v.v.#XfXv.fX[.4.].}._._.].*.4.'.sX*.=.5.",
"'.].'.'.5.*.'.5.5.5.4.4.`.5.5.{.6X8X8X8X8X8X9X9X.X.X1X%.h.f.f.+.+.+.+.+.+.+.#.+.#.#.=.*.U.5.5.5.'.'.'.[.`.`.`.`.'.'.'.'.'.'.'.'.",
"'.'.'.'.'.'.'.'.`.'.'.'.'.'.'.{.6X6X6X8X8X8X6X6X7X<X>X1X&X#X&X~.&X#X#X#XQ.Q.Q.Q.Q.*.Q.'.5.5.1.1.'.'.'.5.'.'.'.'.5.'.`.'.'.5.'.'.",
"'.'.'.'.'.'.'.4.5.'.'.5.'.'.'.'.;X>X>X>X>X6X:X6XlX7X6XlXgX<XgX,X;X,X;X,X,X;X;XgX;XdXdXdXfX5.*.*.'.'.'.'.'.5.'.'.'.`.'.'.5.'.'.'.",
"'.'.'.'.'.'.'.].'.'.'.`.'.'.'.'.~.&X-X%X%X;X-X:X:X>X>X>X,X>X>X:X,X&X,X,X-X-X,X,XgX;X%X{.#XQ.'.'.'.'.'.'.'.`.'.'.'.'.'.5.'.'.'.'.",
"4.'.'.'.'.'.'.'.'.'.5.'.}.'.'.5.5.v.#X#XQ.%X;X;X:X:X:X:X6XgX:XlX<X<X>X>X6X>XlXgX:X>X;X;X%X%XsXsX'.'.'.'.'.'.'.'.'.'.'.`.'.'.'.5.",
"'.'.'.'.'.'.'.'.'.'.`.'.'.'.'.5.Y.2.5.2.Q.Q.'.!.!.^.|.:X6X|.:X:X>X>X>X>X>X6X>X>XlXgXgXgX;XdXdX%X'.'.'.'.'.'.4.'.5.'.'.5.`.'.].'.",
"'.'.].'.'.'.'.'.'.'.'.'.'.'.'.5.1.2.2.2.5.5.'.Q.!.Q.{./.|.|.|.^.-X-X,X,X-X-X-X-X:X:XgXgX;X%X!.Q.'.'.'.'.'.`.'.'.`.'.'.'.'.'.'.'.",
"'.'.4.'.4.'.'.'.'.4.`.'.'.'.'.5.3.2.2.2.5.5.4.'.'.[.[.{.[.[.|.|.%X%X%X%X;X;X^.^.!.!.!.!.sXQ.[.'.'.'.'.'.'.5.'.'.'.'.'.'.`.5.'.'.",
"'.'.5.`.'.'.'.'.'.'.'.5.'.'.'.'.5.5.'.4.5.4.'.4.'.5.'.[.'.`.'.[.'.{.{.dX{.!.!.{.{.{.'.[.'.'.'.'.7.'.`.'.'.'.'.'.'.'.5.'.'.`.'.5.",
"'.'.'.'.'.`.5.'.'.'.'.'.'.`.'.`.[.[.[.`.].`.6.'.3.6.3.3.3.3.5.3.'.'.'.'.}.[.[.[.[.}.[.'.'.5.5.4.}.'.'.'.'.'.'.'.6.'.'.`.'.'.'.'.",
"`.5.'.'.'.'.`.'.'.5.'.`.5.'.5.}.[.[.[.}.'.`.4.6.6.7.3.3.3.3.3.3.1.6.5.4.6.5.5.`.`.4.'.6.6.7.6.6.'.'.'.5.`.'.7.'.'.'.'.'.'.5.'.`.",
"'.'.'.'.`.5.'.'.`.'.'.'.'.'.5.[.{.[.{.{.}.'.'.1.7.1.2.3.7.3.2.3.3.6.6.6.6.].4.`.`.`.].6.1.6.6.5.5.'.`.'.'.'.'.'.'.'.'.'.`.'.'.'.",
"'.5.'.'.'.`.'.5.'.5.'.'.'.'.'.'.{.{.[.[.'.`.5.5.5.3.5.3.5.5.5.5.6.3.1.4.5.`.].4.'.4.`.4.5.5.3.5.5.'.'.5.5.'.'.`.'.'.'.'.'.'.5.`.",
"'.`.'.'.'.'.'.'.'.`.'.5.'.'.'.`.{.{.{.[.'.5.5.5.5.5.5.'.'.}.'.'.5.7.5.5.'.'.}.'.[.'.'.'.5.5.5.5.`.'.`.'.`.'.'.'.'.`.5.'.'.'.'.'.",
"'.'.`.5.'.5.'.'.'.'.'.`.`.'.'.'.'.'.'.5.5.5.5.5.5.'.'.'.{.!.^.{.'.5.5.'.'.Q.'.!.'.%X{.'.'.sXsX5.'.'.'.'.'.'.'.'.`.5.'.`.`.'.'.'.",
"`.'.'.'.`.'.'.5.`.'.'.'.'.'.'.'.'.sX'.sX5.5.U.5.5.sX'.{.{.{.|.dX'.5.sX'.sX'.{.sX{.dX#X#X'.sX#X'.'.5.'.'.'.5.`.'.'.'.'.5.'.'.5.`."
};
