/* XPM */
static char *_ec87811282440f1a4599d8d9a71d0a7LIgbRukCwgLseq9P[] = {
/* columns rows colors chars-per-pixel */
"64 64 251 2 ",
"   c #180500",
".  c #0B1401",
"X  c #181A03",
"o  c #090B00",
"O  c #270B02",
"+  c #271908",
"@  c #36190A",
"#  c #291912",
"$  c #331B14",
"%  c #310C00",
"&  c #182705",
"*  c #193717",
"=  c #143108",
"-  c #28260A",
";  c #34260A",
":  c #29390A",
">  c #292915",
",  c #362918",
"<  c #2A3817",
"1  c #35351A",
"2  c #32330B",
"3  c #393925",
"4  c #2C392A",
"5  c #252B21",
"6  c #491803",
"7  c #47250A",
"8  c #48350B",
"9  c #462917",
"0  c #473417",
"q  c #533518",
"w  c #552A13",
"e  c #683519",
"r  c #77381E",
"t  c #472D25",
"y  c #493829",
"u  c #563827",
"i  c #583A35",
"p  c #4D3631",
"a  c #6C3926",
"s  c #1B430F",
"d  c #38460A",
"f  c #294718",
"g  c #374618",
"h  c #35581A",
"j  c #2C4F08",
"k  c #2A4723",
"l  c #384729",
"z  c #385728",
"x  c #315433",
"c  c #3A6733",
"v  c #2C6114",
"b  c #4C4819",
"n  c #49462A",
"m  c #564826",
"M  c #475625",
"N  c #58572A",
"B  c #584433",
"V  c #4E5334",
"C  c #674726",
"Z  c #7A4527",
"A  c #674739",
"S  c #774B38",
"D  c #685838",
"F  c #775839",
"G  c #695628",
"H  c #506B30",
"J  c #686737",
"K  c #78663A",
"L  c #6B7A37",
"P  c #757539",
"I  c #69672D",
"U  c #63521D",
"Y  c #3E5743",
"T  c #5A595B",
"R  c #4D4D46",
"E  c #735949",
"W  c #6A5D56",
"Q  c #6B5345",
"!  c #476745",
"~  c #526E51",
"^  c #786748",
"/  c #7C7647",
"(  c #6D6A52",
")  c #577871",
"_  c #666868",
"`  c #71736F",
"'  c #833A23",
"]  c #82381F",
"[  c #985B3B",
"{  c #885433",
"}  c #85683A",
"|  c #85783D",
" . c #9A643E",
".. c #A4663D",
"X. c #965C44",
"o. c #855D44",
"O. c #A05942",
"+. c #876947",
"@. c #986746",
"#. c #887647",
"$. c #98754D",
"%. c #856B57",
"&. c #986B52",
"*. c #8A7755",
"=. c #997758",
"-. c #A5744E",
";. c #B7764C",
":. c #A87956",
">. c #B67958",
",. c #A4684A",
"<. c #887565",
"1. c #837A76",
"2. c #947D6B",
"3. c #A87D64",
"4. c #C07E4E",
"5. c #6E833B",
"6. c #598B5D",
"7. c #5A915E",
"8. c #658A5B",
"9. c #7B8655",
"0. c #6E8C4D",
"q. c #598766",
"w. c #5D9663",
"e. c #688A68",
"r. c #669768",
"t. c #799766",
"y. c #759B77",
"u. c #6E8B71",
"i. c #68A46C",
"p. c #6EB978",
"a. c #75BD7C",
"s. c #7BBC7E",
"d. c #76B47A",
"f. c #73A772",
"g. c #6CC37C",
"h. c #6DC87D",
"j. c #74C57D",
"k. c #7BC37E",
"l. c #73C87E",
"z. c #78C576",
"x. c #94854D",
"c. c #838957",
"v. c #978958",
"b. c #8B8F4F",
"n. c #A8865B",
"m. c #B9825A",
"M. c #A5965D",
"N. c #9B886A",
"B. c #859A69",
"V. c #948A72",
"C. c #A98967",
"Z. c #B78765",
"A. c #A79476",
"S. c #B89574",
"D. c #B18E6F",
"F. c #85A46A",
"G. c #88B97C",
"H. c #95AF74",
"J. c #A4A665",
"K. c #AFA378",
"L. c #C8895D",
"P. c #CF935E",
"I. c #C78A63",
"U. c #C99369",
"Y. c #D59768",
"T. c #C79775",
"R. c #D79B76",
"E. c #D28D6A",
"W. c #C7A27B",
"Q. c #DBA579",
"!. c #DBA068",
"~. c #E6AB77",
"^. c #E9B57D",
"/. c #E3987B",
"(. c #82C17D",
"). c #727C86",
"_. c #7B8B91",
"`. c #7BBD82",
"'. c #79B884",
"]. c #78AB87",
"[. c #6EC982",
"{. c #6EC784",
"}. c #75C582",
"|. c #7BC382",
" X c #72CA83",
".X c #7AC28A",
"XX c #79C986",
"oX c #7CCC8C",
"OX c #988C87",
"+X c #8E8F8E",
"@X c #B09B8C",
"#X c #84BE82",
"$X c #88BB89",
"%X c #92BC86",
"&X c #88BB92",
"*X c #96AB92",
"=X c #B3A595",
"-X c #979CA4",
";X c #8C9CA8",
":X c #98A3A5",
">X c #97B2AA",
",X c #A6A7A6",
"<X c #A7B2B9",
"1X c #B8B6B3",
"2X c #C9A786",
"3X c #D7A887",
"4X c #DCB489",
"5X c #DAB697",
"6X c #C6B39B",
"7X c #E7AA84",
"8X c #E8B589",
"9X c #EABB95",
"0X c #F5B897",
"qX c #F5AF8C",
"wX c #D8B9A5",
"eX c #C6BBAD",
"rX c #CB9D83",
"tX c #81C183",
"yX c #83C48A",
"uX c #85C78A",
"iX c #89C593",
"pX c #BEC4B6",
"aX c #E9C696",
"sX c #F8C79C",
"dX c #D9C8BA",
"fX c #CEC9BD",
"gX c #FDCCA3",
"hX c #FCCAA6",
"jX c #FED4A4",
"kX c #FFD5AC",
"lX c #FEDBAC",
"zX c #F7D8A5",
"xX c #FEDCB2",
"cX c #FBD7B6",
"vX c #E8CDB0",
"bX c #FDE4B3",
"nX c #FFE4BA",
"mX c #FEECBA",
"MX c #FAEBB5",
"NX c #FCEAB4",
"BX c #B0BBC6",
"VX c #BCC5CA",
"CX c #C9D3D9",
"ZX c #D4D7D8",
"AX c #C9CBCC",
"SX c #ECD9CB",
"DX c #F9E4CC",
"FX c #D7DCE5",
"GX c #C6D3E3",
"HX c #E6E7EE",
"JX c #E0E4EC",
/* pixels */
"}.l.}.|.|.`.|.|.yX`.|.|.{.{.{.{.h.l.j.(.H.v.K Z r r ' ' ' ' r r ] ] r Z C J B.H.uXtXs.a.'.{..XoX{. X|.|.tXtXtX|.|.|.l.|.}.|.|.|.",
"}.}.}.}.|..X|.#X#X.X`.}.'.{.{.}.z.p.f.F.B.v.+.{ X.[ O.O.X.X.X.X.[ [ { } K / c.B.t.f.s.tX.X|.'.}.XX X|.|.|.G.G.|.k.|.}.}.}.l.k.|.",
"}..X|.|.|.|.|.|.|.`.`.`.'.}.`..XuXF.0.J J #.:.>.T.R.E.T.T.T.T.T.E.Z.>.>.n.$.+.J J 9.F.#X$X`.'.g.}.}.}.|.#XtX|.|.|.}.l.l.}.|.}.|.",
"|.|.|.|.|.|.|.|.|.|.`.|.|.#X`.G.F.9.J I K $.S.3X0X0X0X0X0X9X9X9XsX8X3XT.U.Z.&.} E / 9.F.G.#X}.j.}.}.j.|.|.|.k.|.|.}.XXl.l.}.k.|.",
"tX|.|.|.|.}.}.}.|.a.a.#XuX$XG.t.P / $.n.S.3X9XsXhXhXhXhXjXhXvXzXzXaX8X3X7X7X/.>.>.&.+./ F.G.(.k.|.}.}.k.}.|.k.|.}.|.}.}.|.|.k.|.",
"#X#X|.|.}.}. X X X}.`.#X%XH.B.c.} -.S.Q.9XsXhXlXhXcXkXlXxXlXlXlXzXsXaX0XqX0XqXqX7X>.@.^ c.F.(.(.k.l.k.XXl.}.}.}.}.l.|.k.|.|.|.|.",
"$X#X|.|..X X{.[.{.k.G.G.G.B.t.*.S.Q.8XsXsXgXlXbXcXxXnXbXnXnXxXlXbXzXhXgXhX0X0XqXqXR.m.$.P c.F.F.G.k.|.l.}. Xl.l.l.|.|.|.|.|.|.k.",
"$XtXtX|.}. X[.[.g.k.$XG.B.c./ #.Q.0XkXnXnXlXzXNXcXxXnXnXMXbXxXzXzXzXkXhXcXhX0XqXqX7XQ.n.| P c.H.G.yX|.}. Xl.[. X}.|.|.|.k.|.|.|.",
"$X$X`.|.}.[.[.[.}.k.uXF.P / A.2XsXjXlXbXNXNXMXMXzXbXbXNXnXbXlXkXlXzXlXlXjXjXjXsX0X^.W.W.M.x.| P t.#Xk.a. X[.h. Xl.|.|.k.tXk.|.|.",
"#X#XyX|.}. Xh.l.j.s.G.B.J #.W.aXzXbXbXNXmXNXmXMXMXbXNXbXbXbXlXjXlXlXzXzXlXlXjXsXsXaX4XQ.S.n. .I F.%XtXa. X[.h. X X|.|.tX`.|.|.|.",
"#X|.|..X X X Xl.k.G.G.b.^ #.2XxXNXNXmXmXmXmXmXMXMXMXbXbXlXlXlXjXjXlXzXlXzXzXzXzXzXaXaXaXQ.Z...G M.%X%Xk. X[.h.[.l.k.|.(.tX|.l.}.",
"#X|.|.}.}.}.}.k.(.G.F.c.^ :.8XxXMXMXmXMXMXMXMXMXMXMXbXlXlXlXkXkXjXlXzXlXbXzXzXzXzXaX4XaX8XR.;.} v.B.G.tX X[.[.[.}.|.#X#X(.|.l.}.",
".X|.}..X}.l.|.k.(.f.0.^ $.T.9XkXnXMXmXmXmXmXNXmXMXbXbXzXlXlXlXlXjXlXlXlXlXlXlXlXNXzX8X8X8X~.m.-.^ 9.F.$X|.h.[.[.l.|.tXG.tX|.}. X",
"|..X X X}.XX|.(.G.t.J K M.4XhXkXnXmXmXDXmXmXmXmXMXbXxXlXlXlXxXlXlXlXlXlXlXlXxXlXbXsXaX8X8X~.U.m.D J t.%X|. X[.h.|.|.tX#XtXk.}.l.",
".X{.|. X}.k.(.(.G.b.H D D.9XhXkXxXnXnXDXnXnXnXnXnXxXxXlXlXlXlXbXlXlXlXlXlXkXkXkXjXsX0X8X8X7XU.:.F J B.G.|.g. Xg.|.|.#XtXtXk.}.l.",
" X{.}..XXXXX(.(.(.t.J N C.3X0XkXzXlXnXnXnXnXDXnXxXxXlXkXlXlXlXzXlXbXxXxXkXkXkXkXsXsXqX8XqX7XU.m.F ^ B.%X|.h. Xg.k.|.tXG.tX|.}.[.",
"z.l.}..X.X}.}.|.&Xr.4 5 W A.7X0XSXSXDXSXcXcXcXcXcXbXxXkXjXjXjXjXlXkXkXhXcXkXkXgXsX8X^.^.~.qX/.,.} J B.%X`.XX{.[.}.|.tX#Xk.|.l.h.",
"z.z..X.X.X.Xk.k.iXr.k 4 %.OX3X0X5XwXvXdXvXSXvXvXvXcXcXlXjXjXjXjXjXhXkXcXcXkXhXsXsX^.^.^.~./.E.;.{ Q B.&X`. X{.{.}.|.#XtXk.k.l.[.",
"z.z.|..X.XXX}.k.s.i.~ _ OX@XrX3.3.OX@X=XeXwX6X1XvXMXbXlXlXjXlXjXlXjXkXcXhXhXsX8X~.^.^.~.Y.!.E.;.K Q B.%X`. X{.{.|.|.tXtXk.|.l.h.",
"z.z.|..X.X|.j.z.d.].u.+X,XrXrX3.%.1.OX1XAXAXeX1XZXdXdXvXvXjXjXsXjXjXhXhXhXhX0X7X~.!.~.!.P.P.L.>.D Q B.%X`. Xg. X}.|.tX#Xk.k.l.[.",
"z.k..X.X.X}.k.z.yX$Xy.u.1.N.S.C.<.` ,XAXZXJXZXZXAXAXeX6X5XwXwX0X9X8X8X9X0X0XqXqX!.Y.P.P.L.P.L.,.8 g 9.$X`.}.{. X}.|.tX|.|.|.l.l.",
"j.l..X.X.X.Xj.j.(.#X].u.` %.Z.n.^ <.OX1XZXZXCXCXCXVX1X=X@X2X5X3X^.^.3XQ.T.E.U.T.P.P.P.P.P.L.4.[ + : 8.#X}..X{.XX}.|.tX|.k.k.}.l.",
"l.l..X.X|.XXz.z.a.d.y.u.( %.Z.n.+.Q <.OX-X:X;X:XCXAXBX=XOX@XrX6X8X~.Q.I.,.@.[ [ 4.L.P.P.L.L. .e & s 8.yXa. Xj. X|.|.tXG.k.k.l.l.",
"j.}..X.XXXk.z.(.k.d.u.~ R ^ D.M.@.Q E ( <.+X_ ).VXAXAX-X+X2.@X6XQ.Q.Y.m.[ { r { ,.;.L.E.m.-.{ 7 2 k t.uX|.'.p. X|.|.|.|.|.|.k.l.",
"z.}.XX.X.X|.z.(.(.d.$X` 4 n C.K.Z.$.{ D E W W _ -X,X+X1.1X@X1.2.Z.Q.P.Z.Q.:.e w ' O.>.I.T.$.7 8 ! t.d.`.`.|.}.XX|.|.|.|.k.k.k.}.",
"l.|..X.X.X|.z.z.z.s.&Xq.5 p A.5XT.U.-.&.<.E Q R 1.1.W ` ,X,X1.&.m.P.;.;.2XZ.e 6 e ' >.I.Z.} ; 2 8.d.uXyX.XXX|.|..X|.|.|.k.|.k.k.",
"l.|..X.XyXk.(.z.k.iX>Xq.5 4 A.vX8X3XT.S.S.=.A i Q W Q W OXOX` <.m.L...-.rX3.a 6 e { 3.Z.+.b + = t.|.uXXX|.|.a.}.}.|.|.|.|.k.|.k.",
"l. X.X.X|.z.z.z.k.`.].) Y ( =XnXvXvX9X3X3XS.&.X.Q E A Q 2.2.%.&.>.;.{ { :.%.a 6 a { :.&.u 2 2 z i.'.|.'.'.`.a.k.}.|.}.|.j.k.|.k.",
"l.}..X.X.X|.z.(.d.i.q.) _.;XdXDXSXSXvXwXwX3XrX@X>.&.Z S 3.A.%.E ;.;.{ e a u q a a S S C - < ! y.p.{.XX`.|..X`.yX|.|.k.k.k.k.|.(.",
"z.j..X.X`.|.z.(..Xi.) ) >XVXfXfXHXDXSXdXwXwX3X5X7X>.X.[ &.&.&.X.4.4.{ e 9 9 u Q i a u 9 1 x y.iX{.{..X}.|.`.s.yX|.|.XXXX|.k.tXk.",
"l.l..X.X.X|.j.z.|.].) ) <X<X+X+XAXJXJXZXAXwX9XqX7XR.4.>.X.[ ,.>.L.;.{ e q u i Q A S 7 9 ( e.].iX{.oX{.{.|.`.d.|.|.|.j.|.k.|.k.(.",
"l.}.|..X|.|.k.k.d.'.q.) >X_.W _ <XFXJXJXSXdXwX9XqXrXE.;.,...>.I.4.,.S a a Q i i t u   1 t.$XoX{.{.{. X`.yX|.j.yX|.}.XX|.j.k.k.|.",
"|.}.}.|.}.k.l.k.{.{.) ! ) T R T ).-XVXFXHXSXAXwXW.!.m.m.4.L.I.>.&.a 9 9 i Q i p , O o < e.|.{. X X}.}.|.|.k.s.|.|.|.|.|.|.|.|.|.",
"|.|.|.k.l.l.k.|.].i.) Y Y R R T W OX-XBXGXZXAXeXK.K.P.P.E.I.;.@.S p @ $ t i t t O o o * r..X{.p.}.|.|.|.|.k.|.|.|.|.|.k.k.|.|.k.",
"|.|.}.l.|.l.k.|.'.6.4 * 4 R T _ ).+X_._.,XBXeXeX@XK.S.L.I.m.X.Z @ O     O # # %     o < 8.$XXXj.|.|.|.`.|.|.|.|.|.|.|.|.tX|.|.|.",
"|.|.|.|.}.z.l.|.{.6.x * 5 Y _ ` -X-X_.)._.-X-X-XV.C.-.n.:.@.r w % O O O $ $ $ $ $ ; + < ! y.#XyX|.|.`.j.k.yX|.k.|.k.|.|.|.k.|.|.",
"|.|.|.|.}.l.k.|.}.p.i.! * 5 _ -X<X<X-X).).).).).( E E +.o.a 7 % % % @ 9 p i B p i p 1 > g ~ u.#X`.|.|.k.|.|.|.|.|.k.|.k.k.|.|.k.",
"|.XX|.}.k.k.l.|.'.iX&Xu.Y x ) :XBXGXBX;X_.).) T B p 0 q w 9 @ @ w q u D ^ %.<.^ W Q p 1 1 3 ~ y.d.k.|.k.k.XX|.a.|.|.tX|.|.|.|.|.",
"|.|.|.}.}.l.}.|.a.yX'.].y.e.e._.GXGXGXBXBX;X).T R t $ % O @ u Q o.+.=.N.V.A.A.V.^ E B p t , 3 ~ i.a.tXk.s.|.|.a.|.|.|.|.`.|.|.|.",
"|.|.|.|.k.}.}.}.p.iX&X'.&X].~ q.GXFXGXGXVX<X).T p t $ O @ $ A %.=.C.A.A.C.N.2.<.Q A A B y > # l r.d.uXj.a.k.|.k.|.k.|.|.k.|.|.k.",
"k.|.|.k.}.|.l.|.p..X`.&XiXq.x Y BXHXHXHXFX,X).p # $ p i i Q %.<.S.D.=.K m 0 0 b @ u 9 9 p $ $ l r.|.k.s.|.|.|.d.|.|.|.|.tX|.|.|.",
"|.|.}.|.|.}.}.}.}.iX.X$X$Xw.c ! ,XZXFXFXBX1.T # # $ p i i Q ^ %.2.@.F m m q 0 7 9 0 @ $ t $ # 4 r.|.|.s.|.j.tXj.k.|.k.|.|.k.k.|.",
"k.|.|.k.|.}.}.|..X}.|..XtXd.w.q.+X-XZXAX*XW 4 O $ $ t t t y B m G e 7 8 G F F D A u @ @ 3 # X 5 7.j.|.|.|.j.uXl.|.|.k.|.|.|.|.|.",
"k.k.|.}.}.|.}.}.|.p.`.|.`.uXyXy.T ).VXeX_ 4 X # , , t y , 9 b 2 q 8 8 U K v.C.D.&.S q t 3 # . * 7.a.k.k.|.k.tX|.|.`.|.|.`.k.|.|.",
"k.|.|.|.XXl.}.}.}.p.|.|.p.|.|.w.k R *X*XM & & 2 n y B B b U I H U G F K K &.C.D.=.+.A u 1 . . s 7.k.k.k.tXj.yX|.|.|.|.|.|.|.|.|.",
"k.k.|.|.k.|.}.|.XXg.XXXXp.|.}.i.Y R u.( f & : n n V V D M h 5.5.I +.*.=.#.$.D.K.D.=.E B - X * Y i.|.j.|.|.a.|.|.|.|.k.|.k.|.|.k.",
"|.k.|.}.XX|.}.}. X'.l.XX}.|.}.s.e._ H x f h H H N J J M d b 5.5.I ^ #.v.C.S.W.3XrX3.%.m - * ! r.p.oXa.k.tXk.|.|.|.k.|.|.|.|.|.tX",
"|.k.|.|.|.}.|.|.|.a.j.l.k.j.'.$X&Xy.k = d M L J H J J N d j H 5.J K #.v.S.2X2XT.rXC.%.y X < e.&Xs.uXd.j.XXj.|.k.|.(.k.|.k.}.k.|.",
"|.k.|.|.k.|.|.k.XXk.|.XXa.a.|.|.$Xy.4 = : d N K K P #.I d d I 5.5.P P | C.rXrXrXS.%.^ n - k e.&Xd.|.XXl.j.j.z.z.k.k.k.(.k.k.}. X",
"|.|.|.|.|.tX|.|.|.a.k.yXk.a.yX`.&Xy.k & < b I P | #.v.P d : H 5.5.5.I | n.T.T.D.3.^ D y > 1 ~ u.'.|.XXj.g.g.l.z.z.s.(.(.k.XX X X",
"|.k.k.|.|.|.|.|.|.a.k.|.s.k.|.s.$Xt.k : b N K | | x.J.5.s = v 5.L P I { -.Z.3.>.o.E u ; , > 3 V f.d.`.XX{.a.j.z.k.(.(.(.k.}. Xl.",
"|.|.|.|.k.|.|.k.|.a.|.|.j.|.k.d.t.( g g N P x.x.| M.J.0.s = j v 5.I G G @.:.&.X.a a 7 + , - X & ! 8.].yX|.j.g.z.k.k.z.k.k.k.j.}.",
"|.|.|.tX|.k.|.|.tX|.|.tXs.|.s.i.M g b N P v.M.J.b.b.J.F.v s v H 5.I U U @.=.X.{ a u $ @ t , + - < c e.'.yX`.'. XXXk.k.k.k.k.k.k.",
"|.k.k.|.|.|.`.|.XXk.|.|.j.|.z.r.f 2 m J P $.x.v.| b.J.0.v j v c 5.U d b F +.S u t 9 @ # 1 3 3 1 X 5 ! w.'..X}.}.j.z.k.(.k.k.k.|.",
"`.k.|.|.|.|.|.k.|.k.|.|.j.uXa.w.f 2 D P F K I } | x.J.c.h j j h H z j d N D p 9 ; # # > 5 3 l 3 > & * ! r.'.{.g.XXz.j.k.k.k.k.k.",
"|.|.|.|.|.k.|.|.k.k.k.k.k.(.a.w.f - J ^ N U G K x.M.J.M.b j h h h h f d n n 1 ; > > < 3 < 4 V 3 3 # o * q.'.XX{.}.}.k.k.k.(.k.(.",
"k.|.k.|.|.|.k.|.j.|.k.s.|.uXp.i.* & & n N J / *.D.K.@XV.^ g < g z h f : - - - + > > l V l 3 3 3 3 > . * q..XXXp.}.l.j.k.(.(.k.k.",
"|.|.tX|.k.`.|.|.s.|.|.j.k.|.p.i.z g z V n n E ^ v.A.A.V.( m 1 < f f < : - + + ; , 3 3 V n R 1 1 X > * x r..X.Xj.}.}.z.k.k.k.k.(.",
"|.|.|.|.|.|.|.|.j.|.yXk.k.tXk.p.r.r.t.~ f - 1 n B D ^ ^ Q n 3 , < : < - - @ , , , , 3 3 4 , > + o 4 ! e.'.XXl.|.l.XXk.k.k.(.k.k.",
"k.|.|.k.|.|.k.|.s.|.|.k.k.|.k.d.$XiX$Xe.z < 1 < > > 3 n n l < > - : - - + + ; , > , , 5 # + + + = H r.'.$X}.j.XXj.k.k.(.k.k.k.l.",
"|.|.k.|.|.|.k.|.|.|.|.|.j.|.|.|.p.|.uXd.r.e.9.~ = & . & & & & & . & & X X X + - & 5 = & . o X & ! e.'.`.XXz.j.k.j.k.k.k.k.XXl.j.",
"`.|.|.|.|.|.|.|.|.|.|.|.s.|.|.|.p.g.tXtXG.%X$Xy.x < = = = * s k k x z x l l l z * k k * = = < z r.'.`.|.XXl.g.j.(.k.(.(.k.k.XX X",
"|.|.|.k.k.|.|.k.|.|.k.|.|.|.|.k.XXz.j.|.k.#XG.f.r.r.6.6.w.w.r.i.w.w.r.r.r.e.r.e.r.].i.w.w.6.r.r.d..X}.j.l.l.z.z.z.(.k.(.k.|.l. X",
"k.|.|.|.|.|.|.k.yXk.s.|.|.|.k.j.l.z.z.z.s.d.%X#X$X$X$XuX.X'.`.|..XXX.X'.&XiX&X'..X'.'.`..X#X#X`.a.}.g.p.XXl.g.z.z.(.G.k.|.l. X X"
};
