/* XPM */
static char *f3aa2e15ba624f519a985ebd998c0fb1PlYR97dJBywAR74p[] = {
/* columns rows colors chars-per-pixel */
"64 64 252 2 ",
"   c #0A0500",
".  c #180902",
"X  c #051800",
"o  c #181C05",
"O  c #1A1915",
"+  c #270C03",
"@  c #28160A",
"#  c #371A0C",
"$  c #351B18",
"%  c #2A1614",
"&  c #092903",
"*  c #192405",
"=  c #17380A",
"-  c #1A3514",
";  c #0E3415",
":  c #272808",
">  c #362709",
",  c #27360A",
"<  c #35350B",
"1  c #2A2715",
"2  c #372719",
"3  c #283817",
"4  c #373618",
"5  c #3A2924",
"6  c #313829",
"7  c #132E29",
"8  c #471C06",
"9  c #422819",
"0  c #453618",
"q  c #573518",
"w  c #4D2D0D",
"e  c #6D3617",
"r  c #4B3929",
"t  c #573727",
"y  c #4A3232",
"u  c #52322D",
"i  c #663B27",
"p  c #723D2A",
"a  c #26450A",
"s  c #38490A",
"d  c #294516",
"f  c #38471A",
"g  c #36531B",
"h  c #2B5411",
"j  c #354826",
"k  c #385828",
"l  c #394534",
"z  c #32593A",
"x  c #2B4B2B",
"c  c #386733",
"v  c #1A4417",
"b  c #494D18",
"n  c #6E441D",
"m  c #484824",
"M  c #554829",
"N  c #475725",
"B  c #555726",
"V  c #565135",
"C  c #754629",
"Z  c #645B2A",
"A  c #684737",
"S  c #744C3A",
"D  c #675636",
"F  c #7A5839",
"G  c #6F4E2B",
"H  c #5B652B",
"J  c #4E6F35",
"K  c #696837",
"L  c #756739",
"P  c #737539",
"I  c #6D6E2F",
"U  c #49641D",
"Y  c #3C3D42",
"T  c #443941",
"R  c #354948",
"E  c #50504E",
"W  c #795748",
"Q  c #6C534D",
"!  c #526F50",
"~  c #7A6D44",
"^  c #797644",
"/  c #6E6E50",
"(  c #5C5966",
")  c #5B6E68",
"_  c #6F706F",
"`  c #863C24",
"'  c #89391E",
"]  c #86562E",
"[  c #875A37",
"{  c #935736",
"}  c #8A6E3A",
"|  c #9B5A31",
" . c #885C46",
".. c #985C41",
"X. c #866947",
"o. c #986748",
"O. c #897948",
"+. c #96774B",
"@. c #876854",
"#. c #976C56",
"$. c #887558",
"%. c #997955",
"&. c #A77958",
"*. c #B77B57",
"=. c #A86F4A",
"-. c #957865",
";. c #8B776D",
":. c #A87A64",
">. c #C77C54",
",. c #769033",
"<. c #598F54",
"1. c #668858",
"2. c #798652",
"3. c #6D9157",
"4. c #5C9467",
"5. c #5E8569",
"6. c #678A67",
"7. c #679767",
"8. c #769968",
"9. c #698A74",
"0. c #749976",
"q. c #719076",
"w. c #69A56A",
"e. c #78A56B",
"r. c #74BC7B",
"t. c #7CBD7C",
"y. c #76B978",
"u. c #72B174",
"i. c #63A75D",
"p. c #6DC47C",
"a. c #6DCB7B",
"s. c #75C57D",
"d. c #7AC47E",
"f. c #74C87D",
"g. c #77C679",
"h. c #78C46B",
"j. c #868C37",
"k. c #888748",
"l. c #888956",
"z. c #968958",
"x. c #938F4C",
"c. c #A48759",
"v. c #B6845C",
"b. c #A19C5A",
"n. c #9AAC54",
"m. c #879A66",
"M. c #968B70",
"N. c #A88767",
"B. c #B88867",
"V. c #B5966C",
"C. c #AC9677",
"Z. c #BA9875",
"A. c #AA926E",
"S. c #84A36B",
"D. c #82BD7E",
"F. c #87B67B",
"G. c #8CAB75",
"H. c #A9A76A",
"J. c #BAA675",
"K. c #B1AE75",
"L. c #D58A57",
"P. c #D18B57",
"I. c #C78A66",
"U. c #CA936A",
"Y. c #D79667",
"T. c #C99875",
"R. c #D79B74",
"E. c #D08C65",
"W. c #E4986E",
"Q. c #D0A47B",
"!. c #E9A878",
"~. c #EDA874",
"^. c #82C17E",
"/. c #80C87F",
"(. c #757A88",
"). c #727B8C",
"_. c #807281",
"`. c #7A8B8D",
"'. c #7CBC84",
"]. c #78B984",
"[. c #7AAF84",
"{. c #6EC983",
"}. c #6BC785",
"|. c #75C582",
" X c #7AC382",
".X c #73C882",
"XX c #7BCA83",
"oX c #7DC38B",
"OX c #77C989",
"+X c #7DC892",
"@X c #5CC985",
"#X c #8D918E",
"$X c #AE9A8A",
"%X c #83BE84",
"&X c #83BC8B",
"*X c #89B887",
"=X c #94BB85",
"-X c #97A49C",
";X c #89B793",
":X c #8AB194",
">X c #B5A597",
",X c #9098AA",
"<X c #99A8AE",
"1X c #ACB0B0",
"2X c #C9A588",
"3X c #D9AB85",
"4X c #D2B390",
"5X c #E7AA85",
"6X c #E8B487",
"7X c #F4B989",
"8X c #EABC96",
"9X c #F6B894",
"0X c #F0AD80",
"qX c #CCB8AA",
"wX c #C69F80",
"eX c #81C284",
"rX c #84C38B",
"tX c #88C488",
"yX c #8DC292",
"uX c #B4C5BB",
"iX c #EAC699",
"pX c #F9C79A",
"aX c #F1C894",
"sX c #CFC9B7",
"dX c #FDCDA4",
"fX c #F9CAA5",
"gX c #FFD5AC",
"hX c #FEDAAC",
"jX c #F9D5A7",
"kX c #FEDBB3",
"lX c #FCD9B5",
"zX c #E8CDAD",
"xX c #FAE1AE",
"cX c #FEE4B4",
"vX c #FFE5BB",
"bX c #FDEBBB",
"nX c #FAE9B6",
"mX c #F8F2BC",
"MX c #EEE0B3",
"NX c #DDC192",
"BX c #9AAAC4",
"VX c #AAB5C9",
"CX c #BAC9C8",
"ZX c #BBCAD4",
"AX c #BBCFEF",
"SX c #D6CCC5",
"DX c #D4D9DB",
"FX c #C9CED3",
"GX c #F7E6CC",
"HX c #CCDCEC",
"JX c #DAE8EE",
"KX c #EEE3D2",
/* pixels */
"{.{.|. X XD.^.^. Xf.{.}.{.{.}.}.].].|.*X=Xm.L n n n ` n ` ` p ' ' ' p e e L m.=X=XeXeXs.].}.OX+X'. X X X|.|. X X X X^. X X|.|.f.",
"{..X|. X^.^.eXd.d.XX.X.X{.{.}.'.OX[.u.S.m.l.P G ] [ | | ........| ..{ ..[ O.%.m.8.u.D.tX X X|.|. X X X X|.s.|.d. X^.%X Xd. X.X.X",
"f..Xs. X XD.d.d.s.|.XX.X}.t.t. X=XS.1.K L ~ +.c.*.v.U.T.T.T.U.U.W.T.U.U.v.%.} L ~ / S.*XtXoX.X|. X X Xs.|..X|. X X^.eX^. X X|..X",
".X|. X Xd.^.d.d.s.s.XX.Xd.'.D.*XG.l.L D F +.B.Q.T.Q.6X9XiX8X8X8X9X8X9X8X3XV.#.[ L ~ 2.e.F.tX Xr. X X X.X.X.Xs.|. XeXd.eX X|.s..X",
"s. X X XeXd.|.|..Xs.s.d.eXtXG.G.~ +.%.N.I.T.Q.5X5X6XpXdXgXfXjXzXiXjXfXdX9X9XR.I.*.#.~ ^ 8.F.^.d. Xd.|.|..Xf..X|.d.eXeXd. X X|.s.",
"d.d. X X X X.X.X.Xp.r.d.F.F.m.l. .#.B.3X5X6X9X9X9XpXdXgXkXhXxXxXxXMXjXgXgXfX9X9X5XT.%.O.k.S.F.^.%X X X.X.X{.s.|. X Xd.eXd. X|.|.",
" X^. X^.d.|..X.X{.s.g.D.G.m.l.L &.*.R.5X5X9XpXdXdXdXhXhXxXcXcXbXmXnXhXhXlXfXfXfX9X9X2Xz.k.2.S.F.D. X Xs.{.{.f..X X Xd. X X X|.|.",
"^.d.d.d. X|..X{.p..X/.F.S.l.O.F I.R.5X9X9XpXdXdXgXgXhXhXhXhXcXbXnXnXhXkXlXfXlXfXgXhXpXT.l.^ l.G.F.eXd.XXf.{..X.X Xd.eXd. X X|.f.",
"^.^.d.d.|..X|..X|.r.F.S.P ^ c.v.Q.Q.NX7XpXdXjXgXhXgXhXjXhXxXcXcXnXnXxXxXcXcXcXcXcXhXjXiXQ.b.O.P e.tXeXr.|..Xp..X X X XeXd.d. X|.",
"d.d.d.d.|.|.|.|.|.'.tXm.P L v.T.!.!.aXaXdXhXhXhXhXhXhXhXhXxXcXcXnXxXxXxXnXnXbXbXbXcXnXxX4XV.O.L 8.F.d.y.|.{.p.XX Xd.d.eX X Xd.|.",
"g.d. X|.oX|.|.oX X%XF.m.L } I.6XNXNXaXjXhXhXhXhXhXhXhXgXhXhXhXkXhXcXnXnXnXbXmXmXmXnXbXcXjXQ.+.F m.F.%XeXXXs.r.p.|. X X X X X X|.",
"f.g.s. X|. X X XeXF.S.l.L +.Y.7X!.aXaXjXhXxXjXjXkXkXhXhXgXhXhXhXhXxXcXbXmXmXmXmXmXmXmXbXjX6X*.[ l.S.F.%XeXs.r.r. Xd. Xd.d. Xd.|.",
"f.f.f.s. X X'.%X%Xe.2.^ +.v.W.7X6XaXpXhXxXhXhXlXkXhXlXhXgXgXgXgXgXkXvXbXbXbXGXmXmXmXbXvXkX9XU.&.^ 1.e.F.D.t. X X X Xd.eX X|.f.|.",
"f.a.f.|. X XrX&X=X8.K K c.Y.~.~.~.aXpXhXkXkXkXkXkXlXlXlXkXkXgXgXgXkXcXGXGXbXbXbXGXbXcXkXhXfX3XB.K ! 8.F.D.d. X Xd. X X X X XXX|.",
"a.a.a.f. XoX%X*X*Xm.K K *.R.~.0X0X9XpXgXhXhXlXkXlXlXlXlXkXgXhXhXkXkXkXkXvXvXbXvXbXvXcXhXhXfX3XA.K / m.F.F.^. Xt.eXd. X X Xd.s..X",
"a.a.f. X X XeXrX*XS.K G *.W.~.0X!.9XpXfXgXgXlXlXhXlXkXhXkXhXkXkXkXlXkXcXcXvXvXvXcXkXkXgXgXiX2XA.B H 8.=XF.d.tXt. X X X X X|.|..X",
"a.f.d.D. X|.|.|.eXS.L F *.Y.~.!.!.aXaXaXhXkXlXlXxXjXxXjXjXhXhXlXlXjXhXkXhXcXlXlXMXMXhXkX8X4XM.( - x 5.;Xt.y.d.g.s. X XoX X|.|..X",
"f.d.eXeX XoX}.}.r.S.L ] >.L.~.~.!.!.!.aXzXjXlXkXjXjXjXjXjXxXhXkXlXgXhXgXiXNXMXSXsXNX8X3X4X$X#X_ l x 6.yXt.y.d.g.s. X X X X|.|.{.",
"s.d. X%X'.OXOX}.y.S.I ] *.L.Y.Y.~.~.7XNX8XaXdXhXjXjXdXdXjXjXhXjXGXlXlXzX4X>XqXZX1X$XN.N.Z.2X>X-X! ! 7.tXt.g.f.f. X X XoX X|.|.f.",
"f. X^.eX X|.}.OX^.S.Z C =.L.Y.L.~.~.~.!.6XaXpXpXjXpXaXpXdXjXjXzXzXzXMXzXqXuXFXZX1X-X;.#.:.>X>X>Xq.9.[.tXt.d.f.f.f. X XoX X X|.f.",
"s.d. X X X X|.|.eX3.< w =.E.E.P.L.L.L.Y.!.6XaX7XaX~.aXaXpX8X4X8X1XqXqXSXDXHXHXHXAX1X;.W :.Z.-.;.#X`.[.rX Xs.g.g. X X X'.oX X X X",
"|.d. X'.oX XOXOXt.1.: > ] *.E.P.L.L.L.P.E.E.U.U.Q.!.0X7X6X4X2X$X>X1XSXDXFXHXHXAXVX<X;.@.:.:.@._ q.0.u.'. Xs.f.g. X XeXoX X X X X",
"f.d. X XoX X|.'.y.3., @ n [ >.E.L.~.P.P.| | | =.I.U.5X6X4X$XB.#X1XCXDXFX_.BXBXBX).(.Q  .B.A.~ / ) 0.].].XXf.g.f. X XeXeXeXeX Xd.",
"f.|. X X|.|.oX XD.e.g , q G =.E.L.L.P.| ' n ] =.v.U.3X4X2XC.#X;.,XCXDX1X(.(._._.(.@.W ..B.N.Q Q ! 0.[.].rXf.g.f.d. X'.%X X XeXd.",
" XXXs.|. X XoX X&Xu.8./ < w o.I.L.>.| n 8 e *.T.T.T.wXZ.-.M.>X-X#X).-X$XQ Q _ Q Q  .=.*.6XN.6 l 5.:X&X].eXf.p.g. X XeX%X X X XeX",
"|.|.|.|. XoX'. XtXtXF.<.< > [ I.P.v.] n 8 e :.2X:.*.B.:.@.;.>X<X).) q.;.A A @.#. .&.>.U.8XC.6 7 9.:XyX].XXf.g.f.d.'. XrX%X X X X",
" Xf.f.|.|. X%X X XrX'.<.- o t #.B.&.] e 8 e :.2X#. .:.$X@.;.$X#X( E W F i ] -.B.T.T.!.6XzX$Xl 7 9.[.;X]. Xf.f.s.d. X X'.%X X Xd.",
" X|.|.|.|. XeXeXr. X|.4.k , 0 p &.=.G q 9 i #.#.{ ] :.Z.@.#._.;.E E D [ [ #.Z.wX3X6XaXdXlXqX) R 9.`.&X%XeXg.g.f.d. X%XoX X X Xd.",
" X Xs.{..X X X&X X|.}.}.4.! 4 8 i W A A u t p p p ` :.:. . ._.$XQ  .o.*.I.wX4XqX4XzXlXlXGXSX<X`.) 5.u.'. Xd.g.g. X X X X XoX|.s.",
"d.XX.X.X|. X%XeXOXOX@XOXOX5.4 + 9 p p A p i q 8 p ] *.*... .#.-...#.>.R.6X4XqXqXsXGXGXGXsXuXAXVX) 5.0.&X^.g.g.g. X|.oX X X|.|..X",
" X X.X.X|. X%X%X|.}.@X@X+X4.2 . + q t i W i i q e | =.>.B.#. . .=.>.W.5X9XqXsXFXJXJXKXsX$X#XVXBX5.) 0.rX Xy.f.g.s. XoXoX|.|.|.f.",
" X X|.|.|. XeX Xr.OX@XOX+X<.3 + + $ 8 u p p p p e ] ..>.I.*.o.=.>.W.!.5X8XqXCXHXHXJXDX1X( ( ,X`.`.6.0.yXd.t.d.s.s. X X X|.|..X.X",
"|. X X X Xd. X|.}.p.}.+X;X2.j         # r A A t 9 t S #.*.>.>.>.>.L.T.2XqXSXDXJXHX1X-X_ ( E ( ) ( 5.[.].&X Xd.g.f.s.f.|.|.|.|.OX",
"|. X X^.d.d.|..X}.p.].].8.! 6 . X     + 9 y y y + % 2 i o.>.>.L.Y.U.I.$XqXFXDXDX1X-X#X_ E E E R z ! `.].&X Xr.g.f.f.f.|.|. X|.oX",
" X X X Xd.d.|.|.}.}.'.w.! 3 1 @ .     . + @ % % . + @ 9 C o.>.E.E.B.V.>XqXCXVX<X#X`.#Xq.) E E R ; z 4.'.&X Xs.g.f.a.g.f.|.|.'.oX",
"|. X X X^. XXX.X{.|.OX4.x * 1 $ @ # $ $ 8 # # $ % @ . + 8 C o.*.&.&.N.$X1X1X,X_._ `.#X-Xq.( R 6 ; z 9.].rX'.s.f.f.g.s.s. X X XoX",
" X X Xd.d.d. X|.|.OX'.4.x o @ 2 $ 9 u u i i t r 2 % @ . + 8 n  . . . .Q _ _.).).`.,X1XuX:X) l 7 ! 4.[.+X+X].r.r.g.f.s.s. X X&X X",
"d. X X Xd.d.|.|.|.'.'.6.x o 1 1 y u A  .@.@.@.~ V A r 4 > # w w 8 u T E ( ( _.,X<X<XCXCX-X) R z [.[.].+X].}.s.s.f.f.d.d. X X X&X",
" X Xd.d.d.|.|. X X%X;X6.j 1 2 5 A Q Q @.:.A.C.N.M.-.$.Q A 9 # + # $ y E ( (.,XVXCXZXDXCX`.1.6.q.[.].].].|.|.|.|.s.d. Xd. X XeXeX",
"d. X Xs.d.|. X X].&X*X6.j O 5 y T A u W @.z.N.N.C.C.M.M.@.A 9 + % $ $ T ( (.BXHXFXHXJXuX9.! 0.;X].+X+X].OXoX|.s.s.s.d.d.eX XeX'.",
"eXd.s.d.|.f. X'.u.yX*Xq.r o 6 5 u y 9 9 0 b w b L @.$X$X-.@.Q u A y % O Y _ <XHXHXJXJXuXz v 7.rX'.OX X|. X|.|.s. Xf.d.d. XeXeX X",
"/.d.d.|.|.|. X X*X*X6./ 1 O 6 $ 5 $ > > w w w w n G #.-. .W W M u y % O 7 E #XVXJXJXFX-X! k w.'.oX X X X|.XX|.f.d. Xd.d. X XeX X",
"^.eXd.f.p..X|.eX*X6.k 1 . . 5 5 $ u u D L L I G w q i A t t M 0 2 5 % O O 6 ) <XDXDX<X0.9.7.u.h. X X X|.|. X X X X Xd. X X Xd. X",
"t. XXXs.p..X|.rX;X1.1       $ 5 $ u A ~ z.z.x.} e q q t t b 4 < 4 5 5 $ * * 6 _ CX1X9.! 8.F.^.h.d.|.|. X X|.|.s. X X|. X X Xd. X",
"^.d. Xs.{..X X'.yX6.r .   . % $ t A @.z.N.z.O.[ [ F A G D I U b m V M b , o * m 1X-XR 3 ! w.h.h.g.d.d.d.d.d. XXX X X|. Xd. Xd.s.",
"t.d. Xs.p..X|.u.8.! j 1 $ $ O $ A  .:.V.V.V.c.O.%.@.F L O.I U U B B B b N < 1 3 6._ 6 - J 3.h.n.g.d.d.s.d. X X X X Xf. X|.|.|.f.",
"t.^.g.p.{.OX].w.x 3 2 5 E A % $ i ..:.T.J.K.V.N.:.%.~ L 2.H h h B Z B U H H m f 6 m 7 x <.i.h./.g.g.f.d.d.d. X X X Xs.|.|.f.f.|.",
"g.g.f.p..XOXr.7.= o 1 u _ Q $ + i ..A.Z.Q.Q.2XZ.%.+.F L ,.J h h H I Z B I ^ V j > 3 O j ! <.i./.g.d.d.d.d.d. X X X|.XX|.|.|.|.f.",
"f.g.f.s.|.yX&X7.j o 1 r D A 2 8 p [ &.B.J.J.J.C.O.L } O.^ I s s I } P L L D 0 0 > o = g <.<.h.g.g.d. X X X X|. X Xs.|.d.|.f. X X",
"f.a.s..X'.rX*X6.3 o 2 r A S t i G X.+.z.A.K.H.z.I Z P O.k.^ H H P k.x.O.X.F G t 4 @ , g U i.h.h.g. Xd. Xd.|.d. X X X X X X X X X",
"a.p..XOX'.tX[.7.- o : 0 A W W o.o.%.%.k.l.l.l.,.b b I x.H.H.x.x.j.j.b.b.k.O.$.~ b > , g c i.h.h.g. X XXX X X X X Xd. Xd. Xd.|.d.",
"g.g.f. X XeX'.0.k 3 1 4 M W #.:.%.%.O.^ P ^ P H b b P z.K.K.H.H.x.,.n.H.l.z.H.M.M < = h U <.u.h.d. X|.d.d.|. Xd.|. X X|. X|. X X",
"f.g.f. X X XrX[.8.! 4 4 A W &.#.%.%.^ K H H U U < b P z.H.Q.H.H.,.,.n.K.k.x.K.M.M : , a k <.i.^.d. X|. Xd. X X|.|. Xs. X|. XXXs.",
"/.y.d. Xr. XrX'.%X6.j 4 t W :.#.+.L K H U N g h , s P z.H.K.V.b.,.,.n.n.P j.H.l.N < , , h <.e.^.d. X Xd. X|. Xd. X X X Xd. X X X",
"^.g.^.XX].|.oX X*X7.d : 0 W :.#.X.K H N g g a a s b P z.H.J.c.c.j.,.n.n.I I k.O.m < , d x J w.^. X Xd. Xd. Xd.|.d. Xd. Xd.|. X|.",
"^.t.^.eXp.p.|.].tX7.j , r Q -. .L Z N N U g a = , s P l.V.V.c.j.,.,.n.n.I I ^ ^ B f < d h J w. X X X X X X|. X X|. X|. X X X Xd.",
"D.eX^. Xf..X|. X Xy.0.! m 0 A ~ D Z N b k g v a k b M L +.c.=.+.j.j.j.} } } } ^ ~ H j = = c 4.|. Xd. X X|. X|. Xd. X X X|. X Xs.",
"F.^.d.d.|.|.f.|. X%XF.1.f : 0 M b B N g k h d d N B D K X.+.+.x.j.j.j.x.x.x.O.l./ N , = v <.w.|. X|. Xd. Xd. X X|. Xd.|.d. X X X",
"eX/.d.d.d.f.f.|.'.eXtX3.- X . * * , a v d v = 3 N V Z D K L X.O.} } j.+.l.O.$.^ B d & = c w.}.}.|. X X|.d. Xs. Xd.|.d. X X|. X|.",
"^.^.d.d.d.f.f.f.r.d.rX7.k = - 3 f a = & & & ; = x j m m M B K P } I } P ~ ~ K V , = = c i.}.OX}.|. X Xd.|. X X X X X X Xd. Xd. X",
" XeXd.d.d.g.g.s.s.t.'.t.7.<.7.6.6.J v & X & X X X o * * , a f g f m b m m j < * X - J 7.].OXOXs. X|. X Xd. X X X Xd. Xd. Xd. X X",
" X X Xg.d.g.s.g.XXs.'.oX].&X&X&X&X7.x ; ; v ; ; - - - 3 j k k k k k k N N j 3 = = z 4.'.rX X}.|. X X|. X|. X|.d. X|. X X X|.d.|.",
" Xd.d.d.d.g.g.d.d.y.r.|.].].+X].rX].4.5.4.4.9.9.q.6.6.6.0.w.w.w.0.0.0.0.0.0.6.6.1.7.].oXoX X|.OX|. Xd. Xd. X Xs.|.d. X|. X X X X",
"|. Xd.d.g.d.g.d.h.p.|.OX].].+X+X[.+X+X+X+X].;X;X-X:X:X:X&X'.'.'.&X;X:X*X:X;X;X;X;X&X&X'.].]..XOX Xd.|. X X|. XXX X Xd. X|. Xs. X"
};
