/* XPM */
static char *_f66b3dcdd9f4ca1f08812f02ae21292ktTG90IcRakulSke[] = {
/* columns rows colors chars-per-pixel */
"64 64 254 2 ",
"   c #051900",
".  c #161702",
"X  c #0D0B00",
"o  c #281903",
"O  c #381807",
"+  c #2B170E",
"@  c #192607",
"#  c #1A3509",
"$  c #1B3915",
"%  c #11310E",
"&  c #282906",
"*  c #352809",
"=  c #263508",
"-  c #292813",
";  c #372B17",
":  c #273816",
">  c #373617",
",  c #35380A",
"<  c #393327",
"1  c #2D312A",
"2  c #1D3B2F",
"3  c #482817",
"4  c #46381A",
"5  c #533A19",
"6  c #48290B",
"7  c #773B1B",
"8  c #453D25",
"9  c #553E2F",
"0  c #6A3927",
"q  c #421E00",
"w  c #164011",
"e  c #2A4616",
"r  c #36461A",
"t  c #375719",
"y  c #2B4C10",
"u  c #2B4724",
"i  c #394724",
"p  c #355828",
"a  c #344C2F",
"s  c #386724",
"d  c #396338",
"f  c #2E6119",
"g  c #444618",
"h  c #505019",
"j  c #6C441C",
"k  c #56631C",
"l  c #484525",
"z  c #564829",
"x  c #495827",
"c  c #585429",
"v  c #494734",
"b  c #584938",
"n  c #585637",
"m  c #4D5833",
"M  c #664728",
"N  c #675B2A",
"B  c #674C36",
"V  c #685738",
"C  c #765939",
"Z  c #764E2F",
"A  c #54662A",
"S  c #5B6739",
"D  c #4F702F",
"F  c #77662C",
"G  c #676639",
"H  c #77663A",
"J  c #777737",
"K  c #687234",
"L  c #6F641C",
"P  c #3D5F43",
"I  c #584D46",
"U  c #595349",
"Y  c #555556",
"T  c #4A504B",
"R  c #685447",
"E  c #765947",
"W  c #6E5850",
"Q  c #58724A",
"!  c #4F6C48",
"~  c #796847",
"^  c #697645",
"/  c #747644",
"(  c #776457",
")  c #696A50",
"_  c #555A61",
"`  c #5B666D",
"'  c #686868",
"]  c #6B7479",
"[  c #777778",
"{  c #746E6A",
"}  c #615F64",
"|  c #83391E",
" . c #865A37",
".. c #935938",
"X. c #87643A",
"o. c #8A6F39",
"O. c #A15C3D",
"+. c #895E47",
"@. c #876847",
"#. c #97674A",
"$. c #897A4B",
"%. c #96774B",
"&. c #896856",
"*. c #8A7555",
"=. c #977855",
"-. c #986C56",
";. c #AA7B57",
":. c #A87250",
">. c #8F7667",
",. c #A77C67",
"<. c #B17A68",
"1. c #A45E42",
"2. c #5B8438",
"3. c #538230",
"4. c #678539",
"5. c #74883D",
"6. c #5A945C",
"7. c #578B5C",
"8. c #698447",
"9. c #748746",
"0. c #67875A",
"q. c #718F57",
"w. c #5C9664",
"e. c #768D65",
"r. c #699767",
"t. c #779866",
"y. c #749B71",
"u. c #6C8D6F",
"i. c #78A46C",
"p. c #7AA975",
"a. c #6DBB78",
"s. c #74BD7C",
"d. c #7CBD7E",
"f. c #77B679",
"g. c #69A26B",
"h. c #6DC47C",
"j. c #6CCB7D",
"k. c #66C879",
"l. c #7CC475",
"z. c #75C57E",
"x. c #7BC37E",
"c. c #72C97E",
"v. c #77C476",
"b. c #6FD07F",
"n. c #86873E",
"m. c #898B44",
"M. c #898657",
"N. c #948557",
"B. c #94934C",
"V. c #A5845A",
"C. c #AF8F5A",
"Z. c #A8A45B",
"A. c #9C8566",
"S. c #879767",
"D. c #928976",
"F. c #A68568",
"G. c #B98A65",
"H. c #B8966C",
"J. c #A88C79",
"K. c #B8977A",
"L. c #AE9470",
"P. c #85A36B",
"I. c #82BC7E",
"U. c #86B57B",
"Y. c #8BAA74",
"T. c #B6AC67",
"R. c #AFA96F",
"E. c #9AA25A",
"W. c #CC915C",
"Q. c #C48C66",
"!. c #C99975",
"~. c #D59B75",
"^. c #CF956A",
"/. c #CAA77A",
"(. c #D7A479",
"). c #CCA66E",
"_. c #E6AB79",
"`. c #F2AC75",
"'. c #E29D6E",
"]. c #82C17E",
"[. c #88C07F",
"{. c #777C83",
"}. c #778088",
"|. c #7CBD83",
" X c #79BA84",
".X c #7AAF81",
"XX c #6DCA82",
"oX c #6BC783",
"OX c #75C582",
"+X c #7BC382",
"@X c #73CA83",
"#X c #7BC289",
"$X c #78C987",
"%X c #79CC8C",
"&X c #95989A",
"*X c #8D8E8F",
"=X c #B69A85",
"-X c #A9988D",
";X c #83BE83",
":X c #87B986",
">X c #97BB86",
",X c #87B293",
"<X c #B8A696",
"1X c #B7A789",
"2X c #989BA6",
"3X c #9AA8AC",
"4X c #B9ABA4",
"5X c #A9B2BB",
"6X c #B1AFB0",
"7X c #C29B83",
"8X c #D9AB86",
"9X c #DBB38A",
"0X c #C7AC96",
"qX c #CAB39A",
"wX c #D9B798",
"eX c #C8A78A",
"rX c #E5AC84",
"tX c #E9B589",
"yX c #E8BA93",
"uX c #F5B687",
"iX c #C7B9AE",
"pX c #E1BFA3",
"aX c #82C183",
"sX c #83C38B",
"dX c #88C688",
"fX c #8CC791",
"gX c #ECC499",
"hX c #F6C69B",
"jX c #F7CE9B",
"kX c #D1C4B5",
"lX c #E5C9AA",
"zX c #F9CCA4",
"xX c #FDD3A6",
"cX c #FED5AB",
"vX c #FDDAAC",
"bX c #F8D7A7",
"nX c #FFD5B2",
"mX c #FDDAB3",
"MX c #F8D8B7",
"NX c #E7CDB8",
"BX c #FCE1AE",
"VX c #FDE4B2",
"CX c #FEEAB5",
"ZX c #FEEDB9",
"AX c #FFF0BC",
"SX c #B1B9C3",
"DX c #BCC4CB",
"FX c #DAD3CB",
"GX c #C6CBD4",
"HX c #D0D0D0",
"JX c #E7DAD1",
"KX c #D1D8E5",
"LX c #DCE3EE",
"PX c #E6E8F1",
/* pixels */
"x.x.z.@Xz.c.OXOXx.].aX+X+XOXoXoXk.XX@Xx.>X>XR.D.H Z j 7 7 | | | 7 7 j j j F N.1X>XY.:Xx.OXoXoXXXk.h.z.+XaX;XI.d.+Xx.+X@Xx.x.+X+X",
"+Xx.z.z.z.@XOX+Xx.+XI.+X+XOXz.OXh.z.+Xf.i.S.M.M.X. .....O.1.1.O.O.......X.@.M.E.S.Y.U.:XOXOXXX%XoXXXx.d.I.aXI.aXaX+Xx.@X+X+X+X+X",
"x.OXx.@Xz.c.@Xx.+X+XI.x.x.x.z.OXI.I.U.P.9.G H o.=.:.;.G.Q.~.!.Q.^.Q.G.;.V.%.@.H G 9.P.dXdXd.s.+XOXOXOX+X+XI.d.;Xx.+X+X+X+X+Xx.+X",
"x.x.x.z.z.z.OXOX+Xx.d.d.d.d.d.d.P.S.S.M./ V H =.!.!.eXrXyXyXyXyXhXtX_.~.).G.%.H N K M.S.S.i.p.I.+XOXOXx.d.d.x.+X+X+Xx.OX+X+Xx.aX",
"OX+Xx.@XOXz.z.+X+Xd.I.].;XI.f.Y./ H H o.=.;.H./.yXyXgXzXzXbXbXbXxXjXhXhXhXtX/.H.V.M.H G G / E.fX].+X+X+Xx.x.OX+Xx.+Xx.+Xx.+Xx.+X",
"OX+X+X@X+XOX@X+Xx.x.+X[.;XU.i.q.H  .X.:.H.8XyXhXcXcXcXvXmXvXbXbXcXxXxXxXxXzXgXyX9XH.$.H H ~ M.S.f.x.+X+Xz.x.x.OXOX+X+X+X+X+X+X+X",
"+X+X$X+X@X+XOXx.x.x.[.[.U.P.q.H =.C.Q.~.yXzXxXjXnXBXVXVXVXBXBXBXcXcXvXvXcXxXxXzXgX9X/.H.F.N.o.H Y.s.x.$Xz.h.z.OX+X+X+X+XaXx.+Xx.",
"+XOX+X+X+Xx.+X@Xs.x.dXdXU.t.^ N G.~.yXhXxXnXvXvXcXvXVXCXZXCXBXBXvXxXxXvXcXvXvXcXvXxXzXtX).V.X.F P.f.d.+XOXh.h.OXOXz.x.+X+X+X+X+X",
"OXOX+X+X+X+X+X+Xx.+X].[.Y.S./ H T._.jXvXvXBXVXVXBXBXVXCXZXCXBXbXbXbXBXxXbXbXvXvXxXxXxXjX8XG.O.Z P.f.aXdXz.h.@Xz.OX+XaX+Xx.+X+Xx.",
"#XOX#X+X+X+X+XOXz.+X].Y.E.M.@.%./.9XbXCXVXCXCXCXVXVXVXVXVXVXvXbXBXbXxXBXBXbXvXvXvXvXcXxXgX(.V.o.M.t.I.aXz.XX@XOXz.+Xx.+X+X+XOXOX",
"@XOX#X+X#X+X+XOXz.aX].i.9.H =.H.gXjXVXCXZXCXZXCXVXVXVXVXVXvXcXcXBXbXBXbXbXBXvXvXvXcXcXvXxXtX^.=./ 9.P.;Xs.h.@XXX@X+XaXaX+X+XOXz.",
"#XOX+X+X;X#X+X+Xz.OX[.i.G C ;.(.gXBXCXCXCXCXZXCXZXCXVXvXmXvXnXcXbXBXbXBXBXbXvXvXvXvXcXvXcXhX~.;.V ^ t.I.+Xh.XXh.+Xx.].+Xx.x.@X@X",
"oX%X X#XaXaX+XOXz.v.I.P.G C ;.(.zXvXVXCXZXZXZXZXZXCXMXmXnXnXnXnXvXvXcXvXvXvXvXvXmXvXvXxXcXhX/.V.C G t.:Xd.z.h.h.+X+XaX].+Xx.@XXX",
"oX#X#X#X|.aX+X+X+Xv.[.P.G X.Q._.zXbXVXVXZXZXAXZXZXCXBXmXnXnXnXnXcXcXnXcXnXcXnXvXmXvXcXvXcXzX(.G.C ~ S.U.aXz.h.h.+Xx.aX;XaX+XOXj.",
"oX$X#X|.aX#X+Xx.@Xa.I.P.B ..^.rXzXxXvXBXBXZXZXZXZXBXMXmXnXnXnXnXnXnXnXcXnXvXnXcXvXvXnXcXcXxXrXK. .H S.>XaXs.h.c.x.+XI.aX+XOXXXXX",
"#X#X#X#X#X+X+X@Xx.s.;XS.V +.~.uXhXxXvXmXBXCXCXBXMXBXmXbXnXnXnXnXcXnXnXnXnXnXvXvXxXcXcXxXxXxXyX!.~ ~ A.>X;Xs.z.OX+X+X+XaXx.OXXXj.",
"OX+X+X+X+XOX@X@X@X XaXt.K H !.yXyXzXxXmXVXmXvXvXVXVXBXmXvXvXcXcXnXnXmXMXnXnXcXcXjXjXjXjXgXgXyXK.~ ) S.>X:XaXaX@Xx.x.x.x.@X@X@XXX",
"d.x.aXx.OX@X@XoX@Xs.sXt.c N H.rXyXyXgXjXzXbXbXmXbXbXbXbXxXcXcXmXnXnXmXMXmXnXcXxXBXbXjXjXtX9XwXL.V n D.>XU.aXdXv.z.z.x.@X@Xz.@X@X",
"x.l.x.x.#XOX@X$Xs.a.>Xq., h G.rXrXuXuXuXgXgXbXbXBXMXMXMXnXcXnXMXmXmXMXMXMXMXnXnXxXjX`.uX_.gXyXL.l > e.>Xd.aX$Xh.c.c.z.z.+X+XOXOX",
"x.].x.+XOXOXoX#XOXp.>Xe.& 6 ;.rX`.`.`.tXtXwXgXlXlXlXlXlXlXMXzXzXnXNXlXlXlXlXlXpXjXjXgXuX_._._.V.* * e.fXf.x.%Xk.j.c.z.x.OX+X+X+X",
"x.x.].+X+X+XOX#XsX:X>Xq.O O 1.~.`.`.`.uXtX9XqXqX1X<X<XqXpXpXpXwXyXwX0X0X<X<X0XeXgXgXyXuXrX_.'.%.* & e.dXf.+XXXj.j.j.c.+X+X+X;XaX",
"x.x.x.x.+X|.+X#X|.:XY.^ 3 0 1.'.`.`.`._./.eX1X1X4X6X4XqXqXqXqX0XqXqX0XiX4X4X4X<XeXeX8XtXtX(.^.:.6 4 ) P.f.OXb.XXj.j.c.x.x.;X;X;X",
"x.x.+Xx.+X+X;X;Xf.P.^ n M Z <.^.`.'.~.!.eX0XiX6XFXJXFXiX0X-X!.7XeX0XiXHXKXHXDXiX4X=XK.8XrX~.^.1.Z z R 0.p.+Xh.XXj.j.c.z.+XaXaX;X",
"+Xx.x.x.I.aXaX;X:XY.Q l C +.1.:.~.~.K.K.<X4XFXKXLXPXJXHX-X,.F.K.,.=XiXLXPXLXKXGXiX<X-XeX8X^.<.1.@.B c ! P.dXa.@Xc.j.OXx.x.+X;X;X",
"@X+Xx.+X+X;XI.U.fXt.S S *.@.0 0 ,.K.=XiXHXKXPXLXKXGXiX-X&.@.-.F.( { *X6XGXKXLXLXKXGX4X-X7X<.0 3 -.-.C ) S.f.dXx.c.c.z.x.OX+XaX+X",
"z.@X+X+X].+XaX;XU.t.m S D.*.3 3 &.*X-X6XSXGXKXGX5X2X*X&.+.#.G.G.&.( { *X2XSXKXKXGX6X4X7XJ.W 3 3 -.<.B n Y.>Xs.a.z.z.c.@X+X+X+X+X",
"@Xz.+Xx.].aX].;XI.r.u t -XA.O + I *X3X5X2X&X3X2X[ { R E @.G.'.).F.*.( W } {.3X5X*X2X4X4XJ.9 + + <.J.5 ; t.>Xf.dXx.x.z.x.+XOX$X@X",
"z.@X+X+Xx.x.].aXdXr.s u 0.( 3 ; T *X&X&X{.' {.[ I I B &.;.)._.).!.F.&.R I Y ` {.{.>.*X&X{.W 1 < &.>.l g t.U.x.dXx.x.x.x.x.+XOX+X",
"@XOXOXx.x.x.].].aXp.g.Q a : > v { [ ' ' ' } } R I C -.F.Q.~._._.^.G.,.@.R I W I W W &.>.{.{.T 1 ; m Q e.Y.|.aXa.x.x.x.x.+Xx.@XOX",
"@XOXOX+Xx.+X+Xx.x.a.fXg.p $ 1 i { { U I n R E E +.-.G.^.W.^.`.`.W.W.^.G.-.+.+.W W B I I { {.2 2 $ m r.fXd.s.fXv.x.x.aX+X+X+X+XOX",
"@X@XOX+Xx.x.].+X$Xx.aX.Xr.! u $ v R V V B C -.F.Q.!.~.~.^.).`.hX'.W.'._.^.<.<.-.+.R R 9 I T 2 2 ! w.f.|.OXh.%Xx.x.].x.].aXx.+X@X",
"oX@XOX+Xx.x.l.x.s.+XsX|.,Xy.u 2 r z B C  .#.Q.~.rX9XyXwX8XtXzXjX`.`.rXtXrXrX7X<.1. .+.R 9 < % P g.fX XOX%X@Xv.z.x.x.].].+X#XOX+X",
"@X@Xb.b.l.l.l.l.+Xs.#X#Xp.U.y.Q v z o.G.Q.^.'.8X/.K.kXkXFXJXiXJXMXNXNXlXR./.9X/.^.Q.G.@.5 g ) t.:X X|.#X@X@XoXoXx.+Xx.].+X+X+X+X",
"@X@Xl.l.l.l.l.l.+X+XfXsXy.r.r.Q r 5 X.Q.'.`.uXrXeX<XFXHXHXHXSXiXHXkXFXkX<X1XwX9XrX'.Q...5 4 Q e.0.u. X,X$XOXOX$XOXz.+Xx.+X+X+X+X",
"%XOXb.].l.].l.].s.|..Xu.P u i r & * j :.W.'.rXrXwXkXJXKXDX6X*X*X6XSXFXJXkXqX9X9X~.Q.1.7 O o , i i ! y.,X;X X+X$X+Xx.x.x.+X+XOX@X",
"#X+Xl.l.l.].].].dX.Xg.! u $ : < 4 5 7 ..1.:.!.7XqXFXFXDX&X{.' ' [ 2XHXFXkXqX/.H.;.:.+.0 q * * = & i ) y.:X;X|.x.+Xx.x.+XOXOXOX@X",
"#XaXx.x.l.l.].x.;Xg.! a 1 8 b ( ~ C Z Z .. .+.>.4XkXSX2X{._ _ } _ ] 2X6XkX<XN.+. ...+.+.C R b v ; ; i ! t.;XsXf.+Xx.x.x.OXOX@X@X",
";X|.l.].l.l.l.aX.X0.a @ < b +.,.,.A.=.#.+.Z 0 R -X5X&X}.` ` [ {.` ] [ *X6XD.~ M +.+.:.<.,.>.&.R b > - i 0.:XdXd.+Xx.+XOX@Xz.OXOX",
"aXaXx.l.v.v.OX#X,Xu.a + 3 I +.,.L.K.L.L.J.-.W ' &X}.` ` {.}.6X2X*X{.` [ *X*XW B ,.J.=X=X,.>.>.W V < : p 0.;XdXx.+Xx.x.x.OXOX@XOX",
"aX+Xx.z.c.c.@X#X:Xu.a . + 3 9 &.=.A.,.F.=XD.( ' }.}.` ` *X5XHXDX5X2X` Y e.>.( ( J.<.=X,.&.&.&.W b l i m r.dX#Xa.OXx.z.x.+XOXOXOX",
"#Xs.c.b.k.k.c.x.:Xu.a X X o O O 4 5 5 9 E >.*X*X' ` _ ] 3XDXLXLXSX3X{._ Y ( D.J.J.>.E z 3 3 3 3 - : Q p.f. X%XOX@Xx.x.OX+X+X+XOX",
"x.s.c.@Xk.k.@X+XfXu.v + o O o o o * * * 9 U ' { T Y T ] 3XDXKXLXGX3X{._ T W { >.) V 9 4 3 3 O +   : 0.,X Xs.OXh.@Xz.x.x.aXx.+XaX",
"+Xs.OXb.k.b.%XOX,Xu.v < ; 4 * o o & o o - < < v T U v ' &X6XGXGXSX}._ T T U b z l , * > 8 9 3 O . u r.fX#XoXXXj.@Xz.+XOX+X+XaXaX",
"+Xs.@Xj.k.XXOXf.y.) n b B B n g g r = @ - - - ; v v l U u.&XSX5X&X{.T v 9 9 > & & & & > N ~ V 9 - u ! r.f.OX@X@Xc.c.z.x.+XaXaX+X",
"+Xx.OXj.k.c.x.g.D v v n V G K K K x > , l v l l 4 , * 8 U *X5X5X*X} < + - ; & & & # = g K M.N.*.l > # p r.s.OXoX@X@Xx.OX+X].+XaX",
"sX|.z.z.j.x.d.r.r ; 9 B c n ^ 8.8.D e e m n n z M g 4 l b u.5X5X[ I < ; ; ; & & = = r k G M.N.F.B >   : 6.aX+Xa.z.c.z.z.+X+X+X+X",
";X X+Xz.v.$XU.t.l ; 9 V z h K 4.D x y e m n c c o.H H ) I { 3X3X} U b b B 5 , & y x D D S / %.N.E 9 + r t.>X+Xz.OXx.+Xx.+XOXOXOX",
";X|.+Xz.c.dXI.e.g * 9 N 4 g D 4.s t = e m n N F J o.N.$.n Q ,X:X) U S ~ R c g r t D 3.D D K J @.+.B 3 l e.:Xd.dXOXz.z.OXOX+X+X+X",
";XsX XOXz. X;Xq.v > z V c k D D t # # r S / N k J 5.5.8.5.5.6.q.4.4.4.J / K A t f s 2.2.4.L L X.@.@.5 l e.U.dXx.z.z.z.@Xx.x.aX;X",
"|.sXOXOXz.OX;Xr.m > 5 c h A 2.4.r = > g H M./ J m.m.5.5.5.5.5.5.4.4.4.5.K K k y f f 3.3.4.J L F #.#.z c G q.:XdXz.@X@X+X+XaX;XI.",
"|.#X Xj.OXOX:Xr.i & > l g k 3.2.r > l G N.R.G.C.Z.Z.B.m.B.E.E.E.n.5.L F F N h , y y s 3.2.4.k L %.-.C z r p r. XOXOX@XOX+Xx.[.[.",
"|.+Xx.OXz.OX;X0.e . * 4 g k D k r 4 V *.H./.T.).).Z.B.B.Z.T.T.Z.n.o.o. . .F j g w w f k D 3.k c @.&.E l @ # 6. X+X@XOXOXx.x.].I.",
"|.+Xh.OXz.z.;Xr.: . o l x x D t , 4 C =.K./.).).).Z.n.B.Z.T.T.Z.n.n.O.o.:.%. .c # # y f s D x k V E R z @ e g.sX+XOXOX@Xx.x.].].",
"|.$Xz.z.z.+X;Xr.%   . > r l h y & > V *.C.H.C.T.T.Z.B.n.B.Z.T.Z.B.n.o.n.N.V.$.C = # y t s s f x B E b v : u w. X+X+XOXOX+Xx.].x.",
"x.$XOXz.v.x.|.r.$     - = = y # @ & n H / %.m.C.T.Z.n.n.B.Z.Z.Z.9.4.J J m.*.~ G i = e e u t y r b E 8 - : p 6. X#XOX@X+X+Xx.l.x.",
"s.@Xz.x.x.x.;Xr.a @ @ - @ # = # & = z c N F F n.B.B.n.n.n.B.Z.Z.9.2.D A / / G c m > e e e f w = 8 I ; - 1 d r.fX#XOX@Xz.x.x.x.l.",
"OXOXz.h.v.x.d.;Xu.Q %   @ w $ # & l G ~ G N N F $.n.n.n.Z.R.R.E.2.D A k A V V c l r : # # $ w w a - . : ! p.:X X#XOXOXOX+Xx.x.x.",
"OXs.z.v.v.x.d.;X Xu.P 2 % $ # # - l V ~ C N H o.m.B.B.E.R.T.R.L.K K x c c z c z 4 > = = # # % % @ @ : T u.,XsX#X#XOXOXOXx.z.v.x.",
" XoXx.z.s.l.d.I.sX.Xr.! u w w # & 4 V @.*.%.N.H.R.L.R.L.R.K.L.=.M.@.C B Z V V Z V l = @           $ ! w..X,X#X|.$XOXOX+Xz.x.x.x.",
"OXOXx.v.v.x.x.d.sX.X Xg.d d s y @ o > b @.*.=.N.N.M.M.N.*.$.~ C X.C Z M z M M z b z i e w w w w $ d u. X:X#X X XOXOXOXOXx.x.c.x.",
"oXOXOXs.v.v.d.v.OX X#X#Xk.w.6.7.%   X , c V c 4 , = , = ; ; ; O 3 6 6 * * * * = & i Q q.r.6.6.6.7.r. X:XsX+XOXOXOX+X@Xx.c.x.x.OX",
" XoXx.x.l.l.l.v.OXOX$X$XoX@Xf.w.a 2 # i S ! x e # # # = $ $ - : 8 g l i l r t r e D t.:X:X|.|.+X X X#X#Xs.OX#X$XOX@Xz.@Xx.OXx.x.",
"oX Xx.s.v.l.v.h.h.@XXXoX%X].v.a.w.w.7.r.y.g.r.6.g.w.6.w.}.w.u.u.0.r.r.r.w.w.w.r.r.i.U.:X;X X|.+X+X+XOX Xz.OXOXz.@XOXx.@X+X@XOX+X",
"OXOXx.x.l.v.v.v.h.%X@Xj.@Xv.a.l.#X%X XsX;X|. X#X#X X X#X#X,X,X,X,XfXfX#XOXOXOX+Xd.|.I.aX;X#X|.+XOXz.$X$X$X@XOXz.OX@XOX@Xx.x.OX+X"
};
