/* XPM */
static char *_6b4d36be94e4104be8befd1c1adda66EdHvaXZGjDtcPo9h[] = {
/* columns rows colors chars-per-pixel */
"64 64 255 2 ",
"   c #0C0400",
".  c #060900",
"X  c #130B02",
"o  c #180805",
"O  c #091703",
"+  c #181609",
"@  c #1D1A15",
"#  c #1E0C12",
"$  c #270A07",
"%  c #380E05",
"&  c #27180A",
"*  c #361809",
"=  c #2C1D14",
"-  c #271916",
";  c #371B16",
":  c #2B0C12",
">  c #17280A",
",  c #1C2816",
"<  c #1B3719",
"1  c #152E0A",
"2  c #27270B",
"3  c #32250D",
"4  c #2C241B",
"5  c #2C2C1C",
"6  c #252718",
"7  c #33231B",
"8  c #3B241B",
"9  c #382818",
"0  c #263718",
"q  c #37341B",
"w  c #2C340F",
"e  c #321E21",
"r  c #2D2A23",
"t  c #292626",
"y  c #332C24",
"u  c #3D2C23",
"i  c #372928",
"p  c #2A3725",
"a  c #3B322B",
"s  c #383627",
"d  c #3B3734",
"f  c #363534",
"g  c #45190B",
"h  c #451C17",
"j  c #541D16",
"k  c #43241B",
"l  c #442C1C",
"z  c #4C2B1C",
"x  c #492717",
"c  c #562A1A",
"v  c #46341C",
"b  c #58371C",
"n  c #4A230D",
"m  c #68341E",
"M  c #632B1A",
"N  c #451B22",
"B  c #432C23",
"V  c #492926",
"C  c #572C27",
"Z  c #44332B",
"A  c #4B342C",
"S  c #443B2C",
"D  c #4B3B2D",
"F  c #483525",
"G  c #5A3324",
"H  c #53342B",
"J  c #533B2D",
"K  c #5C3A2D",
"L  c #583627",
"P  c #433432",
"I  c #453A34",
"U  c #4B3C34",
"Y  c #4C3D3A",
"T  c #483936",
"R  c #543B33",
"E  c #5C3C33",
"W  c #583837",
"Q  c #522C32",
"!  c #633B2C",
"~  c #673628",
"^  c #753A2A",
"/  c #663937",
"(  c #763A39",
")  c #662D29",
"_  c #2F471D",
"`  c #2A4625",
"'  c #374627",
"]  c #355229",
"[  c #394734",
"{  c #385834",
"}  c #2B522C",
"|  c #376639",
" . c #1D441B",
".. c #48462A",
"X. c #5A442D",
"o. c #494638",
"O. c #574538",
"+. c #455935",
"@. c #57593A",
"#. c #40512D",
"$. c #6A4329",
"%. c #76462C",
"&. c #64443B",
"*. c #6C423C",
"=. c #684737",
"-. c #774838",
";. c #66543B",
":. c #795236",
">. c #4B663B",
",. c #3F3D40",
"<. c #4C3E44",
"1. c #793A42",
"2. c #6D3B46",
"3. c #3D6645",
"4. c #484845",
"5. c #594A45",
"6. c #5A5447",
"7. c #555859",
"8. c #4F554C",
"9. c #684A43",
"0. c #764746",
"q. c #695649",
"w. c #7C5344",
"e. c #765748",
"r. c #695B54",
"t. c #775B55",
"y. c #7A4A54",
"u. c #486845",
"i. c #576949",
"p. c #58724A",
"a. c #597654",
"s. c #4C6E4E",
"d. c #676346",
"f. c #746449",
"g. c #686659",
"h. c #756357",
"j. c #667C5A",
"k. c #707654",
"l. c #6F5E63",
"z. c #586866",
"x. c #766765",
"c. c #6F746E",
"v. c #843C38",
"b. c #864A3A",
"n. c #88543B",
"m. c #97573B",
"M. c #84432A",
"N. c #AA5A3A",
"B. c #883B47",
"V. c #884649",
"C. c #875747",
"Z. c #975A49",
"A. c #845A57",
"S. c #975D53",
"D. c #924953",
"F. c #A15E47",
"G. c #89634B",
"H. c #9A6449",
"J. c #896657",
"K. c #9A6A54",
"L. c #946B5B",
"P. c #9B6C5B",
"I. c #976557",
"U. c #987159",
"Y. c #A7684A",
"T. c #A36B54",
"R. c #A46C5B",
"E. c #A96957",
"W. c #B26C5A",
"Q. c #AC735B",
"!. c #A7745A",
"~. c #B3745B",
"^. c #BC7C5C",
"/. c #B77858",
"(. c #B46F4C",
"). c #896965",
"_. c #946A66",
"`. c #9A7366",
"'. c #8D7673",
"]. c #AA6D63",
"[. c #A97766",
"{. c #B57A63",
"}. c #AC766D",
"|. c #C47C5B",
" X c #C67D57",
".X c #C67D4F",
"XX c #C37C60",
"oX c #5B8F59",
"OX c #65865C",
"+X c #6F8B5B",
"@X c #5C8F63",
"#X c #688B65",
"$X c #758968",
"%X c #6C946B",
"&X c #679768",
"*X c #74976B",
"=X c #6A9873",
"-X c #769A74",
";X c #768675",
":X c #6AA26D",
">X c #77A26C",
",X c #6CA473",
"<X c #79A877",
"1X c #6EBD78",
"2X c #74BD7C",
"3X c #7BBE7B",
"4X c #77B77A",
"5X c #5DA166",
"6X c #6CC678",
"7X c #74C47C",
"8X c #7BC37C",
"9X c #73CA7C",
"0X c #79C679",
"qX c #68C06C",
"wX c #5CCB7C",
"eX c #BD815B",
"rX c #839674",
"tX c #878A75",
"yX c #BC8264",
"uX c #B88367",
"iX c #AE8068",
"pX c #85BA7B",
"aX c #85A774",
"sX c #C48154",
"dX c #C2815B",
"fX c #CA815A",
"gX c #C5804F",
"hX c #C38364",
"jX c #81C479",
"kX c #9A7E84",
"lX c #7CBC84",
"zX c #7AB985",
"xX c #75B382",
"cX c #788A82",
"vX c #6BC783",
"bX c #75C482",
"nX c #7CC383",
"mX c #74C983",
"MX c #7CC389",
"NX c #7AC987",
"BX c #74D18B",
"VX c #8D8D87",
"CX c #A68B90",
"ZX c #86AA85",
"AX c #83BC84",
"SX c #82BD8A",
"DX c #8BBB8B",
"FX c #87B686",
"GX c #91B294",
"HX c #A3A89F",
"JX c #82C384",
"KX c #83C38B",
"LX c #85C688",
"PX c #87C192",
"IX c #91C495",
/* pixels */
"6X9XnXnXMXMXzXzXGXrXX.k l o.%XMXvXwXvXBXBXzXDXGXHXtX6.u 8 B B 8 B k B B k q S o.$XGXIXpX8X7X6X9XvXvXLX-XO.3 Z O.VXDXzXzXMXNXjXjX",
"mXvXbXbXMXlXbXzXaXc.X.z l #.&XlXBXvXvXvXzX4X>X-XrXk.6.X.D R R J K K E E R R X.6.tXrXrX>X4XnX9X9XvX9XpX*X..9 F o.c.-XzXlXMXnX3XjX",
"BXnXlXbXnXMXzX<Xi.@.A F 3 ' %XlXmXlX8XLXDX-Xp.@.f.f.q.;.e.w.w.e.w.w.w.C.e.:.e.q.h.d.>.p.>XpXAXLX7XmXpXOX..9 F o.o.j.-XFXJX3X3X8X",
"NX7XbXnXSXzX=XOX..S F F 2 ` -XSXnX<X>XaX-X+X;...;.f.J.P.L.K.K.K.K.R.R.P.I.I.J.J.f.;...@.$X*X*X>X4XLXDX#X' 4 S o.s u.j.=XFXjX3X0X",
"3X2XbXNXlX,Xp.o.X.J J D > ` *XZXIX*Xp.>.>.d.f.f.G.K.[.{.^.Q.{.{.XXXXW.W.W.E.R.]._.J.e.q.k.d.@.>.>XAXIX$X..w s O.Z ..o.i.*XAX3X0X",
"3X3XNXKXlX%X@.v =.&.D ..' u.<XaXrXk.@.X.;.:.H.U.!./.yXhXhX|.|.|.XXXXXXXXW.{.W.R.].].L.G.f.;.X.@.OX>XGXrXu.' S U O.O.F +.*XLXnX7X",
"AXJXNXMXzX#X;.z *./ l ..a.-XZX-Xd.;.d.f.G.K.U./.eXdXdX XdXfXsX XXX XXX XXXXXW.W.E.}.].I.P.J.e.q.@.p.*XZX$Xd.o.u 9.*.L X.+XFXJXmX",
"AXAXlX2X>Xj.=.C V.( ; o.$XZXVXj.O.;.:.G.U.eXeXhXdXdX X XfXfXgX.X X X X X XXXW.W.W.{.[.R.[.[.I.A...#.+XZXZXc.O.7 9.( ) &.k.<X4XmX",
"lXpXNX,Xs.' K ) ( ) * S rXrXi.o.O.0.J.U.!.{.eXdXdX XfXfXsXsXgXsX X.X X XfX|.W.W.W.E.].].].].`.J.;.@.#.p.rXtXU ; / ( ) / o.>.1XbX",
"JXJXlX&X>...! ( v.( C O.x.j.o...;.w.L.[.U.Q.eX/. XfXgXsXgXsXsXsX.X.XfXfX|. X~.W.W.W.].].].}.].L.e.;...o.k.g.R Q ( ( ( ) S +.=X1X",
"nXJXJX&X] q K ( B.V.=.O.;.o.s D e.A.`.iX!.T././.|.sXsXsXsXdXdXsXgXeXgXfX^.^.~.E.].].].}.].].[.I.t.9.D Z o.5.2.9.B.B.( K v { &XbX",
"bXMXPX*X+.v K ( V.D.C./ &.H l L =.e.U.[.T.T.Q.(././.^.eXdXdX{.XXeXsX|.dX^./.~.Q.~.E.W.E.T.!.].I.e.*.A A R / 0.V.V.D.( / s { =XMX",
"bXMXPX*Xo.l K *.V.V.V.b.-.*.E K z ! G.`.K.H.Y.F.(.(.(./.{.XX{.{.eXeXdX{./.~.W.R.Q.T.K.K.S.T.!.I.! C C W 2.2.0.B.D.D.( E q { -XPX",
"vXNXFX$X..l L =.0.0.B.B.V.V.0.) g C C.R.T.Y.Y.Y.Y.(.Y.(.W.W.{.XX^.^.~./.Q.E.T.E.E.I.R.R.T.E.T.H.x h C 0.y.D.V.B.V.V./ W q o.-XFX",
"vXnXFX$X..v H O.&.*.B.D.D.D.-.C * b G.[.Q./.~.(.Y.Y.Y.Y.E.E.].W././.~.E.T.T.S.T.T.T.W.{.Q.Q.(.C.j h ) y.B.D.D.B.B.1.) H y +.*XZX",
"vXnXLXrX@.F S O.W / V.D.D.V.( C n z :.U.~.yX|..X(.Y.F.Z.F.E.].].W.Q.(.T.Y.Z.Z.F.T.T.{.uXyXuX!.C.V ; C 1.1.D.D.D.( / H S s { -XDX",
"8XLXlX<X<Xa.s 6 Z W y.D.2./ W V * V :.K./.eXeXsXeXQ.(.R.T.E.].E.(.Y.Q.{.F.Z.E.{.^./.eXeXyXuXT.C.z ; h C 1.y.V.y.Q Q 4 s OX<X4XSX",
"3XLX3X3XSX@X` + = N / 2./ Q Q e $ 8 =.G.Q.eXeXeXeX/.!.R.S.S.].E.!.K.T.R.S.Z.E.~.uXyXuXeXuX[.Z.*.h * ; V Q 2.2.Q V 7 @ ` OX4XzXlX",
"0XjX3XlXMX@X ..   o N Q Q Q e : o ; K C.K.eXeXeXuXiX[.P.C.C.S.S.[.K.K.S.D.C.R.[.{.uXuXiX[.U.C.*.; ; : h V Q V N $   . 0 #XAXnX7X",
"8X8X8XnXMX=X{ 1 o o $ ; : : : # o = Q =.:.n.H.iX}.[.[.J.9.( A.).`.U.L.C.-.0.L.`.[.[.[.K.C.:.( / h * : : : : : $   X , { &XJXbX1X",
"0X0X7XnXMXzX=Xa.[ 6 # o     # # : i V V n n %.H.I.L.).t.E W t.).`.U.).e.E / t._.`.L.C.=.c h j C 8 = $ o o o o   6 s i.*X4XNXnX6X",
"0X6X0X7XbXMXzX-X} , @ # o o # # f P A k * % n G =.9.t.q.W Y 0.J.J.J.J.q.Q W y.t.q.=.G x g % h N A u - # o $ - + , [ #XDXAX8X9X9X",
"0XqX9X7X1XMXzX#X< , p p i t t e <.W A C c c n * * B W 9.T R 9.e.e.e.r.9.Q W 9.&.g % % n c C C ) W Y u - - y s p > ` &XAX7X0X9X9X",
"6XqX9X9X7XLXzX&X{  .p f f i f T 2.Q C ) -.^ n $ $ $ A 5.A H O.-.;.=.-.&.H W W H $ $ $ n / B.) C <.Y P i i f [ p < } &XJX8X0XmXqX",
"6X6X9X0X7X3XzXzX=Xs.< O p f f a P V C ) -.C.b.~ $ % ; J O.=.=.=.$.%.:.&.&./ A h $ % b :.S.b.) ) A P i y p , , ` OX&X4XlX8X7X9X6X",
"9X9X6X0X0XnXnXlXAX&X3. ., 6 t Y V C ~ ^ b.n.:.%.% % k R q.:.:.G.n.C.C.C.e.9.W l % * m :.C.b.M.) V Z a a y , < { =X,XlXnXnX9X6X6X",
"9X9X0X0XnXnXnXKXSXzX=X3.p O - P x ~ -.-.^ ^ ~ ~ g x K =.e.G.U.U.T.!.U.U.I.t.*.K z c b ~ ^ ^ v.V.Q S y 6 , 0 >.%XxXlXJXnX7X9X0X6X",
"9X9X7X0X3X3X8XlXzXzXxX=Xu.p 6 8 V / C.n.^ m M ) L / 9.e.G.U.iXuXeXuXuX[._.J.e.9.! b b m m M.v.Z.&.A = > p 4.$XIXFXSXnXnX2X0X0X0X",
"mXmXnXnXpXnXjXnXlXMXSXZX-X6.5 * G =.S.S.n.w.w.w.0.0.t.A.L.`.iXuXyXuXuX}.}.).t.t.X.=.:.:.C.Z.Z.D.9.A 3 s d.$XZXDXAXKXnX2X2X7X8X2X",
"lXMXnXnXLXJXJXnXNXxX5XoX#Xi.9 & J :.G.L.L.I.I.J.A.x.x.t.J.U.U.T.~.W.Q.`.).).t.h.t.J.J.L.I.T.S.A.0.H & 5 d.+X%X=XzXAXLXMX8XnXnX2X",
"bXbXlXKXAXpX3X4X2X5X| | +.' 9 * O.9.G.L.L.L._.).'.'.A.y.q.w.C.n.C.m.C.A.t.y.t.x.tX`.).G.S.I.S.S.w.H & & _ +.| s.:X4XnXJXnXnXnXlX",
"NXMXMXSXFX<X>X:X>XoX_ 1 w 3 3 3 K 9.t.J.J.'.).).CXVXx.5.E =.=.~ ^ ~ ! 2.2.5.5.r.VXtXtX).).L.I.w.0.X.z 3 q w  ._ OX%X4XAXlXnXnXnX",
"2XNXzXzXIX-Xu...@.$.$.b b b v b G E &.r.x.h.g.l.HXVXc.5.A A G G G c V F F T 7.l.HXCXc.7.l.).t.0.W G l x l ..v v ' @.rXDXKX3X7X6X",
"8XMXbXxXcXs.f 8 c $.:.n.n.%.$.b x L R 9.r.z.7.z.VXc.r.5.S A H L ! K K O.A P <.7.cX'.l.7.y.l.9.W C ) $.$.:.:.$.v l D g.$XZXNXBX6X",
"0X8XbX:X3. .5 5 G %.H.Y.Y.n.%.b G L V R 6.5.4.d 7.4.4.A A &.0.w.:.w.w.e.9.O.I <.8.8.o.T 5.9.W K m ^ m.H.H.G.%.b z 9 S i.%XlXNX6X",
"0X3XxX5X} 1 w 9 ! -.H.(.(.H.n.%.! C k B Y <.f f f ,.Y <.q.A._._.I.K.P.J.e.5.O.I P T P Z <.W T ! M.m.Y.(.(.Y.m.b.$.z q o.s.=XzXbX",
"jXjXjXoX .O O & c %.Z.(.(.(.H.C.! C % & u P d T <.5.r.t.).`.}.}.}.{.iX[.`.J.g.q.5.O.I u Z v B b m.N.(.(.(.Y.F.Z.-.~ V a ` s.,XzX",
"jXjXjX>X| < > . 3 b n.Y./.W.F.n.G k $ o - = = i a <.q.t.A.)._._.R.R.`.L.J.h.r.q.T Z 8 = = * ; c M.N.(.(.N.N.m.M.( K Q r > ` =XMX",
"0X0X0X4X=Xs.1 X & n $.Z.Y.F.v.) z l * o & X   + # = Q Q / *.-.*.! ^ ! ! ! R A u & & X X $ & & n M M.m.Y.m.%.m M j N V - O < @XSX",
"0XjXpXAXGX#X0 . + 3 z ^ n.V.^ ) 8 7 = & #         # e i V Q C C C G G H H A a 8       X X X X * % M %.:.%.c n g g h e - O < @XGX",
"0X9XxXzXIXcXp . X o * x G C j j & & & 4 5 4 & +   X 7 D U O.9./ &.E 9.9.O.Y Z - o   + @ 5 7 - + - 7 9 B 9 * ; h h : = & . < oXFX",
"mXLXzXxXcX3.t O X + = 9 k h N e - 2 6 s s [ r 6 X + 4 Z H O.O.R &.W W 5.O.Y d - + . @ t d Z y t @ @ - - 4 7 B H W V u + . < OXLX",
"6XBXPX=X3.t , t T U o.T A Q V i = 6 5 ' o.8.[ q - + 4 y u S D S W A P Y P d y @ @ @ t ,.8.4.d i t t t , 5 a o.5.5.Y d @ .  .oXjX",
"vXlX=X3.p @ @ f Y o.O.U P i i i 5 5 s o.6.6.5.S s 7 q s q a U D P i Z T a i f t i p o.7.g.7.d i t t t t r s I R 5.<.P r < { 5XJX",
"6X5X{ 1 O # - ; ; 8 a a i e t t y y s o.d.g.q.@.@.O.6.O.S o.O.6.P Y 5.5.T T o.5.5.8.6.r.g.5.a 7 t i = - & 3 9 8 5.5.I [ p.&X4XnX",
"8XoX .O @ ; N h ; ; 9 q t t t - y q S O.q.g.h.t.r.h.h.q.O.o.6.r.U 5.r.q.O.O.r.h.h.r.h.t.q.U B ; Q H z * * * x V W P y +.%XSXzXbX",
"jXoX_ > 9 C C ) C k 9 & @ + +   = 7 u R 9.q.e.r.e.q.r.q.D o.6.6.A O.q.6.U O.q.f.r.e.q.q.O.F k x :.n.%.M n M $.-.l ; + p =XSXMXvX",
"jX&X] 3 x ) / ( ( ~ l = 2 , , , - = u S O.;.9.;.q.;.q.9.D D O.O.I D O.O.S F O.;.q.;.=.O.F x k x C.H.m.^ M m -.C.z ; X t #XSXMXvX",
"pXaX+.w v n m ( V.C.$.v 2 0 p.a., # + t u u 9 V X.O.O.A t 6 t p y 6 4 y 7 q H D J L l k 9 n l K Z.H.Y.n.^ m m ^ ! A 2 _ +X3X2XmX",
"FX-X+.w x x ^ b.F.Z.-.X.2 ' OXOX< @ . @ = = ; k z F Z q t < d 8.o.o.4.o.7 4 B A H H k * * 3 l X.G.H.H.n.^ M M j K L 3 _ &X8X2XmX",
"FX*X#.3 9 b -.Z.V.b.! v + ' %X$Xp @ X @ = = ; 9 B A S a t ,.z.cXVXcXcXg.d 4 u T A A k ; ; n l $.%.:.n.%.M M j j =.J 2 ] &XjX0X0X",
"FX%X_ 2 * x C.S.( ~ c 3 + ' %X%X' t 6 7 u y ; 7 u Z a y f 4.c.HXGXGXHX;Xo.r i Z u u ; ; B B k z b $.%.m j g j c K v 2 _ +XAX8X0X",
"GX+X0 O X * =.*.-.b x w > ] %X$X[ p 5 a S Z 8 = & 4 t t t ` 7.cXc.c.c.z.f t t i = = = ; V V : $ b b b b g g x G b 9 2 ] +XpXjX7X",
"DX%X{ 1 . X v b v 9 & 2 _ >.*X-X8.4.a d T T Z u a P Y <.,.4.7.z.z.z.z.8.,.t f t i e ; i U V & $ 3 v x n % % V E v q _ >.:XjXLX7X",
"SXxX#X>.> + q v 9 w + w s.%X4XxX-Xg.[ s a o.5.6.l.).x.c.c.c.c.z.c.7.8.,.,.,.<.f d d a P Y a - - & 3 9 3 3 q S ..q #.p.*X<XjX0X0X",
"lXPXSX-X] 1 ] ....+.< ] -XzXPXGXGX$X{ 6 5 o.r.h.'.VXCXCXCXVXkXl.7.,.,.,.f <.4.T Y <.P d d p t p _ q ' q q q q 0 _ +.*XDXjX8X9X9X",
"zXMXzXxX>X%X%X%X%X#X%X*X4XlXMXzXGX&X} 1 > , o.6.t.).kXCXkXkX).t.i e # : P <.<.<.d f p t , , t < j.$X*Xa._ 1 1 _ p.*XFX3XnX9X9X6X",
"vXbXMXMXzX4XFXDXDXpXzXzXlXMXvXzXzX&Xs.{ } [ s S q.t.).'._.).A.9.: # o : e i a f f [ [ { } } [ 3.-XZXZX%X3.} } | &X4XnXMX7XmX9X6X",
"vXvXNXNXnXnXLXKXLXLXMXMXNXMXBXzXbX4X=X&X#Xa.[ 6 f Z H / 2.2.$.L : : # o o + X O , } a.=X=X=X=XxXzXSXPXzX:XoX@X:XlXnXNX7X6X9XmX6X",
"vXMXbXbXbX2X2X7XnX2X2X6XbXvXBXvXbXlXbXSXDX=Xu.' q 5 9 F &.9.b b Q e $ - 6 6 0 < ` s.=XDXIXSXzXGXlXlXnXMXlXlXlXnXnXnX8X7X6XmXmX6X",
"bXbX7XbX7X7XmXnXnXmXbX7XbXbX7X7X7XbXbXLXKXZX%Xa.' q w ..@.f.$.b F 5 > _ i.OX#X#X&X,X4XlXlXzXnXLXMXnX8XlXJXnX8X8XnX8X7X9XbXbX7X7X",
"bX8X8X8XnX8XnX9XmX8X8X0XbX8XnX8X7X9X2XnXJXSXpX<X>.{ +.p.+XiX+X>.>.{ ] u.=XDXPXKXlXnXlX3X8X7XlXnXNXnX3X8X8X8X8X3X8XnX8XnXmXMXbX7X",
"JXjX8X8X8X0X7X0X0X3X0X8X8XjX8XNX9X7X7X2XlXJXJXFX>X*X>XaXaXaXaXaX>X&X&X:X4XlX8X3X7X7X8X0XNX0X8X8X3X3X2X8X0XjX0X0X8X8X8XnXnX8XnXnX",
"pX0X3X8X8XjX8X8X9X0XjX8X3X0XpX0X0X9XNX7X2XnXJXpXLXpXpXpXpXpXaXpXLXKXKXKXMXbXbXNXmX9X0X1X1X0X0XjX8XjX8X0X3X3X3X3X3X0X3X8X8X3XlXJX"
};
