/* XPM */
static char *_d854a0cc7e84f0cb81753933e44b0cekqsnADSNeH9cdUd1[] = {
/* columns rows colors chars-per-pixel */
"64 64 248 2 ",
"   c #375F13",
".  c #2D5E03",
"X  c #3C6C01",
"o  c #386C07",
"O  c #3B7506",
"+  c #396B15",
"@  c #387216",
"#  c #2F6C0F",
"$  c #3E7927",
"%  c #475916",
"&  c #426A05",
"*  c #437301",
"=  c #457A01",
"-  c #4B7D02",
";  c #46760A",
":  c #4B7C0B",
">  c #4B7509",
",  c #447512",
"<  c #4D7B14",
"1  c #437B1D",
"2  c #487918",
"3  c #537D12",
"4  c #587B18",
"5  c #567510",
"6  c #627D1A",
"7  c #53592D",
"8  c #5A662B",
"9  c #457A24",
"0  c #597627",
"q  c #5D6938",
"w  c #5E7A3C",
"e  c #626B26",
"r  c #67673B",
"t  c #6E6F36",
"y  c #776944",
"u  c #677745",
"i  c #79744A",
"p  c #7D7C52",
"a  c #6E6C43",
"s  c #876B4A",
"d  c #82724E",
"f  c #8B764E",
"g  c #936F51",
"h  c #8E7251",
"j  c #877954",
"k  c #937354",
"l  c #987657",
"z  c #93724E",
"x  c #A47A5E",
"c  c #4C8301",
"v  c #4E830C",
"b  c #4A8503",
"n  c #528505",
"m  c #548A02",
"M  c #598E06",
"N  c #52850D",
"B  c #548A0B",
"V  c #5A8E0A",
"C  c #58860A",
"Z  c #5C9304",
"A  c #5D930C",
"S  c #5B9A04",
"D  c #4D831D",
"F  c #4A8316",
"G  c #538514",
"H  c #558A13",
"J  c #5A8D14",
"K  c #54831C",
"L  c #5A841B",
"P  c #5B8D1A",
"I  c #588817",
"U  c #5D9213",
"Y  c #5C931B",
"T  c #58951B",
"R  c #62960C",
"E  c #649B0D",
"W  c #669807",
"Q  c #648B16",
"!  c #639514",
"~  c #649B14",
"^  c #6A9D11",
"/  c #62941C",
"(  c #669C1B",
")  c #689C1D",
"_  c #6A951F",
"`  c #6B960D",
"'  c #69A40A",
"]  c #6CA214",
"[  c #6CA31B",
"{  c #68A616",
"}  c #74AD14",
"|  c #73AA1C",
" . c #75A91A",
".. c #7BB415",
"X. c #75B31C",
"o. c #7CB51A",
"O. c #7BBB1E",
"+. c #79B513",
"@. c #72AE0D",
"#. c #4C8526",
"$. c #578A27",
"%. c #5C9323",
"&. c #589628",
"*. c #548C32",
"=. c #4E933E",
"-. c #5B9435",
";. c #5A9837",
":. c #4A8535",
">. c #668B25",
",. c #639522",
"<. c #649C23",
"1. c #6A9D23",
"2. c #689829",
"3. c #719F27",
"4. c #679836",
"5. c #739637",
"6. c #5CA03D",
"7. c #6CA323",
"8. c #6BA827",
"9. c #72A523",
"0. c #74AB23",
"q. c #78AE23",
"w. c #73A52E",
"e. c #74AA2B",
"r. c #7DAF2A",
"t. c #7CB423",
"y. c #7DBA24",
"u. c #7DB32A",
"i. c #78B327",
"p. c #65A433",
"a. c #69A537",
"s. c #75A837",
"d. c #7AB533",
"f. c #7BB736",
"g. c #5A9C4A",
"h. c #639845",
"j. c #7A8357",
"k. c #678D51",
"l. c #69A848",
"z. c #72AB47",
"x. c #77B448",
"c. c #67A856",
"v. c #71AD59",
"b. c #77B759",
"n. c #6EB046",
"m. c #799963",
"M. c #6F9860",
"N. c #74A765",
"B. c #6CB467",
"V. c #7CBC65",
"C. c #7DBD6B",
"Z. c #75B766",
"A. c #6EBD74",
"S. c #6DBE7A",
"D. c #68B575",
"F. c #74BD74",
"G. c #7BBD72",
"H. c #74BD7C",
"J. c #7BBD7B",
"K. c #77B578",
"L. c #74A968",
"P. c #7CC26B",
"I. c #79C469",
"U. c #6DC37C",
"Y. c #68C677",
"T. c #76C474",
"R. c #7BC374",
"E. c #76C37D",
"W. c #7AC37C",
"Q. c #7CC97C",
"!. c #78CB7A",
"~. c #7ED17F",
"^. c #83BD1B",
"/. c #86B91C",
"(. c #82B70F",
"). c #82BC24",
"_. c #84BC2B",
"`. c #83B927",
"'. c #84BB32",
"]. c #85BB3B",
"[. c #8ABD3D",
"{. c #83B734",
"}. c #87C51E",
"|. c #85C22C",
" X c #8BC42B",
".X c #8DCA2B",
"XX c #89C724",
"oX c #92CB2B",
"OX c #89C436",
"+X c #93CB3A",
"@X c #99D538",
"#X c #96D32B",
"$X c #A5DD3A",
"%X c #888155",
"&X c #83BD4A",
"*X c #8C9165",
"=X c #87A667",
"-X c #82BC6A",
";X c #81B965",
":X c #88A974",
">X c #95AB7A",
",X c #85B47B",
"<X c #8BB57D",
"1X c #84BA7E",
"2X c #89B97F",
"3X c #93B47D",
"4X c #98BA7E",
"5X c #87C143",
"6X c #96CA46",
"7X c #9ED846",
"8X c #AADE58",
"9X c #83C26D",
"0X c #88C869",
"qX c #83C474",
"wX c #89C972",
"eX c #82C47B",
"rX c #83CA7D",
"tX c #8ACB7C",
"yX c #87C876",
"uX c #93CE77",
"iX c #73BE80",
"pX c #7BBF83",
"aX c #7CBE8A",
"sX c #75B785",
"dX c #7BBB91",
"fX c #6FBD83",
"gX c #6EC680",
"hX c #75C482",
"jX c #79C381",
"kX c #75C983",
"lX c #7AC985",
"zX c #76C38A",
"xX c #79C28A",
"cX c #7CCA89",
"vX c #79D088",
"bX c #7CC492",
"nX c #82BE81",
"mX c #8BBC82",
"MX c #8AB780",
"NX c #96B885",
"BX c #A3B585",
"VX c #82C383",
"CX c #84CA82",
"ZX c #88C789",
"AX c #95C38A",
"SX c #84D289",
"DX c #85C996",
"FX c #91CA91",
/* pixels */
"jXjXjXjXjXjXjXjXjXjXjXjXE.kXE.jXjXjXE.!.T.T.T.T.T.T.W.W.xXxXzXdXzXjXhXhXjXE.E.W.W.T.W.W.W.R.W.W.W.jXjXjXjXjXjXE.jXjXjXjXE.jXjXjX",
"jXE.jXjXjXE.E.jXjXjXjXjXjXjXjXjXhXhXhXE.!.T.T.T.T.R.W.E.jXhXxXzXhXkXhXhXjXjXE.!.W.W.W.R.W.W.W.W.W.W.jXjXE.hXjXjXjXjXjXjXjXjXE.jX",
"jXjXjXE.jXhXE.jXhXjXjXjXjXjXjXhXaXzXzXzXjXhXE.!.W.T.!.E.W.W.W.W.hXjXhXhXhXjXE.W.W.E.W.E.W.W.W.W.jXjXjXjXjXjXjXjXjXjXjXjXE.jXjXjX",
"jXjXjXjXjXjXjXjXE.jXE.jXjXjXjXhXzXzXzXzXaXhXjXhXE.W.E.R.W.W.W.W.hXzXhXhXhXhXjXjXjXE.jXE.W.W.Q.jXjXjXjXE.jXjXE.jXjXE.kXE.jXjXjXjX",
"jXE.jXE.jXjXjXjXjXjXjXjXjXjXE.jXhXzXzXgXhXzXzXhXjXjXjXW.W.W.W.W.jXjXpXjXpXjXhXhXhXjXhXjXjXjXjXjXjXE.jXjXE.jXjXjXjXjXE.hXjXhXE.jX",
"jXjXjXjXjXjXjXjXjXjXE.jXjXjXjXjXE.!.!.hXjXjXzXxXxXxXjXjXjXW.W.W.jXjXjXjXhXhXhXaXjXhXaXjXjXhXhXlXjXjXjXjXjXjXjXE.jXjXjXjXjXjXjXjX",
"jXjXE.jXhXjXjXE.jXhXjXjXjXjXjXE.!.I.T.T.jXhXxXaXaXaXxXaXnXpXjXW.jXjXW.jXpXjXjXpXzXhXhXhXhXhXhXhXjXhXjXjXjXjXjXjXjXE.jXjXjXjXjXjX",
"jXjXjXjXE.jXjXjXjXE.jXE.jXjXE.!.I.I.T.T.E.jXjXxXxXaXaXaXaXeX1XW.eXR.qXW.W.jXjXjXpXhXaXzXhXhXhXhXjXjXE.jXhXE.jXjXjXjXE.jXjXjXjXE.",
"jXjXjXjXjXE.jXE.E.jXlXlXjXpXH.E.T.T.W.W.W.H.sXjXH.FXCXT.R.9XI.wXv.P.P.uXT.R.Z.jXjXlXpXH.zXhXhXhXjXjXjXjXjXjXjXjXjXjXE.jXjXjXjXE.",
"hXjXE.jXjXjXjXhXlXjXH.jXjXlXjXjXhXaXiXjXiXpXnXZXF.C.P.b.x.p.p.n.;.;.=.l.c.yXeXCXW.jXjXiXlXlXhXhXjXjXjXjXjXjXE.jXE.kXjXjXjXjXjXjX",
"E.jXjXjXjXjXjXjXlXjXE.E.jXjXlXlXdXdXdXDXDXZXJ.Z.b.h.6.p.8.{ | '.a.p.&.&.;.V.9XqXqXW.J.E.jXlXjXE.hXE.hXE.jXjXjXjXjXjXjXjXjXjXjXjX",
"jXjXjXE.jXjXjXjXH.jXjXjXjXW.H.sXDXDXdXsXK.nXeXwX0Xp.<.8.X.O.^.} |.f.f.d.p.p.b.wXyXG.R.W.E.Q.W.H.jXjXjXjXjXE.E.hXjXE.jXjXjXE.jXjX",
"jXE.jXjXjXjXjXjXH.jXlXjXE.E.jXjXsXdXaXnXeXwX0X0Xs.T 8.y.).oX.X} y.t.'.OXd.&.a.I.wXG.eXrXT.E.Q.E.E.jXjXjXjXE.jXjXjXjXjXjXhXjXjXjX",
"jXjXjXjXjXjXE.jXE.lXjXH.H.jXZXlXK.J.VXqX9X;Xx.a.b B U E W  . XoX).+.). Xf.P D &.-XV.yXrXZ.F.CXT.E.jXjXjXjXjXjXjXE.jXjXjXE.jXjXjX",
"jXjXjXhXE.jXjXjXjXlXjXE.H.lXE.B.!.0Xl.&.&.p.f.5X7.9.{ m - n / r./.(./.} q.U H 1 n.c.Z.R.B.B.!.T.E.jXjXE.jXjXjXE.jXjXjXjXhXjXE.jX",
"jXjXjXE.jXjXjXjXH.jXjXW.jXW.B.g.&.&.p.T T 8.d.d.'.e.( ( w._ I 3.W @.(.W ] E 8.T <.&.n.x.;.l.I.Z.W.W.W.jXjXkXjXjXkXE.W.E.jXjXjXjX",
"jXjXjXVXW.jXjXjXfXkXkXF.B.P.0X&XT e.7.OXOXOX] 0.'.[.0.r.w.P ,.I b U A S S = ' i.O.|.|.i.X.8.7.T 9XCXW.W.kXzXkXkXhXE.W.W.J.jXjXjX",
"hXhXjXjXJ.jXjXhXgXcXkXQ.tX0Xn.x.7.i.0._.i.q.Z Z X.q.R ~ U N J N Y w.8.b S m }..X}.XX.X).O.i.| 7.x.qXW.W.kXkXgXgXE.E.W.R.W.jXaXxX",
"hXjXxXpXjXjXjXxXS.hXD.T.yXb.F a.OXq.~ E Z ^ ^ ] ^ E m Z U V ) 7.e.5Xd.b S { @X@X.X.X.X.X|.|.y.d.4.N.1X!.zXgXgXgXE.!.W.W.pXjXjXxX",
"hXjXjXjXnXjXjXjXkXkXkXQ.I.I.D e.OX] Z W M ] _._.R A M E [  .t.'.d.5Xi.b U i.+Xy.|.y.y.|.|.y.i.d.*.g.R.E.kXgXzXkXE.E.W.W.eXjXjXxX",
"jXjXjXjXW.VXjXjXvXS.vXQ.g.v.4.8.^ Z } `.y.`.{.| E R ]  .t./.o.t.t.0.[ b ~ [ 0.{ X.i.i.i.i.| [ 8.#.:.qXH.lXgXgXkXE.W.W.R.jXjXjXjX",
"jXjXjXjXJ.jXjXjXzXD.lXT.=.*.z.,.Z Z /.OX+Xu.[ V V V | `.|. X..o._.| ] b ~ { { [ 8.{ 8.| [ { ~ U #.$ qXR.lXhXzXhXjXW.W.W.W.pXjXxX",
"xXjXjXpXpXjXjXxXcXzXlX!.b.#.z.P M W t.t.[.7./ J B n [ `. XoX(.^..X|.OXZ A A U ( T ( ( U U ( { Y $.@ eXF.jXhXkXgXhXE.W.1XjXpXjXxX",
"jXjXjXVXW.jXjXjXhXkXF.T.tX# &.: c S 0.[ [.<./ / J H 0.`._. X@....X+X7XE A B b J v T J v B 1.8.2.&.@ qXG.lXhXkXkXhXE.W.W.jXjXjXjX",
"hXhXjXjXW.jXjXpXxXhXE.G.C.#.; X - ~ ! ! w.2.; ; G ,.e.0. .X.....OX+XE E ) - - J : N H H I U / ( #.#.qXC.W.U.hXkXhXjXW.J.jXjXjXjX",
"zXjXjXjXJ.VXVXjXhXxXCXCXwX*.2 : B 7.1.,.2.G o ; P %.<.( ~  .).).t._.^  .{.B = N = : : v : H J ,.4 -.uXR.W.zXkXhXjXjXW.eXW.jXjXjX",
"zXjXjXjXW.jXVXjXiXlXlXeXC.1 , ; G 1.3.,.%.; X K L Y / U A ~ |  .n M m 0.[.( - n C C : * X X X ; K 4.uX-XF.jXzXU.lXjXJ.W.jXjXxXhX",
"hXjXjXjXJ.jXaXjXxXjXW.F.N., , > I ,.<.,.G X X P I / 1.1.~ A A R m ^ q.6X8X6X{.].&X{.w._ : * X ; 2.4.V.qXT.E.zXiXjXjXjXW.W.W.jXhX",
"hXhXjXjXjXpXpXjXlXjXJ.G.-X#.0 G P P P P N X * H N ( 0.e.) A B M * C [ 9.`.{.`.e.6X[.{.w.,.K I $.z.4.h.yXeXjXhXxXjXjXVXjXW.W.jXjX",
"hXhXjXpXJ.eXjXaXxXjXjXeX-X*.< & : - N J J B V ) A ! ) ) A B V ( - B ) A V 9. .q.9.[ 1.1.,.I 3 4 s.$.#.9XCXH.hXcXxXjXJ.W.W.W.hXhX",
"hXzXhXjXjXnXjXjXjXjXjX-X-X0 < > X - U 1.9.q.u.u.[ E M m n B ~ e.1.H ( Q M E W  .E R ! w.3.P < , >.K 1 C.W.H.iXhXjXjXjXW.W.E.jXE.",
"hXjXjXjXjXjXjXjXjXxXW.G.-X-.4.w.- V 0._._._.|.o.).{ m b m R 0.'.6X[ e.9.! V - R V n Q 3.3.$., O K $.1 C.R.jXcXpXxXjXjXQ.W.E.jXE.",
"jXjXjXjXhXhXhXhX!.rXR.b.0X$.s.v A ` |.oXXX#X@X+.O.O.S S @.XX#X' ../.|.OXe.T F G 5 2.4 >.5.4 & 2 4.#.1 b.P.rXA.lXkXhXhXjXjXW.W.W.",
"nXjXaXjXjXgXhXhXU.!.qXI.uX;.x.P ^ (.$X$XXX}..X}.O.@.' y.O.+.#X#X}.^.y.y.8.&.D 2 4 Q 6 2.2.3 F ; $.#.-.V.yXW.H.lXhXkXhXhXjXW.W.W.",
"W.jXpXjXhXhXgXkXA.Q.Q.P.0X6.z.$.)  . X X}.+.}.|.O.S S .X@XXXXX#X}./.} | [ T F : > > > 3 > : >.@ 1 #.v.qXtXT.E.kXhXhXhXjXW.W.W.J.",
"pXW.jXjXzXhXzXhXE.Q.!.I.0X;.;.O / [ ] ' } +. .o.S S { OX@X+XXX@./...] E { Y N * & * & & * I 2.&.9 g.-XP.CXF.lXcXhXgXhXhXW.W.R.W.",
"W.pXjXjXhXhXzXhXkXE.E.C.wXc.;.@ ,.w.[ ! ^  .^ ` O V u.[.u.y.X.' (.` W R <.7.B b * ! - - 1.p.a.p.h.v.tX-XVXF.cXhXhXhXkXjXjXW.W.W.",
"W.eXjXjXhXhXhXhXhXE.H.Q.CX-Xv.-.D %.<._ ! ! ! V B c ) 0.0.[ E ] ` ` V Q ( <.U b n _. .3.&Xd.p.l.C.qXCXJ.J.H.hXhXzXkXkXjXW.W.W.R.",
"W.jXjXjXjXzXhXzXjXH.W.W.rXCXG.Z.*., F %.G N I L 2.& 3 ,.1.1.A ~ Q Q Q 3 J T H b B d.].f.d.2.n.b.yXZX1XW.pXjXiXjXhXhXhXjXW.T.W.R.",
"W.W.jXW.hXhXhXhXxXiXlXjXJ.VXJ.yX9X9 # $.K < L Q 4 & >.2./ _ C _ 6 6 4 < F G v O V 0.&X5X&.&.b.wXJ.VXF.VXH.cXiXxXzXhXjXjXW.W.W.W.",
"W.W.jXjXjXhXzXhXjXzXjXpXjXaXjX1XtXc.9 1 1 , , 2 2   0 >.5.> >.5 e 6 0 & @ + . F &.T 8.p.z.b.I.eX1XW.jXaXjXxXhXzXhXhXjXhXE.E.W.W.",
"W.jXW.jXjXhXjXhXhXzXxXhXjXjXpXjXG.N.c.V.wXb.*.2 9 o 0 0 4 % 6 5 % 8 w   + #.# # F #.;.l.b.P.W.Q.jXaXjXxXjXjXhXhXhXiXhXjXE.W.W.W.",
"jXjXjXjXjXjXjXzXxXjXhXhXjXaXjXaXDXJ.G.T.qXP.-X;Xh.k.=X=Xw 4 e e % u m.k.k.G.Z.g.;.l.b.I.qXW.W.iXjXjXjXjXhXjXjXjXhXjXjXjXjXW.W.!.",
"jXjXjXjXjXhXjXjXhXjXjXjXjXjXjXjXW.pXW.eXT.C.G.ZXL.;X>X4Xt t e e q w m.MXmXZXCXCXT.R.qXP.W.W.jXiXjXjXhXjXjXjXjXjXjXjXjXjXE.E.W.E.",
"hXjXhXjXjXjXjXjXjXjXjXjXpXhXhXhXjXH.H.lXSX~.T.Z.Q.,XL.:X8 t t f u k.m.ZXmXsXE.E.W.R.R.J.W.W.hXzXhXkXE.E.E.E.W.W.jXW.E.jXjXjXjXjX",
"pXhXjXjXhXjXjXjXjXjXkXjXhXhXhXhXDXcXE.E.Y.Y.Y.vXDXnXMX>Xi %Xz %Xu =XMXNXZXaXbXhXF.E.J.Q.jXjXzXpXjXE.E.E.W.E.W.E.E.E.W.E.jXjXhXjX",
"zXhXhXhXjXjXjXjXW.E.jXE.hXhXjXkXD.aXvXvXY.Y.Y.U.hXaXNXBXj.j g y 8 <XAXJ.sXbXbXzXhXjXjXjXVXjXhXgX!.!.E.!.E.T.E.!.W.W.jXE.jXpXjXhX",
"jXhXhXjXjXjXW.W.jXE.E.E.E.E.jXjXjXpXY.!.Y.vXgXY.hXaXDXNXj.d l h 8 4X2XJ.xXfXzXgXxXlXW.H.E.iXhXkXgXE.E.E.E.!.R.W.W.W.E.jXjXhXhXhX",
"jXjXjXjXjXE.jXjXhXE.E.jXjXhXE.jXjXjXVXjXW.jXgXgXgXhXpXNXj.j k s q <XK.SXS.gXkXkXjXjXVXjXW.jXkXU.hXE.E.E.E.W.jXE.W.E.jXjXjXE.jXjX",
"jXjXjXjXjXjXjXjXjXjXjXjXjXjXjXjXpXjXJ.jXjXjX!.kXgXkXjX<Xp j l s q MXMXZXhXkXgXkXjXjXJ.1XjXE.kXkXhXjXjXjXE.kXjXjXjXjXjXE.jXjXjXjX",
"E.hXjXjXjXjXjXjXjXE.jXjXE.jXjXhXW.jXpXVXjXW.jXU.kXkXVX<Xi p g h q NXMXJ.U.kXY.kXjXjXeXpXjXjXkXgXE.jXjXjXjXjXjXjXjXjXjXjXjXjXhXE.",
"jXjXjXjXjXE.jXjXjXjXjXjXjXjXjXE.jXjXW.jXjXjXhXkXgXjXnX,Xu d g k q 3XmXK.E.kXD.hXW.VXVXjXjXjXU.kXkXjXjXjXjXjXE.jXjXjXjXjXE.jXjXjX",
"jXjXjXjXjXE.hXE.jXjXjXjXjXjXjXE.W.jXjXJ.jXW.E.gXU.kXVX,Xu y h g a :XNXnXlXlXU.kXjXjXpXeXjXjXkXU.E.jXjXjXjXE.E.jXjXjXkXjXjXjXjXjX",
"jXjXjXE.jXjXjXjXkXE.jXjXjXjXjXjXjXjXjXVXjXjXkXkXU.jXJ.,Xu y g h i m.NXMXlXhXU.E.jXjX1XpXjXE.E.kXhXjXjXjXjXjXhXjXE.jXE.jXjXjXjXE.",
"jXjXjXhXjXjXE.jXE.jXjXjXjXE.jXjXjXjXW.pXjXjXE.gXU.kXW.,Xu i h h a u NX,XpXF.U.U.jXjXjXjXjXjXhXgXjXjXjXE.jXjXE.jXjXjXE.jXjXjXjXjX",
"E.jXjXjXjXjXjXjXjXjXE.jXjXhXjXjXjXjXjXW.nXjXhXE.kXkXVXmXk.p h h y 7 3XNXjXE.kXkXjXW.VXjXjXE.hXE.E.jXjXhXjXjXjXjXjXjXjXjXjXE.hXjX",
"jXjXE.jXjXjXjXE.jXjXjXjXE.jXjXjXjXkXW.jXjXW.jXkXkXkXjX,X:Xj y k y a BXNXVXjXkXU.E.hXjXjXjXjXE.kXE.jXjXjXE.jXjXjXjXjXjXjXjXjXjXjX",
"jXjXjXE.jXjXjXjXjXE.jXjXjXjXE.kXjXjXjXjXnXjXE.hXjXjXjXMXMXp d x s a j.3XJ.aXE.kXhXjXjXW.jXjXhXhXjXjXhXjXjXjXjXE.E.jXjXjXE.jXE.hX",
"jXE.jXkXE.jXjXjXjXjXjXjXjXjXjXjXE.jXjXjXjXjXjXjX!.kXsXMXNXr s l g y q >X,XjXU.kXkXE.jXW.jXjXjXjXhXjXhXjXjXjXjXhXjXjXjXjXjXE.jXjX",
"jXjXjXjXjXjXE.hXjXjXE.jXjXjXjXE.jXjXjXjXnXW.jXjXU.hXK.MX>X7 y s g s r >XAXW.jXU.jXjXjXjXVXW.W.jXjXE.!.jXjXjXjXjXjXjXjXE.jXjXjXjX",
"jXjXE.jXE.jXjXjXjXjXjXjXjXjXjXhXE.hXjXjXW.jXjXE.U.jXH.mXBX7 i s g k i m.AXpXSXU.kXE.jXjXW.jXE.hXjXjXjXE.jXjXjXE.jXjXjXE.jXjXE.jX",
"jXjXjXjXjXjXjXjXjXjXE.jXE.jXjXE.kXE.jXW.VXjXjXhXlXkXJ.1XNXq y s s g d w L.K.SXU.gXE.jXjXjXjXjXjXjXjXjXjXjXjXjXjXjXjXjXjXjXjXjXjX",
"jXjXjXjXjXjXhXjXjXjXjXjXjXjXjXjXjXhXQ.jXpXW.jXkXvXjXjX1XMXp y s g g d a M.E.S.kXgXkXW.VXjXjXjXjXjXjXjXjXjXE.E.hXE.jXjXjXjXE.kXE.",
"jXE.hXjXjXjXE.jXjXE.jXE.jXjXE.kXjXjXjXjX1XpXjXjXhXS.J.nXBX>Xd l x x j j.L.FXD.kXE.hXjXjXjXjXE.hXjXjXE.hXjXjXjXjXjXjXjXjXjXjXjXjX"
};
