/* XPM */
static char *_8a458c2799e4335e0ad0357645c73e0yH5wc9bKsbdZPOP9[] = {
/* columns rows colors chars-per-pixel */
"64 64 244 2 ",
"   c #020301",
".  c #0B0101",
"X  c #000A00",
"o  c #040709",
"O  c #110301",
"+  c #190C03",
"@  c #041402",
"#  c #1B1815",
"$  c #15150A",
"%  c #240B07",
"&  c #271805",
"*  c #291B14",
"=  c #16210E",
"-  c #172A16",
";  c #16361C",
":  c #093211",
">  c #29281C",
",  c #263419",
"<  c #34290F",
"1  c #1A3921",
"2  c #132923",
"3  c #37372C",
"4  c #2C3028",
"5  c #483017",
"6  c #483929",
"7  c #53362A",
"8  c #1A4321",
"9  c #3A543A",
"0  c #2D4C2E",
"q  c #32643B",
"w  c #10481B",
"e  c #514938",
"r  c #744C3A",
"t  c #705238",
"y  c #76643D",
"u  c #335A46",
"i  c #564D45",
"p  c #525549",
"a  c #765B47",
"s  c #69594E",
"d  c #5B6655",
"f  c #577758",
"g  c #4C694B",
"h  c #796748",
"j  c #65645A",
"k  c #766956",
"l  c #77775A",
"z  c #69734E",
"x  c #527261",
"c  c #776D66",
"v  c #6A7966",
"b  c #78776B",
"n  c #7B7C74",
"m  c #6C6A64",
"M  c #87573E",
"N  c #885E4A",
"B  c #905E51",
"V  c #88684D",
"C  c #936948",
"Z  c #856A59",
"A  c #8A785E",
"S  c #967558",
"D  c #8F714F",
"F  c #A67959",
"G  c #B07F56",
"H  c #887B63",
"J  c #88796D",
"K  c #A67962",
"L  c #5A8D5B",
"P  c #65895D",
"I  c #798A57",
"U  c #5C8B64",
"Y  c #5A9566",
"T  c #648D6A",
"R  c #698968",
"E  c #69966A",
"W  c #72976A",
"Q  c #7A8776",
"!  c #6A9774",
"~  c #789876",
"^  c #79866D",
"/  c #7CAC7C",
"(  c #79A578",
")  c #7ABD7D",
"_  c #77BA7A",
"`  c #6FAC71",
"'  c #6DC97D",
"]  c #74C375",
"[  c #7AC576",
"{  c #75C57C",
"}  c #7AC47D",
"|  c #73C97C",
" . c #77C977",
".. c #70C46E",
"X. c #89895A",
"o. c #B1895A",
"O. c #B2A45E",
"+. c #888779",
"@. c #849B7D",
"#. c #958E70",
"$. c #A78769",
"%. c #B68A67",
"&. c #B79778",
"*. c #AF9272",
"=. c #86A36D",
"-. c #82A67C",
";. c #85BA7A",
":. c #98B075",
">. c #ABA96D",
",. c #AFAB71",
"<. c #C8954F",
"1. c #D4A35C",
"2. c #C6956B",
"3. c #C89977",
"4. c #D0966A",
"5. c #C8A67A",
"6. c #D6A679",
"7. c #CFA96E",
"8. c #E6AB7C",
"9. c #E8B57B",
"0. c #F3B67D",
"q. c #83C27C",
"w. c #7DA983",
"e. c #7CB483",
"r. c #75BD83",
"t. c #7DBD83",
"y. c #7BB989",
"u. c #6B9682",
"i. c #75C583",
"p. c #7AC383",
"a. c #74C983",
"s. c #7BC489",
"d. c #77C589",
"f. c #75C689",
"g. c #8B8B85",
"h. c #899986",
"j. c #93938C",
"k. c #969987",
"l. c #999C94",
"z. c #919088",
"x. c #A89986",
"c. c #B99C87",
"v. c #A59B96",
"b. c #B19890",
"n. c #86A785",
"m. c #95A68C",
"M. c #83B484",
"N. c #82BC84",
"B. c #85BB8B",
"V. c #8ABA88",
"C. c #93BA8A",
"Z. c #9BA797",
"A. c #87BB92",
"S. c #9ABA97",
"D. c #A7A89C",
"F. c #B0AA90",
"G. c #AAABA5",
"H. c #B3ABAA",
"J. c #AAB6A7",
"K. c #B6B5A9",
"L. c #BABBB4",
"P. c #BCBBBB",
"I. c #B8B7B6",
"U. c #AEB3B0",
"Y. c #C6A886",
"T. c #D9AC86",
"R. c #DBB386",
"E. c #CDB196",
"W. c #E3AD86",
"Q. c #E6B887",
"!. c #F2B888",
"~. c #E7B993",
"^. c #C7B8A7",
"/. c #C4BBBB",
"(. c #C5B7B8",
"). c #D6BDA9",
"_. c #E4BCA4",
"`. c #82C285",
"'. c #85C589",
"]. c #8AC294",
"[. c #91C18D",
"{. c #ADC3A7",
"}. c #BAC4B8",
"|. c #BCC4AD",
" X c #F3C48B",
".X c #EBC495",
"XX c #F7C999",
"oX c #FAD29A",
"OX c #E9C78E",
"+X c #C2C4BD",
"@X c #C5C9BC",
"#X c #D5C9B7",
"$X c #C9D2B9",
"%X c #D7D0B7",
"&X c #E8CAA4",
"*X c #F4CDA8",
"=X c #F8D3A8",
"-X c #F6D7B6",
";X c #EDCFB4",
":X c #BCBEC1",
">X c #C8BDC3",
",X c #BDC5C2",
"<X c #C4C3C3",
"1X c #CCCCCC",
"2X c #C7C9C6",
"3X c #C9D3C8",
"4X c #D4D5CB",
"5X c #CDCDD2",
"6X c #D2D3D4",
"7X c #DBDBDC",
"8X c #D9D9D6",
"9X c #D2D1D0",
"0X c #E4D7C6",
"qX c #F4DAC7",
"wX c #E3DDD9",
"eX c #EBD1CB",
"rX c #DCE3DD",
"tX c #D7E3DB",
"yX c #D7E6CD",
"uX c #E3E3DD",
"iX c #E6E6D7",
"pX c #FCE7D8",
"aX c #F3E9D2",
"sX c #DCDCE1",
"dX c #E3DEE4",
"fX c #E8DDE5",
"gX c #DCE3E3",
"hX c #DEE9E7",
"jX c #E2E3E4",
"kX c #E2EBE4",
"lX c #E6E6E9",
"zX c #EBECEC",
"xX c #EAE7E7",
"cX c #F5ECEB",
"vX c #EDF2ED",
"bX c #FCF4EB",
"nX c #EAEEF4",
"mX c #F3F4F4",
"MX c #F6F9F5",
"NX c #F9FAF6",
"BX c #F6FAFA",
"VX c #FEFEFE",
"CX c #F9F6F9",
"ZX c #ECF3F5",
/* pixels */
"a.f.i.a.p.p.} p.] ) } } { ] ] } } q.p.} p.{ { { { { { ] ] [ [  .} p.p.p.p.p.p.`.p.p.p.p.s.s.p.p.p.p.p.p.N.`.p.N.q.p.p.p.p.i.a.a.",
"a.a.i.i.i.i.p.} } p.q.p. .} } } } `.`.`.p.p.p.i.i.{ { ] ] ] ] ] } p.p.p.p.p.p.p.p.p.p.p.p.p.p.i.d.p.p.p.p.`.N.p.`.p.p.p.p.d.a.a.",
"i.{ i.i.i.} { } p.} } } `.} } _ N.t.y.y.t.y.s.t.N.s.i.} p.i.{ _ q.p.p.p.} i.} p.p.i.p.p.p.p.a.p.p.p.p.p.t.p.`.p.p.N.p.p.i.i.a.i.",
" . .{ { { { } p.} } } ) N.;._ ` / e.M.y.M.M.M.M./ _ e.s.t.i.{ i.p.} } p.p.p.} p.p.p.| p.i.i.i.i.i.i.i.d.p.p.p.p.p.p.p.p.p.i.i.a.",
" .[  . .} { { } s.p.t.y.N.M.( ( ! ~ ( ~ ~ ~ ~ ~ W ( M.V.N.y.y.f.p.} } } { { p.{ { { p.i.{ a.{ a.a.a.i.i.i.p.p.p.p.p.p.p.i.i.i.i.",
"[ [ [  .{ { i.i.p.t.e.w.n./ ~ @.V.V.m.C.m.m.m.k.m.S.S.C.V.e.y.s.p.p.} } p.} } i.a.} | | { { | a.{ a.a.i.i.i.p.i.p.p.p.i.p.p.p.i.",
"[ [ [  .} p.i.s.r.w.w.w.h.n.D.J.yXyXyXyX0X0XeX%X#X$X$X{.n./ e.].p.p.} p.} } } i.} | { | { {  .| a.a.a.i.i.i.i.p.i.p.p.p.p.d.p.i.",
"} } p.p.p.p.s.'.y.w.u.w.l.J.2XyXbXaXpXpXpXaXqXqX-X0X%X{.-.Q ~ A.N.`.`.`.p.p.p.} p.} p.{ p.{ } { a.a.a.i.i.d.i.p.i.p.p.i.p.p.p.p.",
"p.p.) r.'.y.y.A.w.w.Z.}.8XxXcXcXbXaX#X^.;X;X_.qXqX;X).#.I v W @.e.e.N.'.B.N.'.'.) ) ) } p.} } ] _ a.a.i.i.i.d.p.i.i.i.p.p.p.p.p.",
"p.s.{ p.'.y.( n.u.Z.|.8XcXCXCXCXbXqXY.*.Y._._._.;X_.c.X.k I +.-.n.;.M./ / ;.M.'.N.N.;.t.`.'.p.p.p.p.p.p.i.i.i.{ i.p.p.p.i.p.p.p.",
"i.p.p.y.]./ W ^ Z.L.wXcXbXCXCXCXbXeXx.S *.E.W._._.Y.$.k c #.k.Z.h.~ ~ ~ W ( M.V.V.V.B.N.M.N.y.N.p.p.t.) ) i.i.i.i.i.p.i.p.p.p.p.",
"i.d.p.y.V.( P l F.#XqXqXqXcXbXbXcX;Xb.H K x.b.c.c.*.H A #.l.J.K.m.m.m.n.n.h.n.n.n.n.M.-./ -.M.V.N.N.) N.p.p.p.p.p.d.i.p.p.p.p.p.",
"' a.i.r.C.=.I l c.E.).E.E._.cXbXpX0X^.x.H A A H H H H +.v.K.L.+X2X3X3X@XJ.Z.h.@.~ ~ ~ ~ ~ n.C.C.[.`.`.`.`.'.p.p.p.i.p.d.p.p.p.p.",
"' a.{ ;.;.:.X.S &.3.Y.3.c.W.*XqXpXeX2XE.+.H H X.k k ^ z.G.U.L.}.8XtXuXwX4X|.J.Z.m.m.n.n.h.-.h.-.-./ =.;.;.'.s.p.p.p.i.p.d.i.p.i.",
"'  .] ) q.,.$.*.5.5.R.6.6.6.W.E.0X4X0X4XG.x.D.k.^ ^ +.k.U.:X,X2X7XwXfXfXuX8X8X4X1X3X@X|.J.m.n.~ W W W ` / } p.i.p.i.p.i.p.d.p.p.",
"'  ._ ;.:.>.O.O.7.6.R.XX.XQ.7.5.#X@X8XiX3X@X+XK.Z.h.z.Z.I.,X5X5XxXfXcXfXxXcXNXVXzXkXiXrXyX}.D.n.n.-.=.-.n.M.;./ `.`.p.p.} p.{ { ",
"' p.;.:.O.O.7.9.OXOX&X=X=XOXR.6.>.H.#XyXuXwX8X5X>XH.H.(.1X8XtXgXmXCXCXCXCXNXVXCXNXCXNXMXzXrX4X3X$X}.{.Z.@.@.~ ~ V.M.M.t.p.[ ] ' ",
"y.N.:.>.O.1.9. XoXOXF.Y.&X=XQ.R.$.c.^.4XwXfXfXfX6X>X>X>XwXdXhXhXCXNXVXVXVXVXVXVXVXVXVXVXVXCXzXkXuXrX4X}.G.Z.k.h.@.-.;.N.`.] ] | ",
"V.V.:.>.,.9.OX X*X5.y y ,.*XR.T.>.c.^.#X8XdXfXfXwX8X8XwXwXjXhXhXVXVXVXVXVXVXVXVXVXVXVXVXVXVXVXVXMXMXZXrX4X}.J.m.^ ~ ( N.`.) ]  .",
"C.:.>.>.R.oXoXoX-X,.5 5 ,.-X~.Q.5.5.Y.#X0XdXlXdXfXfXwXuXwXsXlXnXVXVXVXVXVXVXVXVXVXVXVXVXVXVXVXVXVXVXVXNXvXuX2XJ.~ Q ~ ( ;.p.p.} ",
"F.,.>.5.OXoX=X=X-X>.5 5 &.*X~.~.6.5.5.E.4XiXxXwXjXjXuXuXjXzXZXBXVXVXVXVXVXVXVXVXVXVXVXVXVXVXVXVXVXVXVXVXVXmXuX$XZ.n.R W / '.N.p.",
">.O.,.R.OXoX=X=X=XF.h y Y.*X~.Q.!.6.3.Y.E.1X4X4XtXrXuXrXxXZXVXVXVXVXVXVXVXVXVXVXVXVXVXVXVXVXVXVXVXVXVXVXVXNXzXrX3XJ.h.! ! / M.N.",
"O.O.7.Q.XX=X-X=X-X%XE.Y.&X=X.X!.!.8.2.*.x.F.}.,X8XtXrXjXzXBXVXVXVXVXVXVXVXVXVXVXVXVXVXVXVXVXVXVXVXVXVXVXCXVXCXzXhX3XJ.w.W ! / C.",
"o.1.9.!.XX=X-X-X;X-X;X;X*X.XQ.8.8.8.%.$.#.k.J.3XtXgXkXvXmXVXVXBXVXVXVXVXVXVXVXVXVXVXVXVXVXVXVXCXVXVXVXCXVXVXVXVXvXrX3XZ.^ f ~ S.",
"<.1. XoXoX=X=X*X=X-X-X&XOXOXQ.Q.0.4.o.C Z k.@XtXtXrXvXBXVXVXVXVXVXVXVXVXVXVXVXVXVXVXVXVXVXVXVXVXVXCXCXCXVXCXVXVXVXvXkX}.R v n.Z.",
"<.1.0.oXXX*X=X=X=X=XoXOXR.Q.Q.8.8.2.D V #.D.3XtXkXvXMXVXVXVXVXVXVXVXVXVXVXVXVXVXVXVXVXVXVXVXVXVXVXVXVXVXVXVXVXVXVXmXkX3Xh.Q h.h.",
"<.1.0. X!.XXXX=XoXOXOXQ.Q.Q.W.T.6.o.D S l.L.6XkXvXMXNXVXVXVXVXBXVXVXVXVXVXVXVXVXVXVXVXVXVXVXVXVXVXVXVXVXVXCXVXVXVXMXzX6XU.j.Q v ",
"<.1. XoXQ.~.XX=XoXOXOX9.Q.Q.T.T.%.$.H #.K.5XhXZXBXVXVXVXVXVXVXVXVXVXVXVXVXVXVXVXVXVXVXVXVXVXVXVXVXVXVXVXVXVXVXVXVXBXzX8X}.G.Q j ",
"<.7..X.XT.T.~.-XOX X9.9.Q.T.Y.%.S X.#.K.9XsXnXBXVXVXVXVXVXVXVXVXVXVXVXVXVXVXVXVXVXVXVXVXVXVXVXVXVXVXVXVXVXVXVXVXVXCXlX6X2XD.n j ",
"o.<.5.3.$.*.W._. X9.8.!.W.3.K B k +.K.9XlXnXBXVXVXVXVXCXVXVXVXVXVXVXVXVXVXVXVXVXVXVXVXVXVXVXVXVXNXNXbXNXVXVXVXVXCXmX7X5X2XG.n j ",
"D D D D N F Y.~.!.0.8.8.4.F r 7 s k.@XgXnXBXBXCXCXVXVXVXVXVXVXNXVXVXVXVXVXVXVXVXVXVXVXVXVXVXVXVXvXxXkXvXVXVXVXBXlXzX5X:X:XG.b j ",
"V y t t r B 3.W.W.T.6.4.K r < % j k.3XjXZXBXVXBXVXCXCXVXNXNXNXVXVXVXVXVXVXVXVXVXVXVXVXVXVXVXVXVXiX8XiXuXvXBXZXnXsX7X>XI.>Xv.m i ",
"O.I z y D $.3.&.3.&.$.t 6 & o > j l.3XiXNXVXVXVXVXVXVXCXcXzXCXVXNXVXVXVXVXVXVXNXVXMXNXNXBXVXVXvXcXwX2X2XtXhXhXhX,X5X:X(.>Xg.i # ",
"..` I I X.$.$.$.S h e e 6 > X - j l.4XvXVXVXVXVXCXVXVXmXzXzXmXCXNXVXVXNXMXNXNXNXNXBXVXVXBXVXVXMXiXwX2X+X5XtXtX5X:X,XI.I.>Xg.4 o ",
"q.q.=.I X.l z y 5 & & , g p - = j D.8XMXVXVXVXVXVXVXVXmXlXjXlXnXNXVXVXMXvXmXNXVXVXBXVXVXVXVXVXMXxXeX@X/.:X2X<X:X:X:X:X>X>Xg.4 o ",
"q.q.;.=.I I y y < , 8 e ~ ^ 0 4 v U.rXbXNXVXVXVXVXVXCXzX7X8XsXlXmXMXMXzXxXvXMXVXBXMXBXVXBXNXVXMXcXwX1X>X:X:X:X:X:X:X:XI.U.n 4 o ",
"q.) ;.;.-.=.=.=.W I L E w.~ f f z.P.7XzXVXVXVXVXVXCXnXsX6X5XsXlXlXzXlXlXjXzXZXNXnXnXNXVXVXVXCXCXCXmX7X1X,X:XI.P.>X(.(.H.j.j 2 o ",
"{ p.`.N.;.V.V.[.q.q.'.) V.( f T G.,X6XjXCXCXCXmXBXmXsX6X5X5XsXsXgXzXzXzXzXmXCXCXlXlXCXVXVXVXVXVXVXCXzX6X<X>X>X/.(.(.(.K.g.j 9 ; ",
"s.d.s.t.) ) ) r._ r.'.p.]._ f R Z.P.2X1XdXlXlXlXnXsX5X1X5XsXdXdXlXnXmXmXBXVXBXmX6X7XnXVXBXVXCXVXzXzXhX6X2X:X>X/.(.(.(.D.Q f T U ",
"i.r.i.r.r.) } ' a.a.' _ `.e.L W Z.H.I.P.5X8X8X8XsX5X>X2XsXlXlXsXsXlXnXmXBXVXmXlX<X1XxXCXCXCXCXnXsXgXtX6X,X:XP.(.(.(.K.h.d x ~ A.",
"f.y.s.p.p.p.p.{ ' ' r._ r.N.-.-.Q g.G.:X:X<X,X<X<X<X<X5X6XsXlXlXlXhXlXlXlXzXlXgX1X>X>X5XfXfXcXfXhXtX,X,X}.:X:X:X/.(.D.v 8 0 Y ].",
"s.s.s.p.N.} p.i.a.a.a.i.`.B.M.@.v n G.P.I.>X:X<XP.I.:X<X5XsXsXdXsXgXhXgXxXjX8X1XU.H.I.1X6X7XdX7XtX,X,X,XU.U.G.G.G.l.Q d 0 q Y y.",
"s.p.t.N.p.p.p.{ { i.i.i.p.N.M.-.v n G.P.I.L.I.I.P.P.P.P.2X5XsXlXtXtXgXjXgX8X1XP.v.G.H.I.>X>X>X>X,X}.}.}.,XJ.Z.j.l.Q n v v u.y.y.",
"d.i.s.p.q.p.} } { { i.p.N.B.M.-.d j g.G.L.}.I.I.2XP.U.U.U.I.5X6X6X8X8X6X8X4X+XU.j.j.l.H.(.(.(.>XL.}.I.U.J.Z.h.Q +.j p g f u.y.y.",
"a.i.p.p.`.q.} } p.} p.p.'.'.;.~ 0 3 j g.G.@X+X+XL.H.l.z.z.v.U.+X2X@X}.}.<X2XI.H.g.g.j.v.I.>X>X>X^.)./.K.v.z.+.n n p > = - 9 ~ A.",
"a.| } } } q.q.} p.i.{ p.y._ L q = $ 3 d +.G.D.D.G.v.j.g.z.l.I.}.}.}.J.G.G.U.G.G.z.g.J g.v.v.v.b.b.b.b.x.+.+.b b d 3 $ X o - g W ",
"' ' { } } q.q.} } ) _ i.r.Y q : @   $ 3 p b n b j.g.g.j.l.G.I.L.U.G.m.z.z.j.z.+.g.c m c c J c Z a B Z a k m j p > O       X = 1 ",
"a.a.{  .} [ q.} } p.i.d.t.Y w @ X     > 3 s k j l b J z.l.G.G.D.D.m.g.b b b v j j s i i i i i a B B B B Z Z s e *     .         ",
"d.p.i.p.}  .} { ] '.r.e.].U : X X o   $ 7 s t r M N V k Z J n b J b c c m d 4 # > # * * % 5 Z $.2.4.4.4.%.K M 7 % + . o       X ",
"p.p.p.p.p. .|  . .s.) e.].T ; @ o o   + 7 r r M C C C V a s p i i i 6 i i 3 # o     . O O < k o.4.0.0.4.4.K M 7 % O O o o   X X ",
"s.p.p.p.{ | {  .{ '._ N.].U ; X X     + 5 t C o.o.o.F S t e < & $ # # # # o o       . . O & t D 4.0.!.6.4.K r 7 % o o o     X X ",
"N.s.p.i.p.} | { { p.} t.A.Y ; @       + 5 t F 4.2.4.5.%.C e & . . . . o o o o   o . . . . % 7 N 4.W.W.4.2.S r 5 % % o o   X - ; ",
"s.p.p.p.{ {  .{  .p.p.N.N.U 8 @ o     + & 5 D 3.3.6.T.Y.$.a * O . .       o o o       . O % 6 a K Y.5.2.$.V 5 % O         - g R ",
"s.p.i.p.p.{ { | } p.p.N.e.! q : X o     O < V 3.~.*X*X_.c.Z 5 O               o         O + < s *.T.E.c.$.a * . .       X ; P V.",
"p.`.p.} } } { { { ) `.`.y.e.E g 2 o     O < Z c.eXqXpXeXb.s > .                 o o     . . $ e ^.eXqX%Xx.h > .     X X @ 8 P N.",
"p.p.} p.} i.{ } ) ) p.s.N.'.y.! u 2 o     * c b.eXpXcXeXv.s 4 o                             X 6 (.wXpX%Xk.d =       X @ : 0 E V.",
"p.i.} i.} p.{ p.{ { p.N.t.N.N.B.u.x 2 o X 4 ^ K.$X4X%X+Xj.d >       X   X     X X   X X X   @ , Z.@X$X|.#.g ,   X X X ; g ` _ _ ",
"p.p.p.p.{ { p.{ } r.) p.p.N.t.y.y.! u ; 8 u @.{.J.J.{.S.h.f 9 ; ; ; ; ; 1 ; 2 1 2 ; ; 1 ; - ; 9 n.S.{.S.-.P 9 8 1 ; 8 u Y ` ;.} ",
"a.p.p.} p.p.p.} ) } } ) } t.p.N.p.e.` L L E / [.C.C.[.C.M.( E L T T T T ! T T T E T T T T R T ~ n.S.S.V.-.( W U Y U U ! _ `.p.[ ",
"i.} i.p.{ p.p.} } r.r.} } } ) } _ [ [ q.[ q.q.q.q.q.;.q.q.q.q.`.N.V.V.A.V.B.B.V.].B.M.B.N.M.e.B.'.].V.N.N.'.N.M.A.A.y.s.s.'.{ _ ",
"| p.p.| } p.p.p.) i.} } ) } ) [ }  .[ ....[ p.p.[ [ _ [ ]  .[ } q.`.N.p.t.`.`.) `.t.) t.p.'.e.r.s.y.p.) q.q.'.t.y.y.y.y.s.p.{  .",
"p.| p.p.i.p.} p.} ) } ) } } } ] [ [ [ [ _ _ } a.[ } } [ ] _ ] _ } p.p.[ p.} } q.`. .} } p.s.p.{ r.' { { } }  .} i.y.f.r.r.i.{ } ",
"| p.i.| p.} p.p.r.} } { { ) ] } _ } p.'.`.p.y.r.d.d.d.d.f.i.i.{ { ] ] ] ] .. .]  . .] ]  . .| ' | |  . . . . .} s.s.d.d.i.a.| | ",
"} | p.p.p.} `.p.r.} } ) { } ] ] p.p.r.r.i.d.d.d.d.y.f.d.f.f.a.a.| |  . .[  . . . . .' ] | | | | ' '  .| ....[ } { i.r.i.i.| | ] "
};
